*
*
G04 PADS 9.2 Build Number: 406656 generated Gerber (RS-274-X) file*
G04 PC Version=2.1*
*
%IN "Yosun-Semtech_SX9513-20"*%
*
%MOIN*%
*
%FSLAX35Y35*%
*
*
*
*
G04 PC Standard Apertures*
*
*
G04 Thermal Relief Aperture macro.*
%AMTER*
1,1,$1,0,0*
1,0,$1-$2,0,0*
21,0,$3,$4,0,0,45*
21,0,$3,$4,0,0,135*
%
*
*
G04 Annular Aperture macro.*
%AMANN*
1,1,$1,0,0*
1,0,$2,0,0*
%
*
*
G04 Odd Aperture macro.*
%AMODD*
1,1,$1,0,0*
1,0,$1-0.005,0,0*
%
*
*
G04 PC Custom Aperture Macros*
*
*
*
*
*
*
G04 PC Aperture Table*
*
%ADD011C,0.01*%
%ADD012C,0.012*%
%ADD015C,0.06*%
%ADD017R,0.06X0.06*%
%ADD019C,0.001*%
%ADD020C,0.055*%
*
*
*
*
G04 PC Circuitry*
G04 Layer Name Yosun-Semtech_SX9513-20 - circuitry*
%LPD*%
*
*
G04 PC Custom Flashes*
G04 Layer Name Yosun-Semtech_SX9513-20 - flashes*
%LPD*%
*
*
G04 PC Circuitry*
G04 Layer Name Yosun-Semtech_SX9513-20 - circuitry*
%LPD*%
*
G54D11*
G01X2134300Y1620000D02*
G75*
G03X2134300I-4300J0D01*
G01Y1630000D02*
G03X2134300I-4300J0D01*
G01X2094300Y1620000D02*
G03X2094300I-4300J0D01*
G01Y1630000D02*
G03X2094300I-4300J0D01*
G01X2074300Y1680000D02*
G03X2074300I-4300J0D01*
G01X2054300Y1620000D02*
G03X2054300I-4300J0D01*
G01Y1630000D02*
G03X2054300I-4300J0D01*
G01X2064300Y1690000D02*
G03X2064300I-4300J0D01*
G01X2024300Y1750000D02*
G03X2024300I-4300J0D01*
G01X2014300Y1760000D02*
G03X2014300I-4300J0D01*
G01X2004300Y1750000D02*
G03X2004300I-4300J0D01*
G01Y1760000D02*
G03X2004300I-4300J0D01*
G01X1994300Y1750000D02*
G03X1994300I-4300J0D01*
G01Y1760000D02*
G03X1994300I-4300J0D01*
G01X1984300Y1750000D02*
G03X1984300I-4300J0D01*
G01Y1760000D02*
G03X1984300I-4300J0D01*
G01X1974300Y1750000D02*
G03X1974300I-4300J0D01*
G01Y1760000D02*
G03X1974300I-4300J0D01*
G01X1964300Y1750000D02*
G03X1964300I-4300J0D01*
G01Y1760000D02*
G03X1964300I-4300J0D01*
G01X1934300Y1620000D02*
G03X1934300I-4300J0D01*
G01Y1630000D02*
G03X1934300I-4300J0D01*
G01Y1660000D02*
G03X1934300I-4300J0D01*
G01X1894300Y1620000D02*
G03X1894300I-4300J0D01*
G01Y1630000D02*
G03X1894300I-4300J0D01*
G01X1879000Y1667600D02*
G03X1879000I-4300J0D01*
G01Y1697600D02*
G03X1879000I-4300J0D01*
G01X1854300Y1620000D02*
G03X1854300I-4300J0D01*
G01Y1630000D02*
G03X1854300I-4300J0D01*
G01X1974300Y1620000D02*
G03X1974300I-4300J0D01*
G01Y1630000D02*
G03X1974300I-4300J0D01*
G01X2004300Y1540000D02*
G03X2004300I-4300J0D01*
G01X2188700Y1401800D02*
Y1798200D01*
G03X2188200Y1798700I-500J-0*
G01X1811800*
G03X1811300Y1798200I0J-500*
G01Y1401800*
G03X1811800Y1401300I500J0*
G01X2188200*
G03X2188700Y1401800I-0J500*
G01X1985529Y1665188D02*
G03X1986354Y1665737I375J332D01*
G01X1985970Y1667898D02*
G03X1986354Y1665737I4030J-398D01*
G01X1985970Y1667898D02*
G03X1985118Y1668300I-498J49D01*
G01X1983879Y1667061*
G03X1984042Y1666245I353J-354*
G01X1985529Y1665188D02*
G03X1984042Y1666245I-3029J-2688D01*
G01X2134300Y1620000D02*
G03X2134300I-4300J0D01*
G01Y1630000D02*
G03X2134300I-4300J0D01*
G01X2111850Y1463724D02*
G03X2116150I2150J-3724D01*
G01X2111850D02*
G03X2112100Y1464157I-250J433D01*
G01Y1485006*
G03X2111954Y1485359I-500J-0*
G01X1991390Y1605923*
G03X1990922Y1606056I-354J-353*
G01X1986255Y1608458D02*
G03X1990922Y1606056I3745J1542D01*
G01X1986255Y1608458D02*
G03X1985439Y1608621I-462J-190D01*
G01X1982093Y1605275*
G03X1981946Y1604921I353J-354*
G01Y1560241*
X1981390Y1558897D02*
G03X1981946Y1560241I-1344J1344D01*
G01X1981390Y1558897D02*
X1975869Y1553376D01*
G03Y1552669I354J-353*
G01X2035344Y1493195*
X2035900Y1491851D02*
G03X2035344Y1493195I-1900J0D01*
G01X2035900Y1491851D02*
Y1464157D01*
G03X2036150Y1463724I500J-0*
G01X2031850D02*
G03X2036150I2150J-3724D01*
G01X2031850D02*
G03X2032100Y1464157I-250J433D01*
G01Y1490857*
G03X2031954Y1491211I-500J0*
G01X1971485Y1551679*
X1960831Y1562333*
X1960274Y1563677D02*
G03X1960831Y1562333I1900J-0D01*
G01X1960274Y1563677D02*
Y1596832D01*
G03X1960128Y1597185I-500J-0*
G01X1951390Y1605923*
G03X1950922Y1606056I-354J-353*
G01X1953944Y1609078D02*
G03X1950922Y1606056I-3944J922D01*
G01X1953944Y1609078D02*
G03X1954077Y1608610I486J-114D01*
G01X1963518Y1599169*
X1964074Y1597826D02*
G03X1963518Y1599169I-1900J-0D01*
G01X1964074Y1597826D02*
Y1564671D01*
G03X1964221Y1564317I500J0*
G01X1972475Y1556063*
G03X1973182I353J354*
G01X1978000Y1560881*
G03X1978146Y1561235I-354J354*
G01Y1605915*
X1978703Y1607259D02*
G03X1978146Y1605915I1343J-1344D01*
G01X1978703Y1607259D02*
X1987662Y1616219D01*
X1989006Y1616775D02*
G03X1987662Y1616219I0J-1900D01*
G01X1989006Y1616775D02*
X2006048D01*
G03X2006460Y1617559I0J500*
G01X2011792Y1623909D02*
G03X2006460Y1617559I-1792J-3909D01*
G01X2011792Y1623909D02*
G03X2012500Y1624364I208J455D01*
G01Y1625636*
G03X2011792Y1626091I-500J0*
G01Y1633909D02*
G03Y1626091I-1792J-3909D01*
G01Y1633909D02*
G03X2012500Y1634364I208J455D01*
G01Y1637270*
G03X2012354Y1637624I-500J0*
G01X1992806Y1657171*
X1992765Y1657214D02*
G03X1992806Y1657171I1385J1300D01*
G01X1992765Y1657214D02*
G03X1991900Y1656872I-365J-342D01*
G01Y1630994*
G03X1992046Y1630641I500J0*
G01X1996110Y1626577*
G03X1996578Y1626444I354J353*
G01X1993556Y1623422D02*
G03X1996578Y1626444I3944J-922D01*
G01X1993556Y1623422D02*
G03X1993423Y1623890I-486J114D01*
G01X1988656Y1628656*
X1988100Y1630000D02*
G03X1988656Y1628656I1900J0D01*
G01X1988100Y1630000D02*
Y1663634D01*
G03X1987864Y1664059I-500J0*
G01X1986971Y1664812D02*
G03X1987864Y1664059I3029J2688D01*
G01X1986971Y1664812D02*
G03X1986146Y1664263I-375J-332D01*
G01X1984636Y1659059D02*
G03X1986146Y1664263I-2136J3441D01*
G01X1984636Y1659059D02*
G03X1984400Y1658634I264J-425D01*
G01Y1626366*
G03X1984636Y1625941I500J-0*
G01X1980364D02*
G03X1984636I2136J-3441D01*
G01X1980364D02*
G03X1980600Y1626366I-264J425D01*
G01Y1643766*
G03X1979814Y1644176I-500J-0*
G01X1975364Y1650941D02*
G03X1979814Y1644176I2136J-3441D01*
G01X1975364Y1650941D02*
G03X1975600Y1651366I-264J425D01*
G01Y1663369*
X1976156Y1664713D02*
G03X1975600Y1663369I1344J-1344D01*
G01X1976156Y1664713D02*
X1976691Y1665247D01*
G03X1976465Y1666084I-353J354*
G01X1973854Y1671763D02*
G03X1976466Y1666084I3646J-1763D01*
G01X1973854Y1671763D02*
G03X1973029Y1672312I-450J217D01*
G01X1973441Y1677136D02*
G03X1973029Y1672312I-3441J-2136D01*
G01X1973441Y1677136D02*
G03X1973866Y1676900I425J264D01*
G01X1976465*
G03X1976818Y1677046I-0J500*
G01X1981115Y1681344*
X1982459Y1681900D02*
G03X1981115Y1681344I-0J-1900D01*
G01X1982459Y1681900D02*
X1992500D01*
X1993844Y1681344D02*
G03X1992500Y1681900I-1344J-1344D01*
G01X1993844Y1681344D02*
X2001110Y1674077D01*
G03X2001578Y1673944I354J353*
G01X1999340Y1667467D02*
G03X2001578Y1673944I3160J2533D01*
G01X1999340Y1667467D02*
G03X1998450Y1667154I-390J-313D01*
G01Y1666944*
G03X1998596Y1666591I500J0*
G01X2038610Y1626577*
G03X2039078Y1626444I354J353*
G01X2036056Y1623422D02*
G03X2039078Y1626444I3944J-922D01*
G01X2036056Y1623422D02*
G03X2035923Y1623890I-486J114D01*
G01X1996904Y1662909*
G03X1996050Y1662556I-354J-353*
G01Y1659508*
G03X1996196Y1659155I500J0*
G01X2015744Y1639608*
X2016300Y1638264D02*
G03X2015744Y1639608I-1900J0D01*
G01X2016300Y1638264D02*
Y1618177D01*
X2015744Y1616834D02*
G03X2016300Y1618177I-1344J1343D01*
G01X2015744Y1616834D02*
X2012441Y1613531D01*
X2011098Y1612975D02*
G03X2012441Y1613531I-0J1900D01*
G01X2011098Y1612975D02*
X1993818D01*
G03X1993398Y1612203I0J-500*
G01X1993944Y1609078D02*
G03X1993398Y1612203I-3944J922D01*
G01X1993944Y1609078D02*
G03X1994077Y1608610I486J-114D01*
G01X2115344Y1487344*
X2115900Y1486000D02*
G03X2115344Y1487344I-1900J0D01*
G01X2115900Y1486000D02*
Y1464157D01*
G03X2116150Y1463724I500J-0*
G01X2094300Y1620000D02*
G03X2094300I-4300J0D01*
G01Y1630000D02*
G03X2094300I-4300J0D01*
G01X2074300Y1680000D02*
G03X2074300I-4300J0D01*
G01X2054300Y1620000D02*
G03X2054300I-4300J0D01*
G01Y1630000D02*
G03X2054300I-4300J0D01*
G01X2056276Y1667850D02*
G03Y1672150I3724J2150D01*
G01Y1667850D02*
G03X2055843Y1668100I-433J-250D01*
G01X2013750*
X2012406Y1668656D02*
G03X2013750Y1668100I1344J1344D01*
G01X2012406Y1668656D02*
X1998109Y1682954D01*
G03X1997756Y1683100I-353J-354*
G01X1973866*
G03X1973441Y1682864I-0J-500*
G01Y1687136D02*
G03Y1682864I-3441J-2136D01*
G01Y1687136D02*
G03X1973866Y1686900I425J264D01*
G01X1998750*
X2000094Y1686344D02*
G03X1998750Y1686900I-1344J-1344D01*
G01X2000094Y1686344D02*
X2014391Y1672046D01*
G03X2014744Y1671900I353J354*
G01X2055843*
G03X2056276Y1672150I0J500*
G01X2064300Y1690000D02*
G03X2064300I-4300J0D01*
G01X2054613Y1750500D02*
Y1745409D01*
X2053312Y1744109D02*
G03X2054613Y1745409I0J1300D01*
G01X2053312Y1744109D02*
X2042312D01*
X2041012Y1745409D02*
G03X2042312Y1744109I1300J0D01*
G01X2041012Y1745409D02*
Y1750500D01*
X2042312Y1751800D02*
G03X2041012Y1750500I0J-1300D01*
G01X2042312Y1751800D02*
X2053312D01*
X2054613Y1750500D02*
G03X2053312Y1751800I-1301J0D01*
G01X2054613Y1760500D02*
Y1757455D01*
X2053312Y1756155D02*
G03X2054613Y1757455I0J1300D01*
G01X2053312Y1756155D02*
X2042312D01*
X2041012Y1757455D02*
G03X2042312Y1756155I1300J-0D01*
G01X2041012Y1757455D02*
Y1760500D01*
X2042312Y1761800D02*
G03X2041012Y1760500I0J-1300D01*
G01X2042312Y1761800D02*
X2053312D01*
X2054613Y1760500D02*
G03X2053312Y1761800I-1301J0D01*
G01X2012864Y1683441D02*
G03X2017136I2136J-3441D01*
G01X2012864D02*
G03X2013100Y1683866I-264J425D01*
G01Y1711381*
G03X2012954Y1711734I-500J-0*
G01X2008656Y1716031*
X2008100Y1717375D02*
G03X2008656Y1716031I1900J0D01*
G01X2008100Y1717375D02*
Y1745843D01*
G03X2007850Y1746276I-500J0*
G01X2012150D02*
G03X2007850I-2150J3724D01*
G01X2012150D02*
G03X2011900Y1745843I250J-433D01*
G01Y1718369*
G03X2012046Y1718016I500J0*
G01X2016344Y1713719*
X2016900Y1712375D02*
G03X2016344Y1713719I-1900J0D01*
G01X2016900Y1712375D02*
Y1683866D01*
G03X2017136Y1683441I500J-0*
G01X2024300Y1750000D02*
G03X2024300I-4300J0D01*
G01Y1763000D02*
Y1757000D01*
X2023000Y1755700D02*
G03X2024300Y1757000I0J1300D01*
G01X2023000Y1755700D02*
X2017000D01*
X2015700Y1757000D02*
G03X2017000Y1755700I1300J0D01*
G01X2015700Y1757000D02*
Y1763000D01*
X2017000Y1764300D02*
G03X2015700Y1763000I0J-1300D01*
G01X2017000Y1764300D02*
X2023000D01*
X2024300Y1763000D02*
G03X2023000Y1764300I-1300J0D01*
G01X2014300Y1760000D02*
G03X2014300I-4300J0D01*
G01X2004300Y1750000D02*
G03X2004300I-4300J0D01*
G01Y1760000D02*
G03X2004300I-4300J0D01*
G01X1994300Y1750000D02*
G03X1994300I-4300J0D01*
G01Y1760000D02*
G03X1994300I-4300J0D01*
G01X1984300Y1750000D02*
G03X1984300I-4300J0D01*
G01Y1760000D02*
G03X1984300I-4300J0D01*
G01X1974300Y1750000D02*
G03X1974300I-4300J0D01*
G01Y1760000D02*
G03X1974300I-4300J0D01*
G01X1964300Y1750000D02*
G03X1964300I-4300J0D01*
G01Y1760000D02*
G03X1964300I-4300J0D01*
G01X1934300Y1620000D02*
G03X1934300I-4300J0D01*
G01Y1630000D02*
G03X1934300I-4300J0D01*
G01Y1660000D02*
G03X1934300I-4300J0D01*
G01Y1703000D02*
Y1697000D01*
X1933000Y1695700D02*
G03X1934300Y1697000I0J1300D01*
G01X1933000Y1695700D02*
X1927000D01*
X1925700Y1697000D02*
G03X1927000Y1695700I1300J0D01*
G01X1925700Y1697000D02*
Y1703000D01*
X1927000Y1704300D02*
G03X1925700Y1703000I0J-1300D01*
G01X1927000Y1704300D02*
X1933000D01*
X1934300Y1703000D02*
G03X1933000Y1704300I-1300J0D01*
G01X1939613Y1750500D02*
Y1742000D01*
X1938312Y1740700D02*
G03X1939613Y1742000I0J1300D01*
G01X1938312Y1740700D02*
X1927312D01*
X1926012Y1742000D02*
G03X1927312Y1740700I1300J0D01*
G01X1926012Y1742000D02*
Y1750500D01*
X1927312Y1751800D02*
G03X1926012Y1750500I0J-1300D01*
G01X1927312Y1751800D02*
X1938312D01*
X1939613Y1750500D02*
G03X1938312Y1751800I-1301J0D01*
G01X1939613Y1765500D02*
Y1757227D01*
X1938312Y1755927D02*
G03X1939613Y1757227I0J1300D01*
G01X1938312Y1755927D02*
X1927312D01*
X1926012Y1757227D02*
G03X1927312Y1755927I1300J0D01*
G01X1926012Y1757227D02*
Y1765500D01*
X1927312Y1766800D02*
G03X1926012Y1765500I0J-1300D01*
G01X1927312Y1766800D02*
X1938312D01*
X1939613Y1765500D02*
G03X1938312Y1766800I-1301J0D01*
G01X1894300Y1620000D02*
G03X1894300I-4300J0D01*
G01Y1630000D02*
G03X1894300I-4300J0D01*
G01X1871850Y1463724D02*
G03X1876150I2150J-3724D01*
G01X1871850D02*
G03X1872100Y1464157I-250J433D01*
G01Y1532131*
G03X1871954Y1532484I-500J-0*
G01X1868656Y1535781*
X1868100Y1537125D02*
G03X1868656Y1535781I1900J0D01*
G01X1868100Y1537125D02*
Y1606134D01*
G03X1867864Y1606559I-500J0*
G01X1872136D02*
G03X1867864I-2136J3441D01*
G01X1872136D02*
G03X1871900Y1606134I264J-425D01*
G01Y1538119*
G03X1872046Y1537766I500J0*
G01X1875344Y1534469*
X1875900Y1533125D02*
G03X1875344Y1534469I-1900J0D01*
G01X1875900Y1533125D02*
Y1464157D01*
G03X1876150Y1463724I500J-0*
G01X1879000Y1667600D02*
G03X1879000I-4300J0D01*
G01Y1697600D02*
G03X1879000I-4300J0D01*
G01X1854300Y1620000D02*
G03X1854300I-4300J0D01*
G01Y1630000D02*
G03X1854300I-4300J0D01*
G01X1951850Y1463724D02*
G03X1956150I2150J-3724D01*
G01X1951850D02*
G03X1952100Y1464157I-250J433D01*
G01Y1565006*
G03X1951954Y1565359I-500J-0*
G01X1911390Y1605923*
G03X1910922Y1606056I-354J-353*
G01X1913944Y1609078D02*
G03X1910922Y1606056I-3944J922D01*
G01X1913944Y1609078D02*
G03X1914077Y1608610I486J-114D01*
G01X1955344Y1567344*
X1955900Y1566000D02*
G03X1955344Y1567344I-1900J0D01*
G01X1955900Y1566000D02*
Y1464157D01*
G03X1956150Y1463724I500J-0*
G01X1974300Y1620000D02*
G03X1974300I-4300J0D01*
G01Y1630000D02*
G03X1974300I-4300J0D01*
G01X2004300Y1540000D02*
G03X2004300I-4300J0D01*
G01X2073668Y1682245D02*
X2188700Y1797277D01*
X2074300Y1680048D02*
X2188700Y1794448D01*
X2031133Y1634054D02*
X2188700Y1791620D01*
X2032548Y1632639D02*
X2188700Y1788792D01*
X2033962Y1631225D02*
X2188700Y1785963D01*
X2035376Y1629811D02*
X2188700Y1783135D01*
X2036790Y1628397D02*
X2188700Y1780306D01*
X2038205Y1626983D02*
X2188700Y1777478D01*
X2047654Y1633604D02*
X2188700Y1774650D01*
X2051049Y1634170D02*
X2188700Y1771821D01*
X2052891Y1633183D02*
X2188700Y1768993D01*
X2054031Y1631496D02*
X2188700Y1766164D01*
X2054114Y1628750D02*
X2188700Y1763336D01*
X2051999Y1623807D02*
X2188700Y1760507D01*
X2053508Y1622487D02*
X2188700Y1757679D01*
X2054279Y1620429D02*
X2188700Y1754851D01*
X2019682Y1583005D02*
X2188700Y1752022D01*
X2021097Y1581590D02*
X2188700Y1749194D01*
X2022511Y1580176D02*
X2188700Y1746365D01*
X2023925Y1578762D02*
X2188700Y1743537D01*
X2025339Y1577348D02*
X2188700Y1740708D01*
X2026754Y1575934D02*
X2188700Y1737880D01*
X2028168Y1574519D02*
X2188700Y1735052D01*
X2090717Y1634240D02*
X2188700Y1732223D01*
X2092673Y1633368D02*
X2188700Y1729395D01*
X2093914Y1631780D02*
X2188700Y1726566D01*
X2094239Y1629277D02*
X2188700Y1723738D01*
X2091728Y1623938D02*
X2188700Y1720909D01*
X2093334Y1622715D02*
X2188700Y1718081D01*
X2094228Y1620781D02*
X2188700Y1715253D01*
X2039481Y1563206D02*
X2188700Y1712424D01*
X2040896Y1561791D02*
X2188700Y1709596D01*
X2042310Y1560377D02*
X2188700Y1706767D01*
X2043724Y1558963D02*
X2188700Y1703939D01*
X2045138Y1557549D02*
X2188700Y1701110D01*
X2046552Y1556135D02*
X2188700Y1698282D01*
X2047967Y1554720D02*
X2188700Y1695454D01*
X2130360Y1634285D02*
X2188700Y1692625D01*
X2132442Y1633539D02*
X2188700Y1689797D01*
X2133781Y1632049D02*
X2188700Y1686968D01*
X2134292Y1629732D02*
X2188700Y1684140D01*
X2131440Y1624052D02*
X2188700Y1681311D01*
X2133147Y1622930D02*
X2188700Y1678483D01*
X2134155Y1621109D02*
X2188700Y1675655D01*
X2133724Y1617850D02*
X2188700Y1672826D01*
X2060695Y1541992D02*
X2188700Y1669998D01*
X2062109Y1540578D02*
X2188700Y1667169D01*
X2063523Y1539164D02*
X2188700Y1664341D01*
X2064937Y1537750D02*
X2188700Y1661513D01*
X2066351Y1536336D02*
X2188700Y1658684D01*
X2067766Y1534921D02*
X2188700Y1655856D01*
X2069180Y1533507D02*
X2188700Y1653027D01*
X2070594Y1532093D02*
X2188700Y1650199D01*
X2072008Y1530679D02*
X2188700Y1647370D01*
X2073423Y1529265D02*
X2188700Y1644542D01*
X2074837Y1527850D02*
X2188700Y1641714D01*
X2076251Y1526436D02*
X2188700Y1638885D01*
X2077665Y1525022D02*
X2188700Y1636057D01*
X2079079Y1523608D02*
X2188700Y1633228D01*
X2080494Y1522193D02*
X2188700Y1630400D01*
X2081908Y1520779D02*
X2188700Y1627571D01*
X2083322Y1519365D02*
X2188700Y1624743D01*
X2084736Y1517951D02*
X2188700Y1621915D01*
X2086150Y1516537D02*
X2188700Y1619086D01*
X2087565Y1515122D02*
X2188700Y1616258D01*
X2088979Y1513708D02*
X2188700Y1613429D01*
X2090393Y1512294D02*
X2188700Y1610601D01*
X2091807Y1510880D02*
X2188700Y1607772D01*
X2093222Y1509466D02*
X2188700Y1604944D01*
X2094636Y1508051D02*
X2188700Y1602116D01*
X2096050Y1506637D02*
X2188700Y1599287D01*
X2097464Y1505223D02*
X2188700Y1596459D01*
X2098878Y1503809D02*
X2188700Y1593630D01*
X2100293Y1502394D02*
X2188700Y1590802D01*
X2101707Y1500980D02*
X2188700Y1587973D01*
X2103121Y1499566D02*
X2188700Y1585145D01*
X2104535Y1498152D02*
X2188700Y1582317D01*
X2105949Y1496738D02*
X2188700Y1579488D01*
X2107364Y1495323D02*
X2188700Y1576660D01*
X2108778Y1493909D02*
X2188700Y1573831D01*
X2110192Y1492495D02*
X2188700Y1571003D01*
X2111606Y1491081D02*
X2188700Y1568174D01*
X2113020Y1489667D02*
X2188700Y1565346D01*
X2114435Y1488252D02*
X2188700Y1562518D01*
X2115750Y1486739D02*
X2188700Y1559689D01*
X2115900Y1484061D02*
X2188700Y1556861D01*
X2115900Y1481232D02*
X2188700Y1554032D01*
X2115900Y1478404D02*
X2188700Y1551204D01*
X2115900Y1475576D02*
X2188700Y1548375D01*
X2115900Y1472747D02*
X2188700Y1545547D01*
X2115900Y1469919D02*
X2188700Y1542719D01*
X2115900Y1467090D02*
X2188700Y1539890D01*
X2115900Y1464262D02*
X2188700Y1537062D01*
X2117265Y1462798D02*
X2188700Y1534233D01*
X2118203Y1460908D02*
X2188700Y1531405D01*
X2061423Y1401300D02*
X2188700Y1528577D01*
X2064252Y1401300D02*
X2188700Y1525748D01*
X2067080Y1401300D02*
X2188700Y1522920D01*
X2069909Y1401300D02*
X2188700Y1520091D01*
X2072737Y1401300D02*
X2188700Y1517263D01*
X2075566Y1401300D02*
X2188700Y1514434D01*
X2078394Y1401300D02*
X2188700Y1511606D01*
X2081222Y1401300D02*
X2188700Y1508778D01*
X2084051Y1401300D02*
X2188700Y1505949D01*
X2086879Y1401300D02*
X2188700Y1503121D01*
X2089708Y1401300D02*
X2188700Y1500292D01*
X2092536Y1401300D02*
X2188700Y1497464D01*
X2095365Y1401300D02*
X2188700Y1494635D01*
X2098193Y1401300D02*
X2188700Y1491807D01*
X2101021Y1401300D02*
X2188700Y1488979D01*
X2103850Y1401300D02*
X2188700Y1486150D01*
X2106678Y1401300D02*
X2188700Y1483322D01*
X2109507Y1401300D02*
X2188700Y1480493D01*
X2112335Y1401300D02*
X2188700Y1477665D01*
X2115164Y1401300D02*
X2188700Y1474836D01*
X2117992Y1401300D02*
X2188700Y1472008D01*
X2120820Y1401300D02*
X2188700Y1469180D01*
X2123649Y1401300D02*
X2188700Y1466351D01*
X2126477Y1401300D02*
X2188700Y1463523D01*
X2129306Y1401300D02*
X2188700Y1460694D01*
X2132134Y1401300D02*
X2188700Y1457866D01*
X2134963Y1401300D02*
X2188700Y1455037D01*
X2137791Y1401300D02*
X2188700Y1452209D01*
X2140619Y1401300D02*
X2188700Y1449381D01*
X2143448Y1401300D02*
X2188700Y1446552D01*
X2146276Y1401300D02*
X2188700Y1443724D01*
X2149105Y1401300D02*
X2188700Y1440895D01*
X2151933Y1401300D02*
X2188700Y1438067D01*
X2154762Y1401300D02*
X2188700Y1435238D01*
X2157590Y1401300D02*
X2188700Y1432410D01*
X2160418Y1401300D02*
X2188700Y1429582D01*
X2163247Y1401300D02*
X2188700Y1426753D01*
X2166075Y1401300D02*
X2188700Y1423925D01*
X2168904Y1401300D02*
X2188700Y1421096D01*
X2171732Y1401300D02*
X2188700Y1418268D01*
X2174560Y1401300D02*
X2188700Y1415440D01*
X2177389Y1401300D02*
X2188700Y1412611D01*
X2180217Y1401300D02*
X2188700Y1409783D01*
X2183046Y1401300D02*
X2188700Y1406954D01*
X2185874Y1401300D02*
X2188700Y1404126D01*
X2072256Y1683661D02*
X2187295Y1798700D01*
X2070066Y1684300D02*
X2184466Y1798700D01*
X2054838Y1671900D02*
X2181638Y1798700D01*
X2052009Y1671900D02*
X2178809Y1798700D01*
X2049181Y1671900D02*
X2175981Y1798700D01*
X2064297Y1689845D02*
X2173152Y1798700D01*
X2063742Y1692118D02*
X2170324Y1798700D01*
X2062378Y1693583D02*
X2167496Y1798700D01*
X2060259Y1694292D02*
X2164667Y1798700D01*
X2035039Y1671900D02*
X2161839Y1798700D01*
X2032210Y1671900D02*
X2159010Y1798700D01*
X2029382Y1671900D02*
X2156182Y1798700D01*
X2026554Y1671900D02*
X2153354Y1798700D01*
X2023725Y1671900D02*
X2150525Y1798700D01*
X2020897Y1671900D02*
X2147697Y1798700D01*
X2018068Y1671900D02*
X2144868Y1798700D01*
X2015240Y1671900D02*
X2142040Y1798700D01*
X2018535Y1678024D02*
X2139211Y1798700D01*
X2018872Y1681189D02*
X2136383Y1798700D01*
X2017790Y1682936D02*
X2133555Y1798700D01*
X2059280Y1543407D02*
X2132150Y1616276D01*
X2016900Y1684874D02*
X2130726Y1798700D01*
X2128639Y1624079D02*
X2130268Y1625708D01*
X2057866Y1544821D02*
X2128891Y1615845D01*
X2052209Y1550478D02*
X2127951Y1626219D01*
X2016900Y1687702D02*
X2127898Y1798700D01*
X2056452Y1546235D02*
X2127070Y1616853D01*
X2050795Y1551892D02*
X2126461Y1627558D01*
X2055038Y1547649D02*
X2125948Y1618560D01*
X2053624Y1549063D02*
X2125921Y1621361D01*
X2049381Y1553306D02*
X2125715Y1629640D01*
X2016900Y1690531D02*
X2125069Y1798700D01*
X2016900Y1693359D02*
X2122241Y1798700D01*
X2016900Y1696188D02*
X2119412Y1798700D01*
X2016900Y1699016D02*
X2116584Y1798700D01*
X2016900Y1701844D02*
X2113756Y1798700D01*
X2058595Y1401300D02*
X2113092Y1455797D01*
X2030311Y1401300D02*
X2112100Y1483089D01*
X2033139Y1401300D02*
X2112100Y1480261D01*
X2035968Y1401300D02*
X2112100Y1477432D01*
X2038796Y1401300D02*
X2112100Y1474604D01*
X2041624Y1401300D02*
X2112100Y1471775D01*
X2044453Y1401300D02*
X2112100Y1468947D01*
X2047281Y1401300D02*
X2112100Y1466119D01*
X2027482Y1401300D02*
X2111748Y1485565D01*
X2055767Y1401300D02*
X2111202Y1456735D01*
X2016900Y1704673D02*
X2110927Y1798700D01*
X2024654Y1401300D02*
X2110333Y1486980D01*
X2052938Y1401300D02*
X2110017Y1458379D01*
X2050110Y1401300D02*
X2109820Y1461011D01*
X2021826Y1401300D02*
X2108919Y1488394D01*
X2054595Y1745196D02*
X2108099Y1798700D01*
X2018997Y1401300D02*
X2107505Y1489808D01*
X2016169Y1401300D02*
X2106091Y1491222D01*
X2054613Y1748042D02*
X2105270Y1798700D01*
X2013340Y1401300D02*
X2104677Y1492636D01*
X2010512Y1401300D02*
X2103262Y1494051D01*
X2054570Y1750828D02*
X2102442Y1798700D01*
X2007683Y1401300D02*
X2101848Y1495465D01*
X2004855Y1401300D02*
X2100434Y1496879D01*
X2052713Y1751800D02*
X2099613Y1798700D01*
X2002027Y1401300D02*
X2099020Y1498293D01*
X1999198Y1401300D02*
X2097606Y1499707D01*
X2049885Y1751800D02*
X2096785Y1798700D01*
X1996370Y1401300D02*
X2096191Y1501122D01*
X1993541Y1401300D02*
X2094777Y1502536D01*
X2054613Y1759356D02*
X2093957Y1798700D01*
X1990713Y1401300D02*
X2093363Y1503950D01*
X1987884Y1401300D02*
X2091949Y1505364D01*
X2054019Y1761591D02*
X2091128Y1798700D01*
X2089184Y1624222D02*
X2090723Y1625761D01*
X1985056Y1401300D02*
X2090534Y1506778D01*
X2038067Y1564620D02*
X2089219Y1615772D01*
X1982228Y1401300D02*
X2089120Y1508193D01*
X2051400Y1761800D02*
X2088300Y1798700D01*
X2032410Y1570277D02*
X2088220Y1626086D01*
X2038296Y1460196D02*
X2087706Y1509607D01*
X2036653Y1566034D02*
X2087285Y1616666D01*
X2030996Y1571691D02*
X2086632Y1627327D01*
X2037609Y1462338D02*
X2086292Y1511021D01*
X2035239Y1567448D02*
X2086062Y1618272D01*
X2033825Y1568862D02*
X2085778Y1620816D01*
X2029582Y1573105D02*
X2085760Y1629283D01*
X2048571Y1761800D02*
X2085471Y1798700D01*
X2036160Y1463718D02*
X2084878Y1512435D01*
X2035900Y1466286D02*
X2083463Y1513850D01*
X2045743Y1761800D02*
X2082643Y1798700D01*
X2035900Y1469115D02*
X2082049Y1515264D01*
X2035900Y1471943D02*
X2080635Y1516678D01*
X2042914Y1761800D02*
X2079814Y1798700D01*
X2035900Y1474771D02*
X2079221Y1518092D01*
X2035900Y1477600D02*
X2077807Y1519506D01*
X2011900Y1733614D02*
X2076986Y1798700D01*
X2035900Y1480428D02*
X2076392Y1520921D01*
X2035900Y1483257D02*
X2074978Y1522335D01*
X2024070Y1748612D02*
X2074158Y1798700D01*
X2035900Y1486085D02*
X2073564Y1523749D01*
X2035900Y1488914D02*
X2072150Y1525163D01*
X2024056Y1751427D02*
X2071329Y1798700D01*
X2035900Y1491742D02*
X2070735Y1526577D01*
X2064300Y1670048D02*
X2069952Y1675700D01*
X2034934Y1493604D02*
X2069321Y1527992D01*
X2022939Y1753139D02*
X2068501Y1798700D01*
X2033520Y1495019D02*
X2067907Y1529406D01*
X2063668Y1672245D02*
X2067755Y1676332D01*
X2032106Y1496433D02*
X2066493Y1530820D01*
X2062256Y1673661D02*
X2066339Y1677744D01*
X2060066Y1674300D02*
X2065700Y1679934D01*
X2024300Y1757328D02*
X2065672Y1798700D01*
X2030691Y1497847D02*
X2065079Y1532234D01*
X2029277Y1499261D02*
X2063664Y1533649D01*
X2024300Y1760156D02*
X2062844Y1798700D01*
X2027863Y1500675D02*
X2062250Y1535063D01*
X2026449Y1502090D02*
X2060836Y1536477D01*
X2046353Y1671900D02*
X2060155Y1685703D01*
X2024300Y1762985D02*
X2060015Y1798700D01*
X2029719Y1635468D02*
X2059952Y1665700D01*
X2025034Y1503504D02*
X2059422Y1537891D01*
X2023620Y1504918D02*
X2058008Y1539305D01*
X2043524Y1671900D02*
X2057882Y1686258D01*
X2028305Y1636882D02*
X2057755Y1666332D01*
X2022787Y1764300D02*
X2057187Y1798700D01*
X2022206Y1506332D02*
X2056593Y1540720D01*
X2040696Y1671900D02*
X2056417Y1687622D01*
X2026891Y1638296D02*
X2056339Y1667744D01*
X2037867Y1671900D02*
X2055708Y1689741D01*
X2020792Y1507746D02*
X2055179Y1542134D01*
X2019959Y1764300D02*
X2054359Y1798700D01*
X2025477Y1639710D02*
X2053866Y1668100D01*
X2019378Y1509161D02*
X2053765Y1543548D01*
X2016900Y1707501D02*
X2053525Y1744127D01*
X2017963Y1510575D02*
X2052351Y1544962D01*
X2017130Y1764300D02*
X2051530Y1798700D01*
X2047057Y1751800D02*
X2051411Y1756155D01*
X2049650Y1624286D02*
X2051250Y1625886D01*
X2024062Y1641125D02*
X2051038Y1668100D01*
X2016549Y1511989D02*
X2050937Y1546376D01*
X2016900Y1710330D02*
X2050679Y1744109D01*
X2018268Y1584419D02*
X2049571Y1615721D01*
X2015135Y1513403D02*
X2049522Y1547791D01*
X2013041Y1763040D02*
X2048702Y1798700D01*
X2044228Y1751800D02*
X2048583Y1756155D01*
X2043882Y1621347D02*
X2048504Y1625969D01*
X2022648Y1642539D02*
X2048209Y1668100D01*
X2013721Y1514818D02*
X2048108Y1549205D01*
X2016780Y1713039D02*
X2047851Y1744109D01*
X2016854Y1585833D02*
X2047513Y1616492D01*
X2043746Y1624039D02*
X2046817Y1627109D01*
X2012307Y1516232D02*
X2046694Y1550619D01*
X2040561Y1626511D02*
X2046396Y1632346D01*
X2015440Y1587247D02*
X2046193Y1618001D01*
X2011279Y1764105D02*
X2045873Y1798700D01*
X2042536Y1625657D02*
X2045830Y1628951D01*
X2011900Y1722300D02*
X2045754Y1756155D01*
X2014026Y1588661D02*
X2045714Y1620350D01*
X2021234Y1643953D02*
X2045381Y1668100D01*
X2010892Y1517646D02*
X2045280Y1552033D01*
X2015488Y1714574D02*
X2045023Y1744109D01*
X2009478Y1519060D02*
X2043865Y1553448D01*
X2008291Y1763946D02*
X2043045Y1798700D01*
X2011900Y1725129D02*
X2042926Y1756155D01*
X2019820Y1645367D02*
X2042552Y1668100D01*
X2008064Y1520474D02*
X2042451Y1554862D01*
X2014074Y1715989D02*
X2042199Y1744114D01*
X2012611Y1590076D02*
X2041153Y1618618D01*
X2011900Y1727957D02*
X2041058Y1757115D01*
X2006650Y1521889D02*
X2041037Y1556276D01*
X2011900Y1730786D02*
X2041012Y1759898D01*
X2011900Y1719472D02*
X2041012Y1748584D01*
X2012659Y1717403D02*
X2041012Y1745756D01*
X2003703Y1762186D02*
X2040217Y1798700D01*
X2018406Y1646781D02*
X2039724Y1668100D01*
X2005235Y1523303D02*
X2039623Y1557690D01*
X2011197Y1591490D02*
X2038461Y1618754D01*
X2003821Y1524717D02*
X2038209Y1559104D01*
X2002313Y1763625D02*
X2037388Y1798700D01*
X2016991Y1648196D02*
X2036896Y1668100D01*
X2009783Y1592904D02*
X2036843Y1619964D01*
X2002407Y1526131D02*
X2036794Y1560519D01*
X2008369Y1594318D02*
X2035989Y1621939D01*
X2006955Y1595733D02*
X2035517Y1624295D01*
X2000993Y1527545D02*
X2035380Y1561933D01*
X2000157Y1764297D02*
X2034560Y1798700D01*
X2005540Y1597147D02*
X2034103Y1625710D01*
X2015577Y1649610D02*
X2034067Y1668100D01*
X1999579Y1528960D02*
X2033966Y1563347D01*
X1979399Y1401300D02*
X2033804Y1455704D01*
X2004126Y1598561D02*
X2032689Y1627124D01*
X1998164Y1530374D02*
X2032552Y1564761D01*
X1942630Y1401300D02*
X2032100Y1490770D01*
X1945458Y1401300D02*
X2032100Y1487942D01*
X1948286Y1401300D02*
X2032100Y1485114D01*
X1951115Y1401300D02*
X2032100Y1482285D01*
X1953943Y1401300D02*
X2032100Y1479457D01*
X1956772Y1401300D02*
X2032100Y1476628D01*
X1959600Y1401300D02*
X2032100Y1473800D01*
X1962429Y1401300D02*
X2032100Y1470971D01*
X1965257Y1401300D02*
X2032100Y1468143D01*
X1968085Y1401300D02*
X2032100Y1465315D01*
X1994152Y1761120D02*
X2031731Y1798700D01*
X1976571Y1401300D02*
X2031662Y1456391D01*
X2002712Y1599975D02*
X2031275Y1628538D01*
X2014163Y1651024D02*
X2031239Y1668100D01*
X2004239Y1539277D02*
X2031138Y1566175D01*
X1939801Y1401300D02*
X2030833Y1492332D01*
X1973742Y1401300D02*
X2030282Y1457840D01*
X2001298Y1601389D02*
X2029861Y1629952D01*
X2003914Y1541780D02*
X2029723Y1567590D01*
X1970914Y1401300D02*
X2029701Y1460087D01*
X1936973Y1401300D02*
X2029418Y1493746D01*
X1993140Y1762937D02*
X2028903Y1798700D01*
X2016300Y1619220D02*
X2028446Y1631367D01*
X2012749Y1652438D02*
X2028410Y1668100D01*
X2002673Y1543368D02*
X2028309Y1569004D01*
X1934144Y1401300D02*
X2028004Y1495160D01*
X2016300Y1622049D02*
X2027032Y1632781D01*
X2000717Y1544240D02*
X2026895Y1570418D01*
X1931316Y1401300D02*
X2026590Y1496574D01*
X1991430Y1764055D02*
X2026074Y1798700D01*
X2016300Y1624877D02*
X2025618Y1634195D01*
X2011334Y1653853D02*
X2025582Y1668100D01*
X1991093Y1537445D02*
X2025481Y1571832D01*
X1928487Y1401300D02*
X2025176Y1497988D01*
X2016300Y1627705D02*
X2024204Y1635609D01*
X1989679Y1538859D02*
X2024066Y1573246D01*
X1925659Y1401300D02*
X2023762Y1499403D01*
X1988618Y1764072D02*
X2023246Y1798700D01*
X2016300Y1630534D02*
X2022790Y1637023D01*
X2009920Y1655267D02*
X2022754Y1668100D01*
X2021123Y1754151D02*
X2022672Y1755700D01*
X1988265Y1540273D02*
X2022652Y1574661D01*
X1922831Y1401300D02*
X2022347Y1500817D01*
X2011900Y1736442D02*
X2021388Y1745930D01*
X2016300Y1633362D02*
X2021375Y1638438D01*
X1986851Y1541688D02*
X2021238Y1576075D01*
X1920002Y1401300D02*
X2020933Y1502231D01*
X1983776Y1762058D02*
X2020418Y1798700D01*
X2016300Y1636191D02*
X2019961Y1639852D01*
X2008506Y1656681D02*
X2019925Y1668100D01*
X2017892Y1753748D02*
X2019844Y1755700D01*
X1985437Y1543102D02*
X2019824Y1577489D01*
X1917174Y1401300D02*
X2019519Y1503645D01*
X2011900Y1739271D02*
X2018573Y1745944D01*
X2016188Y1638907D02*
X2018547Y1641266D01*
X1984022Y1544516D02*
X2018410Y1578903D01*
X1914345Y1401300D02*
X2018105Y1505059D01*
X1982434Y1763545D02*
X2017589Y1798700D01*
X2014902Y1640449D02*
X2017133Y1642680D01*
X2007092Y1658095D02*
X2017097Y1668100D01*
X2013626Y1752311D02*
X2017015Y1755700D01*
X1982608Y1545930D02*
X2016995Y1580318D01*
X2013474Y1672963D02*
X2016976Y1676465D01*
X2011900Y1742099D02*
X2016861Y1747061D01*
X1911517Y1401300D02*
X2016691Y1506474D01*
X2014297Y1750153D02*
X2016252Y1752108D01*
X2011900Y1744928D02*
X2015849Y1748877D01*
X2013488Y1641864D02*
X2015719Y1644094D01*
X2014106Y1761276D02*
X2015700Y1762870D01*
X2013943Y1758284D02*
X2015700Y1760041D01*
X2012189Y1753701D02*
X2015700Y1757213D01*
X1981194Y1547344D02*
X2015581Y1581732D01*
X1908689Y1401300D02*
X2015276Y1507888D01*
X1980347Y1764286D02*
X2014761Y1798700D01*
X2012073Y1643278D02*
X2014304Y1645509D01*
X2005678Y1659509D02*
X2014268Y1668100D01*
X1979780Y1548759D02*
X2014167Y1583146D01*
X1905860Y1401300D02*
X2013862Y1509302D01*
X2012060Y1674377D02*
X2013811Y1676128D01*
X1990642Y1686900D02*
X2013100Y1709358D01*
X1993470Y1686900D02*
X2013100Y1706530D01*
X1996299Y1686900D02*
X2013100Y1703701D01*
X1999095Y1686868D02*
X2013100Y1700873D01*
X2000746Y1685691D02*
X2013100Y1698044D01*
X2002161Y1684277D02*
X2013100Y1695216D01*
X2003575Y1682862D02*
X2013100Y1692388D01*
X2004989Y1681448D02*
X2013100Y1689559D01*
X2006403Y1680034D02*
X2013100Y1686731D01*
X2007817Y1678620D02*
X2013100Y1683902D01*
X2010659Y1644692D02*
X2012890Y1646923D01*
X1987813Y1686900D02*
X2012801Y1711887D01*
X1978365Y1550173D02*
X2012753Y1584560D01*
X2011360Y1634079D02*
X2012500Y1635219D01*
X1903032Y1401300D02*
X2012448Y1510716D01*
X2008472Y1634019D02*
X2012215Y1637762D01*
X2004263Y1660924D02*
X2012201Y1668862D01*
X2010646Y1675791D02*
X2012064Y1677210D01*
X1974192Y1760959D02*
X2011932Y1798700D01*
X2010066Y1624300D02*
X2011891Y1626124D01*
X2009958Y1754300D02*
X2011716Y1756057D01*
X2009245Y1646106D02*
X2011476Y1648337D01*
X1984985Y1686900D02*
X2011386Y1713301D01*
X1976951Y1551587D02*
X2011339Y1585974D01*
X2009232Y1677205D02*
X2011066Y1679039D01*
X1958250Y1459347D02*
X2011034Y1512131D01*
X1998126Y1626501D02*
X2010801Y1639177D01*
X2002849Y1662338D02*
X2010787Y1670276D01*
X2007831Y1647520D02*
X2010062Y1649751D01*
X1999883Y1602804D02*
X2010055Y1612975D01*
X1982157Y1686900D02*
X2009972Y1714716D01*
X1975769Y1553233D02*
X2009924Y1587389D01*
X1957896Y1461821D02*
X2009620Y1513545D01*
X1995741Y1626946D02*
X2009386Y1640591D01*
X2006310Y1668627D02*
X2009373Y1671690D01*
X1973236Y1762832D02*
X2009104Y1798700D01*
X1999713Y1616775D02*
X2008807Y1625869D01*
X2004106Y1751276D02*
X2008724Y1755894D01*
X2006417Y1648935D02*
X2008647Y1651166D01*
X1979328Y1686900D02*
X2008562Y1716134D01*
X1981946Y1562239D02*
X2008510Y1588803D01*
X1956640Y1463394D02*
X2008205Y1514959D01*
X1927892Y1663748D02*
X2008100Y1743956D01*
X1931123Y1664151D02*
X2008100Y1741128D01*
X1932939Y1663139D02*
X2008100Y1738299D01*
X1934056Y1661427D02*
X2008100Y1735471D01*
X1934070Y1658612D02*
X2008100Y1732642D01*
X1871900Y1593614D02*
X2008100Y1729814D01*
X1970161Y1689047D02*
X2008100Y1726986D01*
X1972286Y1688343D02*
X2008100Y1724157D01*
X1973700Y1686928D02*
X2008100Y1721329D01*
X1976500Y1686900D02*
X2008100Y1718500D01*
X1994327Y1628360D02*
X2007972Y1642005D01*
X2006288Y1671433D02*
X2007959Y1673104D01*
X1893626Y1632311D02*
X2007689Y1746374D01*
X2005002Y1650349D02*
X2007233Y1652580D01*
X1998469Y1604218D02*
X2007226Y1612975D01*
X1981946Y1565067D02*
X2007096Y1590217D01*
X2001349Y1621240D02*
X2007015Y1626905D01*
X2003041Y1753040D02*
X2006960Y1756959D01*
X1955900Y1465482D02*
X2006791Y1516373D01*
X1992913Y1629774D02*
X2006558Y1643419D01*
X2005117Y1673091D02*
X2006545Y1674518D01*
X2005370Y1616775D02*
X2006339Y1617744D01*
X1892188Y1633701D02*
X2006299Y1747811D01*
X1971576Y1764001D02*
X2006275Y1798700D01*
X2004300Y1759955D02*
X2006054Y1761709D01*
X2000077Y1625624D02*
X2005981Y1631528D01*
X2001267Y1623986D02*
X2005921Y1628640D01*
X2001279Y1754105D02*
X2005895Y1758721D01*
X2003588Y1651763D02*
X2005819Y1653994D01*
X2002541Y1616775D02*
X2005700Y1619934D01*
X2003943Y1748284D02*
X2005700Y1750042D01*
X1981946Y1567896D02*
X2005682Y1591631D01*
X1955900Y1468311D02*
X2005377Y1517787D01*
X1991900Y1631590D02*
X2005144Y1644833D01*
X2003189Y1673991D02*
X2005130Y1675933D01*
X2002174Y1653177D02*
X2004405Y1655408D01*
X1997055Y1605632D02*
X2004398Y1612975D01*
X1981946Y1570724D02*
X2004267Y1593045D01*
X1955900Y1471139D02*
X2003963Y1519202D01*
X2001435Y1663752D02*
X2003873Y1666190D01*
X1991900Y1634418D02*
X2003730Y1646248D01*
X2000778Y1674409D02*
X2003716Y1677347D01*
X1968905Y1764158D02*
X2003447Y1798700D01*
X2000760Y1654591D02*
X2002991Y1656822D01*
X1981946Y1573553D02*
X2002853Y1594460D01*
X1955900Y1473967D02*
X2002548Y1520616D01*
X1991900Y1637246D02*
X2002315Y1647662D01*
X1999364Y1675823D02*
X2002302Y1678761D01*
X1889958Y1634300D02*
X2001716Y1746057D01*
X1999346Y1656006D02*
X2001576Y1658237D01*
X1995641Y1607046D02*
X2001570Y1612975D01*
X1981946Y1576381D02*
X2001439Y1595874D01*
X1955900Y1476796D02*
X2001134Y1522030D01*
X2000021Y1665166D02*
X2001067Y1666212D01*
X1991900Y1640075D02*
X2000901Y1649076D01*
X1997950Y1677237D02*
X2000888Y1680175D01*
X1996750Y1531788D02*
X2000723Y1535761D01*
X1963845Y1761926D02*
X2000619Y1798700D01*
X1997931Y1657420D02*
X2000162Y1659651D01*
X1998291Y1753946D02*
X2000045Y1755700D01*
X1981946Y1579210D02*
X2000025Y1597288D01*
X1955900Y1479624D02*
X1999720Y1523444D01*
X1991900Y1642903D02*
X1999487Y1650490D01*
X1996536Y1678652D02*
X1999473Y1681589D01*
X1998607Y1666580D02*
X1999409Y1667383D01*
X1996884Y1616775D02*
X1998760Y1618651D01*
X1996517Y1658834D02*
X1998748Y1661065D01*
X1994227Y1608460D02*
X1998741Y1612975D01*
X1811300Y1558470D02*
X1998724Y1745894D01*
X1981946Y1582038D02*
X1998611Y1598702D01*
X1955900Y1482453D02*
X1998306Y1524858D01*
X1995336Y1533202D02*
X1998220Y1536086D01*
X1991900Y1645732D02*
X1998073Y1651904D01*
X1995121Y1680066D02*
X1998056Y1683000D01*
X1993703Y1752186D02*
X1997814Y1756297D01*
X1962551Y1763461D02*
X1997790Y1798700D01*
X1996050Y1661195D02*
X1997334Y1662479D01*
X1981946Y1584866D02*
X1997196Y1600117D01*
X1811300Y1561298D02*
X1996960Y1746959D01*
X1955900Y1485281D02*
X1996892Y1526273D01*
X1991900Y1648560D02*
X1996659Y1653319D01*
X1993922Y1534617D02*
X1996632Y1537327D01*
X1992313Y1753625D02*
X1996375Y1757687D01*
X1994300Y1749955D02*
X1996054Y1751709D01*
X1994056Y1616775D02*
X1996014Y1618733D01*
X1993927Y1610990D02*
X1995913Y1612975D01*
X1811300Y1564127D02*
X1995895Y1748721D01*
X1981946Y1587695D02*
X1995782Y1601531D01*
X1992508Y1536031D02*
X1995760Y1539283D01*
X1993743Y1757883D02*
X1995703Y1759843D01*
X1955900Y1488109D02*
X1995477Y1527687D01*
X1993700Y1681473D02*
X1995327Y1683100D01*
X1991900Y1651389D02*
X1995244Y1654733D01*
X1960529Y1764267D02*
X1994962Y1798700D01*
X1991228Y1616775D02*
X1994376Y1619923D01*
X1981946Y1590523D02*
X1994368Y1602945D01*
X1955900Y1490938D02*
X1994063Y1529101D01*
X1991900Y1654217D02*
X1993830Y1656147D01*
X1988236Y1616612D02*
X1993499Y1621874D01*
X1964074Y1595279D02*
X1993054Y1624259D01*
X1981946Y1593352D02*
X1992954Y1604359D01*
X1955900Y1493766D02*
X1992649Y1530515D01*
X1991299Y1681900D02*
X1992499Y1683100D01*
X1991956Y1657101D02*
X1992171Y1657316D01*
X1939613Y1746179D02*
X1992133Y1798700D01*
X1990157Y1754297D02*
X1992117Y1756257D01*
X1964056Y1598089D02*
X1991640Y1625673D01*
X1981946Y1596180D02*
X1991540Y1605773D01*
X1955900Y1496595D02*
X1991235Y1531929D01*
X1986465Y1623326D02*
X1990226Y1627087D01*
X1811300Y1566955D02*
X1990045Y1745700D01*
X1955900Y1499423D02*
X1989821Y1533344D01*
X1988470Y1681900D02*
X1989670Y1683100D01*
X1939613Y1749008D02*
X1989305Y1798700D01*
X1981946Y1599009D02*
X1989010Y1606073D01*
X1984152Y1751120D02*
X1988880Y1755848D01*
X1985515Y1625204D02*
X1988812Y1628501D01*
X1955900Y1502252D02*
X1988406Y1534758D01*
X1984400Y1658031D02*
X1988100Y1661731D01*
X1984400Y1655202D02*
X1988100Y1658902D01*
X1984400Y1652374D02*
X1988100Y1656074D01*
X1984400Y1649545D02*
X1988100Y1653245D01*
X1984400Y1646717D02*
X1988100Y1650417D01*
X1984400Y1643889D02*
X1988100Y1647589D01*
X1984400Y1641060D02*
X1988100Y1644760D01*
X1984400Y1638232D02*
X1988100Y1641932D01*
X1984400Y1635403D02*
X1988100Y1639103D01*
X1984400Y1632575D02*
X1988100Y1636275D01*
X1984400Y1629746D02*
X1988100Y1633446D01*
X1984400Y1626918D02*
X1988100Y1630618D01*
X1811300Y1569784D02*
X1987814Y1746297D01*
X1986521Y1662981D02*
X1987704Y1664163D01*
X1981946Y1601837D02*
X1987191Y1607082D01*
X1983140Y1752937D02*
X1987063Y1756860D01*
X1955900Y1505080D02*
X1986992Y1536172D01*
X1985642Y1681900D02*
X1986842Y1683100D01*
X1939214Y1751437D02*
X1986476Y1798700D01*
X1811300Y1572612D02*
X1986375Y1747687D01*
X1981946Y1604665D02*
X1986002Y1608721D01*
X1981430Y1754055D02*
X1985945Y1758570D01*
X1984293Y1759747D02*
X1985928Y1761382D01*
X1983743Y1747883D02*
X1985703Y1749843D01*
X1955900Y1507908D02*
X1985578Y1537586D01*
X1955900Y1510737D02*
X1984164Y1539001D01*
X1982813Y1681900D02*
X1984013Y1683100D01*
X1936748Y1751800D02*
X1983648Y1798700D01*
X1955900Y1513565D02*
X1982749Y1540415D01*
X1934300Y1698440D02*
X1982117Y1746257D01*
X1962913Y1599774D02*
X1981674Y1618535D01*
X1955900Y1516394D02*
X1981335Y1541829D01*
X1974985Y1676900D02*
X1981185Y1683100D01*
X1939613Y1757493D02*
X1980820Y1798700D01*
X1971653Y1633970D02*
X1980600Y1642917D01*
X1973286Y1632774D02*
X1980600Y1640089D01*
X1974211Y1630871D02*
X1980600Y1637260D01*
X1970445Y1624277D02*
X1980600Y1634432D01*
X1972497Y1623501D02*
X1980600Y1631603D01*
X1973813Y1621988D02*
X1980600Y1628775D01*
X1978618Y1754072D02*
X1980253Y1755707D01*
X1955900Y1519222D02*
X1979921Y1543243D01*
X1961499Y1601188D02*
X1979796Y1619485D01*
X1934300Y1701269D02*
X1978880Y1745848D01*
X1974284Y1619631D02*
X1978800Y1624146D01*
X1960084Y1602603D02*
X1978669Y1621187D01*
X1955900Y1522051D02*
X1978507Y1544657D01*
X1969048Y1634193D02*
X1978408Y1643553D01*
X1972989Y1677733D02*
X1978357Y1683100D01*
X1964074Y1592450D02*
X1978309Y1606685D01*
X1964074Y1589622D02*
X1978146Y1603694D01*
X1964074Y1586793D02*
X1978146Y1600865D01*
X1964074Y1583965D02*
X1978146Y1598037D01*
X1964074Y1581137D02*
X1978146Y1595209D01*
X1964074Y1578308D02*
X1978146Y1592380D01*
X1964074Y1575480D02*
X1978146Y1589552D01*
X1964074Y1572651D02*
X1978146Y1586723D01*
X1964074Y1569823D02*
X1978146Y1583895D01*
X1964074Y1566994D02*
X1978146Y1581066D01*
X1964223Y1564315D02*
X1978146Y1578238D01*
X1965638Y1562901D02*
X1978146Y1575410D01*
X1967052Y1561487D02*
X1978146Y1572581D01*
X1968466Y1560072D02*
X1978146Y1569753D01*
X1969880Y1558658D02*
X1978146Y1566924D01*
X1971294Y1557244D02*
X1978146Y1564096D01*
X1972797Y1555918D02*
X1978146Y1561267D01*
X1939613Y1760321D02*
X1977991Y1798700D01*
X1973776Y1752058D02*
X1977942Y1756224D01*
X1955900Y1524879D02*
X1977093Y1546072D01*
X1934015Y1703812D02*
X1977063Y1746860D01*
X1972434Y1753545D02*
X1976455Y1757566D01*
X1931674Y1704300D02*
X1975945Y1748570D01*
X1974293Y1749747D02*
X1975928Y1751382D01*
X1927357Y1595330D02*
X1975834Y1643808D01*
X1932725Y1623326D02*
X1975748Y1666349D01*
X1973280Y1757219D02*
X1975714Y1759653D01*
X1955900Y1527707D02*
X1975678Y1547486D01*
X1933943Y1621716D02*
X1975600Y1663373D01*
X1934218Y1619162D02*
X1975600Y1660544D01*
X1920286Y1602402D02*
X1975600Y1657716D01*
X1921700Y1600987D02*
X1975600Y1654888D01*
X1923114Y1599573D02*
X1975600Y1652059D01*
X1971273Y1678845D02*
X1975528Y1683100D01*
X1939613Y1763150D02*
X1975163Y1798700D01*
X1955900Y1530536D02*
X1974264Y1548900D01*
X1925942Y1596745D02*
X1974263Y1645066D01*
X1930796Y1624226D02*
X1974209Y1667639D01*
X1924528Y1598159D02*
X1973470Y1647100D01*
X1934268Y1630526D02*
X1973460Y1669718D01*
X1933463Y1632549D02*
X1973394Y1672480D01*
X1955900Y1533364D02*
X1972850Y1550314D01*
X1970347Y1754286D02*
X1972781Y1756720D01*
X1939546Y1765911D02*
X1972334Y1798700D01*
X1955900Y1536193D02*
X1971436Y1551728D01*
X1968254Y1678654D02*
X1970593Y1680994D01*
X1958670Y1604017D02*
X1970369Y1615716D01*
X1928846Y1704300D02*
X1970253Y1745707D01*
X1955900Y1539021D02*
X1970022Y1553143D01*
X1937606Y1766800D02*
X1969506Y1798700D01*
X1931928Y1633843D02*
X1969130Y1671045D01*
X1953996Y1610657D02*
X1969129Y1625789D01*
X1964192Y1750959D02*
X1969041Y1755808D01*
X1955900Y1541850D02*
X1968607Y1554557D01*
X1871900Y1585129D02*
X1968162Y1681391D01*
X1957256Y1605431D02*
X1968012Y1616187D01*
X1853776Y1632058D02*
X1967942Y1746224D01*
X1929531Y1634274D02*
X1967267Y1672011D01*
X1953108Y1612597D02*
X1967226Y1626714D01*
X1955900Y1544678D02*
X1967193Y1555971D01*
X1963236Y1752832D02*
X1967168Y1756764D01*
X1934777Y1766800D02*
X1966677Y1798700D01*
X1871900Y1587957D02*
X1966657Y1682714D01*
X1955842Y1606845D02*
X1966499Y1617503D01*
X1852434Y1633545D02*
X1966455Y1747566D01*
X1871900Y1582300D02*
X1966346Y1676746D01*
X1871900Y1579472D02*
X1966155Y1673727D01*
X1951460Y1613778D02*
X1966030Y1628347D01*
X1961576Y1754001D02*
X1965999Y1758424D01*
X1871900Y1590786D02*
X1965953Y1684839D01*
X1964274Y1759527D02*
X1965842Y1761095D01*
X1948685Y1613831D02*
X1965807Y1630952D01*
X1955900Y1547506D02*
X1965779Y1557385D01*
X1954428Y1608259D02*
X1965723Y1619555D01*
X1963280Y1747219D02*
X1965714Y1749653D01*
X1955900Y1550335D02*
X1964365Y1558800D01*
X1931949Y1766800D02*
X1963849Y1798700D01*
X1955900Y1553163D02*
X1962950Y1560214D01*
X1850347Y1634286D02*
X1962781Y1746720D01*
X1955900Y1555992D02*
X1961536Y1561628D01*
X1929121Y1766800D02*
X1961021Y1798700D01*
X1958905Y1754158D02*
X1960473Y1755726D01*
X1955900Y1558820D02*
X1960324Y1563244D01*
X1944327Y1578360D02*
X1960274Y1594307D01*
X1945741Y1576946D02*
X1960274Y1591479D01*
X1947156Y1575531D02*
X1960274Y1588650D01*
X1948570Y1574117D02*
X1960274Y1585822D01*
X1949984Y1572703D02*
X1960274Y1582993D01*
X1951398Y1571289D02*
X1960274Y1580165D01*
X1952812Y1569875D02*
X1960274Y1577337D01*
X1954227Y1568460D02*
X1960274Y1574508D01*
X1955608Y1567013D02*
X1960274Y1571680D01*
X1955900Y1564477D02*
X1960274Y1568851D01*
X1955900Y1561649D02*
X1960274Y1566023D01*
X1942913Y1579774D02*
X1960212Y1597073D01*
X1811300Y1598068D02*
X1959041Y1745808D01*
X1941499Y1581188D02*
X1958812Y1598501D01*
X1811300Y1651808D02*
X1958192Y1798700D01*
X1873701Y1671782D02*
X1958074Y1756155D01*
X1940084Y1582603D02*
X1957397Y1599916D01*
X1878905Y1668501D02*
X1957168Y1746764D01*
X1811300Y1612210D02*
X1956539Y1757449D01*
X1877969Y1670394D02*
X1955999Y1748424D01*
X1938670Y1584017D02*
X1955983Y1601330D01*
X1876327Y1671580D02*
X1955842Y1751095D01*
X1939613Y1743351D02*
X1955733Y1759471D01*
X1811300Y1654636D02*
X1955364Y1798700D01*
X1900203Y1401300D02*
X1954653Y1455750D01*
X1937256Y1585431D02*
X1954569Y1602744D01*
X1935842Y1586845D02*
X1953155Y1604158D01*
X1811300Y1657465D02*
X1952535Y1798700D01*
X1897375Y1401300D02*
X1952179Y1456104D01*
X1875900Y1487305D02*
X1952100Y1563505D01*
X1875900Y1484477D02*
X1952100Y1560677D01*
X1875900Y1481649D02*
X1952100Y1557849D01*
X1875900Y1478820D02*
X1952100Y1555020D01*
X1875900Y1475992D02*
X1952100Y1552192D01*
X1875900Y1473163D02*
X1952100Y1549363D01*
X1875900Y1470335D02*
X1952100Y1546535D01*
X1875900Y1467506D02*
X1952100Y1543706D01*
X1875900Y1464678D02*
X1952100Y1540878D01*
X1877066Y1463015D02*
X1952100Y1538050D01*
X1878118Y1461239D02*
X1952100Y1535221D01*
X1877903Y1458196D02*
X1952100Y1532393D01*
X1823836Y1401300D02*
X1952100Y1529564D01*
X1826664Y1401300D02*
X1952100Y1526736D01*
X1829493Y1401300D02*
X1952100Y1523907D01*
X1832321Y1401300D02*
X1952100Y1521079D01*
X1835149Y1401300D02*
X1952100Y1518251D01*
X1837978Y1401300D02*
X1952100Y1515422D01*
X1840806Y1401300D02*
X1952100Y1512594D01*
X1843635Y1401300D02*
X1952100Y1509765D01*
X1846463Y1401300D02*
X1952100Y1506937D01*
X1849292Y1401300D02*
X1952100Y1504108D01*
X1852120Y1401300D02*
X1952100Y1501280D01*
X1854948Y1401300D02*
X1952100Y1498452D01*
X1857777Y1401300D02*
X1952100Y1495623D01*
X1860605Y1401300D02*
X1952100Y1492795D01*
X1863434Y1401300D02*
X1952100Y1489966D01*
X1866262Y1401300D02*
X1952100Y1487138D01*
X1869091Y1401300D02*
X1952100Y1484309D01*
X1871919Y1401300D02*
X1952100Y1481481D01*
X1874747Y1401300D02*
X1952100Y1478653D01*
X1877576Y1401300D02*
X1952100Y1475824D01*
X1880404Y1401300D02*
X1952100Y1472996D01*
X1883233Y1401300D02*
X1952100Y1470167D01*
X1886061Y1401300D02*
X1952100Y1467339D01*
X1888890Y1401300D02*
X1952100Y1464510D01*
X1934428Y1588259D02*
X1951741Y1605572D01*
X1875900Y1490134D02*
X1951540Y1565773D01*
X1894546Y1401300D02*
X1950606Y1457360D01*
X1875900Y1492962D02*
X1950125Y1567188D01*
X1891718Y1401300D02*
X1949752Y1459334D01*
X1811300Y1660293D02*
X1949707Y1798700D01*
X1933013Y1589674D02*
X1949343Y1606004D01*
X1875900Y1495791D02*
X1948711Y1568602D01*
X1931599Y1591088D02*
X1947403Y1606892D01*
X1875900Y1498619D02*
X1947297Y1570016D01*
X1811300Y1663122D02*
X1946878Y1798700D01*
X1930185Y1592502D02*
X1946222Y1608540D01*
X1928771Y1593916D02*
X1946169Y1611315D01*
X1875900Y1501448D02*
X1945883Y1571430D01*
X1875900Y1504276D02*
X1944469Y1572844D01*
X1811300Y1665950D02*
X1944050Y1798700D01*
X1875900Y1507104D02*
X1943054Y1574259D01*
X1875900Y1509933D02*
X1941640Y1575673D01*
X1811300Y1668778D02*
X1941222Y1798700D01*
X1875900Y1512761D02*
X1940226Y1577087D01*
X1875900Y1515590D02*
X1938812Y1578501D01*
X1811300Y1671607D02*
X1938393Y1798700D01*
X1933920Y1751800D02*
X1938047Y1755927D01*
X1875900Y1518418D02*
X1937397Y1579916D01*
X1811300Y1615038D02*
X1936962Y1740700D01*
X1875900Y1521247D02*
X1935983Y1581330D01*
X1811300Y1674435D02*
X1935565Y1798700D01*
X1931091Y1751800D02*
X1935218Y1755927D01*
X1875900Y1524075D02*
X1934569Y1582744D01*
X1811300Y1617867D02*
X1934133Y1740700D01*
X1875900Y1526903D02*
X1933155Y1584158D01*
X1811300Y1677264D02*
X1932736Y1798700D01*
X1928263Y1751800D02*
X1932390Y1755927D01*
X1875900Y1529732D02*
X1931741Y1585572D01*
X1853743Y1617883D02*
X1931560Y1695700D01*
X1894070Y1618612D02*
X1931388Y1655930D01*
X1811300Y1620695D02*
X1931305Y1740700D01*
X1918871Y1603816D02*
X1930838Y1615782D01*
X1875900Y1532560D02*
X1930326Y1586987D01*
X1811300Y1680092D02*
X1929908Y1798700D01*
X1875466Y1701831D02*
X1929562Y1755927D01*
X1914039Y1610297D02*
X1929474Y1625732D01*
X1875162Y1534650D02*
X1928912Y1588401D01*
X1854152Y1621120D02*
X1928731Y1695700D01*
X1894056Y1621427D02*
X1928573Y1655944D01*
X1811300Y1623524D02*
X1928476Y1740700D01*
X1917457Y1605230D02*
X1928284Y1616057D01*
X1873747Y1536065D02*
X1927498Y1589815D01*
X1913284Y1612370D02*
X1927451Y1626537D01*
X1811300Y1682921D02*
X1927079Y1798700D01*
X1892939Y1623139D02*
X1926861Y1657061D01*
X1811300Y1640494D02*
X1926827Y1756021D01*
X1916043Y1606644D02*
X1926674Y1617275D01*
X1894297Y1630153D02*
X1926252Y1662108D01*
X1811300Y1626352D02*
X1926229Y1741281D01*
X1853140Y1622937D02*
X1926188Y1695985D01*
X1911741Y1613656D02*
X1926157Y1628072D01*
X1872333Y1537479D02*
X1926084Y1591229D01*
X1811300Y1648979D02*
X1926012Y1763692D01*
X1811300Y1646151D02*
X1926012Y1760863D01*
X1811300Y1643323D02*
X1926012Y1758035D01*
X1877405Y1700942D02*
X1926012Y1749550D01*
X1878632Y1699341D02*
X1926012Y1746721D01*
X1878926Y1696807D02*
X1926012Y1743893D01*
X1891123Y1624151D02*
X1925849Y1658877D01*
X1914629Y1608058D02*
X1925774Y1619204D01*
X1909233Y1613977D02*
X1925726Y1630469D01*
X1854293Y1629747D02*
X1925700Y1701154D01*
X1851430Y1624055D02*
X1925700Y1698326D01*
X1871900Y1539874D02*
X1924670Y1592643D01*
X1811300Y1685749D02*
X1924251Y1798700D01*
X1871900Y1542702D02*
X1923255Y1594058D01*
X1871900Y1545531D02*
X1921841Y1595472D01*
X1811300Y1688577D02*
X1921423Y1798700D01*
X1871900Y1548359D02*
X1920427Y1596886D01*
X1871900Y1551188D02*
X1919013Y1598300D01*
X1811300Y1691406D02*
X1918594Y1798700D01*
X1871900Y1554016D02*
X1917598Y1599714D01*
X1871900Y1556844D02*
X1916184Y1601129D01*
X1811300Y1694234D02*
X1915766Y1798700D01*
X1871900Y1559673D02*
X1914770Y1602543D01*
X1871900Y1562501D02*
X1913356Y1603957D01*
X1811300Y1697063D02*
X1912937Y1798700D01*
X1871900Y1565330D02*
X1911942Y1605371D01*
X1811300Y1699891D02*
X1910109Y1798700D01*
X1871900Y1568158D02*
X1909703Y1605961D01*
X1871900Y1570987D02*
X1907630Y1606716D01*
X1811300Y1702720D02*
X1907281Y1798700D01*
X1871900Y1573815D02*
X1906344Y1608259D01*
X1871900Y1576643D02*
X1906023Y1610767D01*
X1811300Y1705548D02*
X1904452Y1798700D01*
X1811300Y1708376D02*
X1901624Y1798700D01*
X1811300Y1711205D02*
X1898795Y1798700D01*
X1811300Y1714033D02*
X1895967Y1798700D01*
X1811300Y1716862D02*
X1893138Y1798700D01*
X1871900Y1596442D02*
X1891388Y1615930D01*
X1811300Y1719690D02*
X1890310Y1798700D01*
X1887891Y1623748D02*
X1889847Y1625703D01*
X1871900Y1599271D02*
X1888573Y1615944D01*
X1873445Y1612129D02*
X1887689Y1626374D01*
X1811300Y1722518D02*
X1887482Y1798700D01*
X1871900Y1602099D02*
X1886861Y1617061D01*
X1872006Y1613519D02*
X1886299Y1627812D01*
X1874049Y1609905D02*
X1886252Y1622109D01*
X1871900Y1604928D02*
X1885849Y1618877D01*
X1869697Y1614039D02*
X1885700Y1630042D01*
X1811300Y1725347D02*
X1884653Y1798700D01*
X1811300Y1728175D02*
X1881825Y1798700D01*
X1811300Y1731004D02*
X1878996Y1798700D01*
X1811300Y1733832D02*
X1876168Y1798700D01*
X1821007Y1401300D02*
X1875804Y1456097D01*
X1811300Y1629180D02*
X1875493Y1693374D01*
X1811300Y1600896D02*
X1873799Y1663395D01*
X1811300Y1736661D02*
X1873339Y1798700D01*
X1811300Y1632009D02*
X1872959Y1693668D01*
X1818179Y1401300D02*
X1872761Y1455882D01*
X1811300Y1470789D02*
X1872100Y1531589D01*
X1811300Y1467960D02*
X1872100Y1528760D01*
X1811300Y1465132D02*
X1872100Y1525932D01*
X1811300Y1462303D02*
X1872100Y1523103D01*
X1811300Y1459475D02*
X1872100Y1520275D01*
X1811300Y1456647D02*
X1872100Y1517446D01*
X1811300Y1453818D02*
X1872100Y1514618D01*
X1811300Y1450990D02*
X1872100Y1511790D01*
X1811300Y1448161D02*
X1872100Y1508961D01*
X1811300Y1445333D02*
X1872100Y1506133D01*
X1811300Y1442504D02*
X1872100Y1503304D01*
X1811300Y1439676D02*
X1872100Y1500476D01*
X1811300Y1436848D02*
X1872100Y1497647D01*
X1811300Y1434019D02*
X1872100Y1494819D01*
X1811300Y1431191D02*
X1872100Y1491991D01*
X1811300Y1428362D02*
X1872100Y1489162D01*
X1811300Y1425534D02*
X1872100Y1486334D01*
X1811300Y1422705D02*
X1872100Y1483505D01*
X1811300Y1419877D02*
X1872100Y1480677D01*
X1811300Y1417049D02*
X1872100Y1477849D01*
X1811300Y1414220D02*
X1872100Y1475020D01*
X1811300Y1411392D02*
X1872100Y1472192D01*
X1811300Y1408563D02*
X1872100Y1469363D01*
X1811300Y1405735D02*
X1872100Y1466535D01*
X1811300Y1603725D02*
X1871906Y1664331D01*
X1811300Y1634837D02*
X1871358Y1694895D01*
X1811300Y1473617D02*
X1871060Y1533378D01*
X1815350Y1401300D02*
X1870985Y1456934D01*
X1811300Y1606553D02*
X1870720Y1665973D01*
X1811300Y1609381D02*
X1870518Y1668599D01*
X1811300Y1739489D02*
X1870511Y1798700D01*
X1811300Y1637666D02*
X1870469Y1696834D01*
X1811300Y1402906D02*
X1870019Y1461625D01*
X1812522Y1401300D02*
X1869906Y1458684D01*
X1811300Y1476445D02*
X1869646Y1534792D01*
X1811300Y1479274D02*
X1868301Y1536275D01*
X1811300Y1547156D02*
X1868100Y1603956D01*
X1811300Y1544328D02*
X1868100Y1601128D01*
X1811300Y1541499D02*
X1868100Y1598299D01*
X1811300Y1538671D02*
X1868100Y1595471D01*
X1811300Y1535842D02*
X1868100Y1592642D01*
X1811300Y1533014D02*
X1868100Y1589814D01*
X1811300Y1530186D02*
X1868100Y1586986D01*
X1811300Y1527357D02*
X1868100Y1584157D01*
X1811300Y1524529D02*
X1868100Y1581329D01*
X1811300Y1521700D02*
X1868100Y1578500D01*
X1811300Y1518872D02*
X1868100Y1575672D01*
X1811300Y1516043D02*
X1868100Y1572843D01*
X1811300Y1513215D02*
X1868100Y1570015D01*
X1811300Y1510387D02*
X1868100Y1567187D01*
X1811300Y1507558D02*
X1868100Y1564358D01*
X1811300Y1504730D02*
X1868100Y1561530D01*
X1811300Y1501901D02*
X1868100Y1558701D01*
X1811300Y1499073D02*
X1868100Y1555873D01*
X1811300Y1496244D02*
X1868100Y1553044D01*
X1811300Y1493416D02*
X1868100Y1550216D01*
X1811300Y1490588D02*
X1868100Y1547388D01*
X1811300Y1487759D02*
X1868100Y1544559D01*
X1811300Y1484931D02*
X1868100Y1541731D01*
X1811300Y1482102D02*
X1868100Y1538902D01*
X1811300Y1549985D02*
X1867870Y1606555D01*
X1811300Y1742317D02*
X1867683Y1798700D01*
X1811300Y1552813D02*
X1866481Y1607994D01*
X1811300Y1555641D02*
X1865961Y1610303D01*
X1811300Y1745146D02*
X1864854Y1798700D01*
X1811300Y1747974D02*
X1862026Y1798700D01*
X1811300Y1750803D02*
X1859197Y1798700D01*
X1811300Y1753631D02*
X1856369Y1798700D01*
X1811300Y1756460D02*
X1853540Y1798700D01*
X1811300Y1575440D02*
X1852117Y1616257D01*
X1811300Y1759288D02*
X1850712Y1798700D01*
X1848618Y1624072D02*
X1850253Y1625707D01*
X1811300Y1578269D02*
X1848880Y1615848D01*
X1811300Y1589582D02*
X1847942Y1626224D01*
X1811300Y1762116D02*
X1847884Y1798700D01*
X1811300Y1581097D02*
X1847063Y1616860D01*
X1811300Y1592411D02*
X1846455Y1627566D01*
X1811300Y1583926D02*
X1845945Y1618570D01*
X1811300Y1586754D02*
X1845928Y1621382D01*
X1811300Y1595239D02*
X1845714Y1629653D01*
X1811300Y1764945D02*
X1845055Y1798700D01*
X1811300Y1767773D02*
X1842227Y1798700D01*
X1811300Y1770602D02*
X1839398Y1798700D01*
X1811300Y1773430D02*
X1836570Y1798700D01*
X1811300Y1776259D02*
X1833741Y1798700D01*
X1811300Y1779087D02*
X1830913Y1798700D01*
X1811300Y1781915D02*
X1828085Y1798700D01*
X1811300Y1784744D02*
X1825256Y1798700D01*
X1811300Y1787572D02*
X1822428Y1798700D01*
X1811300Y1790401D02*
X1819599Y1798700D01*
X1811300Y1793229D02*
X1816771Y1798700D01*
X1811300Y1796058D02*
X1813942Y1798700D01*
X1984551Y1665993D02*
X1985951Y1667393D01*
X2186058Y1798700D02*
X2188700Y1796058D01*
X2183229Y1798700D02*
X2188700Y1793229D01*
X2180401Y1798700D02*
X2188700Y1790401D01*
X2177572Y1798700D02*
X2188700Y1787572D01*
X2174744Y1798700D02*
X2188700Y1784744D01*
X2171915Y1798700D02*
X2188700Y1781915D01*
X2169087Y1798700D02*
X2188700Y1779087D01*
X2166259Y1798700D02*
X2188700Y1776259D01*
X2163430Y1798700D02*
X2188700Y1773430D01*
X2160602Y1798700D02*
X2188700Y1770602D01*
X2157773Y1798700D02*
X2188700Y1767773D01*
X2154945Y1798700D02*
X2188700Y1764945D01*
X2152116Y1798700D02*
X2188700Y1762116D01*
X2149288Y1798700D02*
X2188700Y1759288D01*
X2146460Y1798700D02*
X2188700Y1756460D01*
X2143631Y1798700D02*
X2188700Y1753631D01*
X2140803Y1798700D02*
X2188700Y1750803D01*
X2137974Y1798700D02*
X2188700Y1747974D01*
X2135146Y1798700D02*
X2188700Y1745146D01*
X2132317Y1798700D02*
X2188700Y1742317D01*
X2129489Y1798700D02*
X2188700Y1739489D01*
X2126661Y1798700D02*
X2188700Y1736661D01*
X2123832Y1798700D02*
X2188700Y1733832D01*
X2121004Y1798700D02*
X2188700Y1731004D01*
X2118175Y1798700D02*
X2188700Y1728175D01*
X2115347Y1798700D02*
X2188700Y1725347D01*
X2112518Y1798700D02*
X2188700Y1722518D01*
X2109690Y1798700D02*
X2188700Y1719690D01*
X2106862Y1798700D02*
X2188700Y1716862D01*
X2104033Y1798700D02*
X2188700Y1714033D01*
X2101205Y1798700D02*
X2188700Y1711205D01*
X2098376Y1798700D02*
X2188700Y1708376D01*
X2095548Y1798700D02*
X2188700Y1705548D01*
X2092719Y1798700D02*
X2188700Y1702720D01*
X2089891Y1798700D02*
X2188700Y1699891D01*
X2087063Y1798700D02*
X2188700Y1697063D01*
X2084234Y1798700D02*
X2188700Y1694234D01*
X2081406Y1798700D02*
X2188700Y1691406D01*
X2078577Y1798700D02*
X2188700Y1688577D01*
X2075749Y1798700D02*
X2188700Y1685749D01*
X2072921Y1798700D02*
X2188700Y1682921D01*
X2070092Y1798700D02*
X2188700Y1680092D01*
X2067264Y1798700D02*
X2188700Y1677264D01*
X2064435Y1798700D02*
X2188700Y1674435D01*
X2061607Y1798700D02*
X2188700Y1671607D01*
X2058778Y1798700D02*
X2188700Y1668778D01*
X2055950Y1798700D02*
X2188700Y1665950D01*
X2053122Y1798700D02*
X2188700Y1663122D01*
X2050293Y1798700D02*
X2188700Y1660293D01*
X2047465Y1798700D02*
X2188700Y1657465D01*
X2044636Y1798700D02*
X2188700Y1654636D01*
X2041808Y1798700D02*
X2188700Y1651808D01*
X2038979Y1798700D02*
X2188700Y1648979D01*
X2036151Y1798700D02*
X2188700Y1646151D01*
X2033323Y1798700D02*
X2188700Y1643323D01*
X2030494Y1798700D02*
X2188700Y1640494D01*
X2027666Y1798700D02*
X2188700Y1637666D01*
X2024837Y1798700D02*
X2188700Y1634837D01*
X2022009Y1798700D02*
X2188700Y1632009D01*
X2019180Y1798700D02*
X2188700Y1629180D01*
X2054613Y1760439D02*
X2188700Y1626352D01*
X2054613Y1757611D02*
X2188700Y1623524D01*
X2053241Y1756155D02*
X2188700Y1620695D01*
X2050412Y1756155D02*
X2188700Y1617867D01*
X2054613Y1749126D02*
X2188700Y1615038D01*
X2054613Y1746297D02*
X2188700Y1612210D01*
X2053854Y1744227D02*
X2188700Y1609381D01*
X2051144Y1744109D02*
X2188700Y1606553D01*
X2048316Y1744109D02*
X2188700Y1603725D01*
X2045487Y1744109D02*
X2188700Y1600896D01*
X2042659Y1744109D02*
X2188700Y1598068D01*
X2024300Y1759639D02*
X2188700Y1595239D01*
X2024288Y1756823D02*
X2188700Y1592411D01*
X2022582Y1755700D02*
X2188700Y1589582D01*
X2024072Y1751382D02*
X2188700Y1586754D01*
X2024055Y1748570D02*
X2188700Y1583926D01*
X2022937Y1746860D02*
X2188700Y1581097D01*
X2021120Y1745848D02*
X2188700Y1578269D01*
X2134297Y1629843D02*
X2188700Y1575440D01*
X2133625Y1627687D02*
X2188700Y1572612D01*
X2132186Y1626297D02*
X2188700Y1569784D01*
X2133946Y1621709D02*
X2188700Y1566955D01*
X2134105Y1618721D02*
X2188700Y1564127D01*
X2133040Y1616959D02*
X2188700Y1561298D01*
X2131276Y1615894D02*
X2188700Y1558470D01*
X2128284Y1616057D02*
X2188700Y1555641D01*
X2011900Y1729613D02*
X2188700Y1552813D01*
X2011900Y1726784D02*
X2188700Y1549985D01*
X2063748Y1672108D02*
X2188700Y1547156D01*
X2064151Y1668877D02*
X2188700Y1544328D01*
X2063139Y1667061D02*
X2188700Y1541499D01*
X2061427Y1665944D02*
X2188700Y1538671D01*
X2094293Y1630250D02*
X2188700Y1535842D01*
X2093774Y1627940D02*
X2188700Y1533014D01*
X2092432Y1626454D02*
X2188700Y1530186D01*
X2093299Y1622758D02*
X2188700Y1527357D01*
X2094191Y1619038D02*
X2188700Y1524529D01*
X2093234Y1617166D02*
X2188700Y1521700D01*
X2091574Y1615998D02*
X2188700Y1518872D01*
X2088900Y1615843D02*
X2188700Y1516043D01*
X2033815Y1668100D02*
X2188700Y1513215D01*
X2030987Y1668100D02*
X2188700Y1510387D01*
X2028158Y1668100D02*
X2188700Y1507558D01*
X2025330Y1668100D02*
X2188700Y1504730D01*
X2022501Y1668100D02*
X2188700Y1501901D01*
X2019673Y1668100D02*
X2188700Y1499073D01*
X2054242Y1630702D02*
X2188700Y1496244D01*
X2053909Y1628207D02*
X2188700Y1493416D01*
X2052663Y1626624D02*
X2188700Y1490588D01*
X2050702Y1625758D02*
X2188700Y1487759D01*
X2054255Y1619376D02*
X2188700Y1484931D01*
X2053415Y1617387D02*
X2188700Y1482102D01*
X2051854Y1616120D02*
X2188700Y1479274D01*
X2049404Y1615741D02*
X2188700Y1476445D01*
X2042771Y1619546D02*
X2188700Y1473617D01*
X2040930Y1618558D02*
X2188700Y1470789D01*
X1996050Y1660610D02*
X2188700Y1467960D01*
X2016300Y1637532D02*
X2188700Y1465132D01*
X2016300Y1634703D02*
X2188700Y1462303D01*
X2016300Y1631875D02*
X2188700Y1459475D01*
X2016300Y1629046D02*
X2188700Y1456647D01*
X2016300Y1626218D02*
X2188700Y1453818D01*
X2016300Y1623390D02*
X2188700Y1450990D01*
X2016300Y1620561D02*
X2188700Y1448161D01*
X2016257Y1617776D02*
X2188700Y1445333D01*
X2015057Y1616147D02*
X2188700Y1442504D01*
X2013643Y1614733D02*
X2188700Y1439676D01*
X2012212Y1613336D02*
X2188700Y1436848D01*
X2009744Y1612975D02*
X2188700Y1434019D01*
X2006916Y1612975D02*
X2188700Y1431191D01*
X2004087Y1612975D02*
X2188700Y1428362D01*
X2001259Y1612975D02*
X2188700Y1425534D01*
X1998430Y1612975D02*
X2188700Y1422705D01*
X1995602Y1612975D02*
X2188700Y1419877D01*
X1993320Y1612428D02*
X2188700Y1417049D01*
X1993931Y1608989D02*
X2188700Y1414220D01*
X2115900Y1484192D02*
X2188700Y1411392D01*
X2115900Y1481363D02*
X2188700Y1408563D01*
X2115900Y1478535D02*
X2188700Y1405735D01*
X2115900Y1475706D02*
X2188700Y1402906D01*
X2115900Y1472878D02*
X2187478Y1401300D01*
X2115900Y1470050D02*
X2184650Y1401300D01*
X2115900Y1467221D02*
X2181821Y1401300D01*
X2115900Y1464393D02*
X2178993Y1401300D01*
X2118231Y1459233D02*
X2176164Y1401300D01*
X2117342Y1457294D02*
X2173336Y1401300D01*
X2115740Y1456068D02*
X2170507Y1401300D01*
X2113205Y1455774D02*
X2167679Y1401300D01*
X1981946Y1584204D02*
X2164851Y1401300D01*
X1981946Y1581376D02*
X2162022Y1401300D01*
X1981946Y1578547D02*
X2159194Y1401300D01*
X1981946Y1575719D02*
X2156365Y1401300D01*
X1981946Y1572891D02*
X2153537Y1401300D01*
X1981946Y1570062D02*
X2150708Y1401300D01*
X1981946Y1567234D02*
X2147880Y1401300D01*
X1981946Y1564405D02*
X2145052Y1401300D01*
X2004240Y1539283D02*
X2142223Y1401300D01*
X2003368Y1537327D02*
X2139395Y1401300D01*
X2001780Y1536086D02*
X2136566Y1401300D01*
X1999277Y1535761D02*
X2133738Y1401300D01*
X2129955Y1625700D02*
X2131709Y1623946D01*
X1977351Y1554858D02*
X2130909Y1401300D01*
X2017883Y1746257D02*
X2129843Y1634297D01*
X2074105Y1678721D02*
X2128721Y1624105D01*
X1975937Y1553444D02*
X2128081Y1401300D01*
X2013625Y1747687D02*
X2127687Y1633625D01*
X2073040Y1676959D02*
X2126959Y1623040D01*
X2012186Y1746297D02*
X2126297Y1632186D01*
X2068284Y1676057D02*
X2126057Y1618284D01*
X2071276Y1675894D02*
X2125894Y1621276D01*
X2073946Y1681709D02*
X2125700Y1629955D01*
X2035900Y1490653D02*
X2125253Y1401300D01*
X2035900Y1487824D02*
X2122424Y1401300D01*
X2035900Y1484996D02*
X2119596Y1401300D01*
X2035900Y1482167D02*
X2116767Y1401300D01*
X2035900Y1479339D02*
X2113939Y1401300D01*
X1987895Y1606540D02*
X2112100Y1482335D01*
X1984212Y1607394D02*
X2112100Y1479506D01*
X1982798Y1605980D02*
X2112100Y1476678D01*
X1981946Y1604003D02*
X2112100Y1473850D01*
X1981946Y1601175D02*
X2112100Y1471021D01*
X1981946Y1598346D02*
X2112100Y1468193D01*
X1981946Y1595518D02*
X2112100Y1465364D01*
X1991235Y1606028D02*
X2112059Y1485204D01*
X1981946Y1592690D02*
X2111294Y1463342D01*
X2035900Y1476510D02*
X2111110Y1401300D01*
X1981946Y1589861D02*
X2110068Y1461740D01*
X1981946Y1587033D02*
X2109774Y1459205D01*
X2035900Y1473682D02*
X2108282Y1401300D01*
X2035900Y1470854D02*
X2105454Y1401300D01*
X2035900Y1468025D02*
X2102625Y1401300D01*
X2035900Y1465197D02*
X2099797Y1401300D01*
X2038300Y1459968D02*
X2096968Y1401300D01*
X2037674Y1457766D02*
X2094140Y1401300D01*
X2090343Y1625714D02*
X2092758Y1623299D01*
X2036266Y1456346D02*
X2091311Y1401300D01*
X2058612Y1665930D02*
X2090250Y1634293D01*
X2045129Y1668100D02*
X2089038Y1624191D01*
X2034082Y1455701D02*
X2088483Y1401300D01*
X2053614Y1668100D02*
X2087940Y1633774D01*
X2042300Y1668100D02*
X2087166Y1623234D01*
X2050786Y1668100D02*
X2086454Y1632432D01*
X2039472Y1668100D02*
X2085998Y1621574D01*
X2036643Y1668100D02*
X2085843Y1618900D01*
X2047957Y1668100D02*
X2085714Y1630343D01*
X1955900Y1531055D02*
X2085655Y1401300D01*
X1955900Y1528226D02*
X2082826Y1401300D01*
X1955900Y1525398D02*
X2079998Y1401300D01*
X1955900Y1522569D02*
X2077169Y1401300D01*
X1955900Y1519741D02*
X2074341Y1401300D01*
X2063946Y1691709D02*
X2071709Y1683946D01*
X1955900Y1516913D02*
X2071513Y1401300D01*
X2064105Y1688721D02*
X2068721Y1684105D01*
X1955900Y1514084D02*
X2068684Y1401300D01*
X2063040Y1686959D02*
X2066959Y1683040D01*
X2058284Y1686057D02*
X2066057Y1678284D01*
X2061276Y1685894D02*
X2065894Y1681276D01*
X1955900Y1511256D02*
X2065856Y1401300D01*
X1955900Y1508427D02*
X2063027Y1401300D01*
X2011900Y1723956D02*
X2062108Y1673748D01*
X2011900Y1743755D02*
X2061709Y1693946D01*
X1955900Y1505599D02*
X2060199Y1401300D01*
X2011900Y1721128D02*
X2058877Y1674151D01*
X2011900Y1740927D02*
X2058721Y1694105D01*
X1955900Y1502770D02*
X2057370Y1401300D01*
X2011906Y1718293D02*
X2057061Y1673139D01*
X2011900Y1738098D02*
X2056959Y1693040D01*
X2011900Y1732441D02*
X2056057Y1688284D01*
X2011900Y1735270D02*
X2055894Y1691276D01*
X2016900Y1710471D02*
X2055471Y1671900D01*
X1955900Y1499942D02*
X2054542Y1401300D01*
X2016352Y1798700D02*
X2053252Y1761800D01*
X2016900Y1707642D02*
X2052642Y1671900D01*
X2047584Y1756155D02*
X2051938Y1751800D01*
X1955900Y1497114D02*
X2051714Y1401300D01*
X2016844Y1668100D02*
X2050702Y1634242D01*
X2013524Y1798700D02*
X2050424Y1761800D01*
X2016900Y1704814D02*
X2049814Y1671900D01*
X2005873Y1667758D02*
X2049376Y1624255D01*
X2044755Y1756155D02*
X2049110Y1751800D01*
X1955900Y1494285D02*
X2048885Y1401300D01*
X2014016Y1668100D02*
X2048207Y1633909D01*
X2010695Y1798700D02*
X2047595Y1761800D01*
X2004386Y1666416D02*
X2047387Y1623415D01*
X2016900Y1701986D02*
X2046986Y1671900D01*
X1996188Y1683100D02*
X2046624Y1632663D01*
X2041837Y1756245D02*
X2046281Y1751800D01*
X2043580Y1624394D02*
X2046120Y1621854D01*
X1955900Y1491457D02*
X2046057Y1401300D01*
X2006549Y1669910D02*
X2045758Y1630702D01*
X2043863Y1621283D02*
X2045741Y1619404D01*
X2007867Y1798700D02*
X2044767Y1761800D01*
X2016900Y1699157D02*
X2044157Y1671900D01*
X1996553Y1798700D02*
X2043453Y1751800D01*
X1955900Y1488628D02*
X2043228Y1401300D01*
X2005038Y1798700D02*
X2041981Y1761757D01*
X2001992Y1665982D02*
X2041894Y1626080D01*
X2016900Y1696329D02*
X2041329Y1671900D01*
X1993725Y1798700D02*
X2041220Y1751205D01*
X1999381Y1798700D02*
X2041103Y1756979D01*
X2002210Y1798700D02*
X2041012Y1759897D01*
X1990896Y1798700D02*
X2041012Y1748584D01*
X2024300Y1762468D02*
X2041012Y1745755D01*
X1955900Y1485800D02*
X2040400Y1401300D01*
X2016900Y1693500D02*
X2038500Y1671900D01*
X1955900Y1482971D02*
X2037571Y1401300D01*
X1996444Y1663044D02*
X2036058Y1623430D01*
X2016900Y1690672D02*
X2035672Y1671900D01*
X1955900Y1480143D02*
X2034743Y1401300D01*
X2016900Y1687843D02*
X2032843Y1671900D01*
X1955900Y1564996D02*
X2032100Y1488796D01*
X1955900Y1562167D02*
X2032100Y1485967D01*
X1955900Y1559339D02*
X2032100Y1483139D01*
X1955900Y1556510D02*
X2032100Y1480311D01*
X1955900Y1553682D02*
X2032100Y1477482D01*
X1955900Y1550854D02*
X2032100Y1474654D01*
X1955900Y1548025D02*
X2032100Y1471825D01*
X1955900Y1545197D02*
X2032100Y1468997D01*
X1955900Y1542368D02*
X2032100Y1466168D01*
X1955900Y1477315D02*
X2031915Y1401300D01*
X1955900Y1539540D02*
X2031766Y1463674D01*
X1955900Y1536711D02*
X2030346Y1462266D01*
X2016900Y1685015D02*
X2030015Y1671900D01*
X1955900Y1533883D02*
X2029701Y1460082D01*
X1955900Y1474486D02*
X2029086Y1401300D01*
X2019050Y1680037D02*
X2027187Y1671900D01*
X1955900Y1471658D02*
X2026258Y1401300D01*
X2018423Y1677835D02*
X2024358Y1671900D01*
X1955900Y1468829D02*
X2023429Y1401300D01*
X1988068Y1798700D02*
X2022468Y1764300D01*
X2016969Y1676461D02*
X2021530Y1671900D01*
X2019754Y1755700D02*
X2021382Y1754072D01*
X1955900Y1466001D02*
X2020601Y1401300D01*
X1985239Y1798700D02*
X2019639Y1764300D01*
X2014635Y1675966D02*
X2018701Y1671900D01*
X2016923Y1755702D02*
X2018570Y1754055D01*
X1958213Y1460859D02*
X2017772Y1401300D01*
X2012937Y1756860D02*
X2016860Y1752937D01*
X1982411Y1798700D02*
X2016823Y1764288D01*
X2014297Y1749843D02*
X2016257Y1747883D01*
X1939613Y1748160D02*
X2015873Y1671900D01*
X2011120Y1755848D02*
X2015848Y1751120D01*
X2014055Y1758570D02*
X2015702Y1756923D01*
X1979582Y1798700D02*
X2015700Y1762582D01*
X2014072Y1761382D02*
X2015700Y1759754D01*
X1957948Y1458296D02*
X2014944Y1401300D01*
X1973774Y1747940D02*
X2013100Y1708614D01*
X1972432Y1746454D02*
X2013100Y1705786D01*
X1970343Y1745714D02*
X2013100Y1702957D01*
X1964191Y1749038D02*
X2013100Y1700129D01*
X1963234Y1747166D02*
X2013100Y1697300D01*
X1961574Y1745998D02*
X2013100Y1694472D01*
X1958900Y1745843D02*
X2013100Y1691643D01*
X1939613Y1762302D02*
X2013100Y1688815D01*
X1939613Y1759474D02*
X2013100Y1685987D01*
X1978612Y1745930D02*
X2013096Y1711447D01*
X1939518Y1756740D02*
X2012835Y1683423D01*
X1991900Y1656275D02*
X2012500Y1635675D01*
X2011035Y1625826D02*
X2012500Y1624361D01*
X1956734Y1456681D02*
X2012116Y1401300D01*
X1937502Y1755927D02*
X2011461Y1681969D01*
X1976754Y1798700D02*
X2011382Y1764072D01*
X1991900Y1653446D02*
X2011224Y1634122D01*
X1939419Y1751182D02*
X2010966Y1679635D01*
X2007883Y1756257D02*
X2009843Y1754297D01*
X2007602Y1626431D02*
X2009741Y1624292D01*
X1954810Y1455777D02*
X2009287Y1401300D01*
X1973926Y1798700D02*
X2008570Y1764055D01*
X1991900Y1650618D02*
X2008491Y1634027D01*
X2004105Y1748721D02*
X2008100Y1744727D01*
X2003040Y1746959D02*
X2008100Y1741898D01*
X2001276Y1745894D02*
X2008100Y1739070D01*
X1998284Y1746057D02*
X2008100Y1736241D01*
X1993701Y1747811D02*
X2008100Y1733413D01*
X1992311Y1746374D02*
X2008100Y1730585D01*
X1990153Y1745703D02*
X2008100Y1727756D01*
X1984151Y1748877D02*
X2008100Y1724928D01*
X1983139Y1747061D02*
X2008100Y1722099D01*
X1981427Y1745944D02*
X2008100Y1719271D01*
X2003625Y1757687D02*
X2007687Y1753625D01*
X1991900Y1639304D02*
X2007622Y1623583D01*
X1971097Y1798700D02*
X2006860Y1762937D01*
X1991900Y1647790D02*
X2006808Y1632881D01*
X1875900Y1531859D02*
X2006459Y1401300D01*
X1991900Y1642133D02*
X2006431Y1627602D01*
X2002186Y1756297D02*
X2006297Y1752186D01*
X1991900Y1636476D02*
X2006258Y1622118D01*
X2004297Y1759843D02*
X2006257Y1757883D01*
X2001380Y1621339D02*
X2005944Y1616775D01*
X1968269Y1798700D02*
X2005848Y1761120D01*
X1991900Y1644961D02*
X2005826Y1631035D01*
X2000986Y1624561D02*
X2005703Y1619845D01*
X2003946Y1751709D02*
X2005700Y1749955D01*
X1875900Y1529030D02*
X2003630Y1401300D01*
X2000309Y1619582D02*
X2003116Y1616775D01*
X1993359Y1683100D02*
X2002410Y1674049D01*
X1999955Y1755700D02*
X2001709Y1753946D01*
X1875900Y1526202D02*
X2000802Y1401300D01*
X1998490Y1618573D02*
X2000287Y1616775D01*
X1965440Y1798700D02*
X1999843Y1764297D01*
X1991900Y1633647D02*
X1999561Y1625986D01*
X1981946Y1561577D02*
X1999283Y1544240D01*
X1994105Y1758721D02*
X1998721Y1754105D01*
X1939613Y1745332D02*
X1998044Y1686900D01*
X1875900Y1523373D02*
X1997973Y1401300D01*
X1962612Y1798700D02*
X1997687Y1763625D01*
X1984400Y1629834D02*
X1997459Y1616775D01*
X1981578Y1559117D02*
X1997327Y1543368D01*
X1993040Y1756959D02*
X1996959Y1753040D01*
X1959783Y1798700D02*
X1996297Y1762186D01*
X1991957Y1630762D02*
X1996231Y1626488D01*
X1980179Y1557687D02*
X1996086Y1541780D01*
X1994300Y1750042D02*
X1996057Y1748284D01*
X1991276Y1755894D02*
X1995894Y1751276D01*
X1978765Y1556273D02*
X1995761Y1539277D01*
X1993946Y1761709D02*
X1995700Y1759955D01*
X1939613Y1742503D02*
X1995216Y1686900D01*
X1875900Y1520545D02*
X1995145Y1401300D01*
X1984400Y1627005D02*
X1994630Y1616775D01*
X1984400Y1632662D02*
X1993568Y1623494D01*
X1938563Y1740724D02*
X1992388Y1686900D01*
X1875900Y1517717D02*
X1992317Y1401300D01*
X1986525Y1622052D02*
X1991802Y1616775D01*
X1990531Y1683100D02*
X1991731Y1681900D01*
X1956955Y1798700D02*
X1991709Y1763946D01*
X1988284Y1756057D02*
X1990042Y1754300D01*
X1935759Y1740700D02*
X1989559Y1686900D01*
X1875900Y1514888D02*
X1989488Y1401300D01*
X1985713Y1620035D02*
X1988974Y1616775D01*
X1987702Y1683100D02*
X1988902Y1681900D01*
X1954127Y1798700D02*
X1988721Y1764105D01*
X1986208Y1664795D02*
X1988100Y1662903D01*
X1986471Y1661704D02*
X1988100Y1660075D01*
X1985532Y1659815D02*
X1988100Y1657246D01*
X1984400Y1658118D02*
X1988100Y1654418D01*
X1984400Y1655290D02*
X1988100Y1651590D01*
X1984400Y1652461D02*
X1988100Y1648761D01*
X1984400Y1649633D02*
X1988100Y1645933D01*
X1984400Y1646804D02*
X1988100Y1643104D01*
X1984400Y1643976D02*
X1988100Y1640276D01*
X1984400Y1641147D02*
X1988100Y1637448D01*
X1984400Y1638319D02*
X1988100Y1634619D01*
X1984400Y1635491D02*
X1988100Y1631791D01*
X1983701Y1757811D02*
X1987811Y1753701D01*
X1984128Y1618792D02*
X1987182Y1615738D01*
X1951298Y1798700D02*
X1986959Y1763040D01*
X1932931Y1740700D02*
X1986731Y1686900D01*
X1875900Y1512060D02*
X1986660Y1401300D01*
X1985680Y1608755D02*
X1986540Y1607895D01*
X1982311Y1756374D02*
X1986374Y1752311D01*
X1984874Y1683100D02*
X1986074Y1681900D01*
X1984300Y1760042D02*
X1986057Y1758284D01*
X1948470Y1798700D02*
X1985894Y1761276D01*
X1981522Y1618570D02*
X1985768Y1614324D01*
X1983748Y1752108D02*
X1985703Y1750153D01*
X1971347Y1625916D02*
X1984354Y1612910D01*
X1930102Y1740700D02*
X1983902Y1686900D01*
X1875900Y1509231D02*
X1983831Y1401300D01*
X1982045Y1683100D02*
X1983245Y1681900D01*
X1974298Y1620137D02*
X1982939Y1611495D01*
X1980153Y1755703D02*
X1982108Y1753748D01*
X1973736Y1617871D02*
X1981525Y1610081D01*
X1927273Y1740701D02*
X1981074Y1686900D01*
X1979217Y1683100D02*
X1981044Y1681273D01*
X1875900Y1506403D02*
X1981003Y1401300D01*
X1978986Y1643733D02*
X1980600Y1642119D01*
X1976240Y1643651D02*
X1980600Y1639291D01*
X1818362Y1798700D02*
X1980600Y1636462D01*
X1815534Y1798700D02*
X1980600Y1633634D01*
X1812705Y1798700D02*
X1980600Y1630805D01*
X1811300Y1797277D02*
X1980600Y1627977D01*
X1972368Y1616410D02*
X1980111Y1608667D01*
X1945641Y1798700D02*
X1980042Y1764300D01*
X1973866Y1631882D02*
X1980035Y1625713D01*
X1976389Y1683100D02*
X1979630Y1679858D01*
X1974151Y1758877D02*
X1978877Y1754151D01*
X1974127Y1628793D02*
X1978792Y1624128D01*
X1970243Y1615707D02*
X1978697Y1607253D01*
X1973086Y1627006D02*
X1978570Y1621522D01*
X1866445Y1798700D02*
X1978245Y1686900D01*
X1973623Y1683037D02*
X1978216Y1678444D01*
X1875900Y1503574D02*
X1978174Y1401300D01*
X1811300Y1771821D02*
X1978146Y1604975D01*
X1811300Y1768993D02*
X1978146Y1602146D01*
X1878888Y1698577D02*
X1978146Y1599318D01*
X1878675Y1695961D02*
X1978146Y1596490D01*
X1877484Y1694323D02*
X1978146Y1593661D01*
X1875587Y1693392D02*
X1978146Y1590833D01*
X1811300Y1754851D02*
X1978146Y1588004D01*
X1953994Y1609328D02*
X1978146Y1585176D01*
X1964074Y1596419D02*
X1978146Y1582347D01*
X1964074Y1593591D02*
X1978146Y1579519D01*
X1964074Y1590762D02*
X1978146Y1576691D01*
X1964074Y1587934D02*
X1978146Y1573862D01*
X1964074Y1585106D02*
X1978146Y1571034D01*
X1964074Y1582277D02*
X1978146Y1568205D01*
X1964074Y1579449D02*
X1978146Y1565377D01*
X1964074Y1576620D02*
X1978146Y1562548D01*
X1942813Y1798700D02*
X1977811Y1763701D01*
X1964074Y1573792D02*
X1977492Y1560374D01*
X1973139Y1757061D02*
X1977061Y1753139D01*
X1976422Y1666096D02*
X1976830Y1665688D01*
X1972219Y1681612D02*
X1976801Y1677030D01*
X1939985Y1798700D02*
X1976374Y1762311D01*
X1964074Y1570964D02*
X1976078Y1558960D01*
X1971427Y1755944D02*
X1975944Y1751427D01*
X1974293Y1750250D02*
X1975930Y1748612D01*
X1968418Y1671272D02*
X1975703Y1663986D01*
X1973748Y1762108D02*
X1975703Y1760153D01*
X1934300Y1702561D02*
X1975600Y1661261D01*
X1934300Y1699733D02*
X1975600Y1658433D01*
X1934297Y1696908D02*
X1975600Y1655604D01*
X1932676Y1695700D02*
X1975600Y1652776D01*
X1863617Y1798700D02*
X1975417Y1686900D01*
X1875900Y1500746D02*
X1975346Y1401300D01*
X1929848Y1695700D02*
X1974923Y1650624D01*
X1964074Y1568135D02*
X1974664Y1557545D01*
X1970053Y1680950D02*
X1974103Y1676900D01*
X1973032Y1672315D02*
X1973770Y1671577D01*
X1927019Y1695700D02*
X1973733Y1648986D01*
X1821191Y1798700D02*
X1973651Y1646240D01*
X1971340Y1671178D02*
X1973596Y1668922D01*
X1964074Y1565307D02*
X1973250Y1556131D01*
X1875900Y1497918D02*
X1972518Y1401300D01*
X1937156Y1798700D02*
X1972108Y1763748D01*
X1811300Y1794448D02*
X1971882Y1633866D01*
X1860789Y1798700D02*
X1970465Y1689023D01*
X1968612Y1755930D02*
X1970250Y1754293D01*
X1968443Y1625992D02*
X1970137Y1624298D01*
X1875900Y1495089D02*
X1969689Y1401300D01*
X1849475Y1798700D02*
X1969204Y1678971D01*
X1934328Y1798700D02*
X1968877Y1764151D01*
X1811300Y1791620D02*
X1968793Y1634127D01*
X1857960Y1798700D02*
X1968089Y1688571D01*
X1963774Y1757940D02*
X1967940Y1753774D01*
X1933736Y1657871D02*
X1967871Y1623736D01*
X1846646Y1798700D02*
X1967315Y1678032D01*
X1931499Y1798700D02*
X1967061Y1763139D01*
X1811300Y1788792D02*
X1967006Y1633086D01*
X1875900Y1492261D02*
X1966861Y1401300D01*
X1855132Y1798700D02*
X1966612Y1687219D01*
X1962432Y1756454D02*
X1966454Y1752432D01*
X1932368Y1656410D02*
X1966410Y1622368D01*
X1840990Y1798700D02*
X1966272Y1673418D01*
X1843818Y1798700D02*
X1966178Y1676340D01*
X1934298Y1660137D02*
X1965992Y1628443D01*
X1852303Y1798700D02*
X1965950Y1685053D01*
X1928671Y1798700D02*
X1965944Y1761427D01*
X1964293Y1760250D02*
X1965930Y1758612D01*
X1811300Y1785963D02*
X1965916Y1631347D01*
X1963299Y1752758D02*
X1965714Y1750343D01*
X1930243Y1655707D02*
X1965707Y1620243D01*
X1875900Y1489432D02*
X1964032Y1401300D01*
X1960343Y1755714D02*
X1962758Y1753299D01*
X1875900Y1486604D02*
X1961204Y1401300D01*
X1914038Y1609686D02*
X1960290Y1563434D01*
X1948658Y1606179D02*
X1960274Y1594563D01*
X1933874Y1618134D02*
X1960274Y1591734D01*
X1932603Y1616577D02*
X1960274Y1588906D01*
X1930608Y1615743D02*
X1960274Y1586077D01*
X1878290Y1665233D02*
X1960274Y1583249D01*
X1876830Y1663865D02*
X1960274Y1580420D01*
X1874564Y1663302D02*
X1960274Y1577592D01*
X1811300Y1723738D02*
X1960274Y1574764D01*
X1811300Y1720909D02*
X1960274Y1571935D01*
X1811300Y1718081D02*
X1960274Y1569107D01*
X1811300Y1715253D02*
X1960274Y1566278D01*
X1925842Y1798700D02*
X1960250Y1764293D01*
X1914529Y1798700D02*
X1959038Y1754191D01*
X1875900Y1483775D02*
X1958376Y1401300D01*
X1923014Y1798700D02*
X1957940Y1763774D01*
X1911700Y1798700D02*
X1957166Y1753234D01*
X1920186Y1798700D02*
X1956454Y1762432D01*
X1908872Y1798700D02*
X1955998Y1751574D01*
X1939613Y1765131D02*
X1955843Y1748900D01*
X1917357Y1798700D02*
X1955714Y1760343D01*
X1875900Y1480947D02*
X1955547Y1401300D01*
X1875900Y1478119D02*
X1952719Y1401300D01*
X1909211Y1606027D02*
X1952100Y1563139D01*
X1893997Y1618414D02*
X1952100Y1560311D01*
X1892824Y1616758D02*
X1952100Y1557482D01*
X1890948Y1615806D02*
X1952100Y1554654D01*
X1887102Y1616824D02*
X1952100Y1551825D01*
X1811300Y1689797D02*
X1952100Y1548997D01*
X1811300Y1686968D02*
X1952100Y1546168D01*
X1811300Y1684140D02*
X1952100Y1543340D01*
X1811300Y1681311D02*
X1952100Y1540512D01*
X1811300Y1678483D02*
X1952100Y1537683D01*
X1811300Y1675655D02*
X1952100Y1534855D01*
X1874049Y1610077D02*
X1952100Y1532026D01*
X1873438Y1607860D02*
X1952100Y1529198D01*
X1872015Y1606454D02*
X1952100Y1526369D01*
X1871900Y1603741D02*
X1952100Y1523541D01*
X1871900Y1600913D02*
X1952100Y1520713D01*
X1871900Y1598084D02*
X1952100Y1517884D01*
X1871900Y1595256D02*
X1952100Y1515056D01*
X1871900Y1592427D02*
X1952100Y1512227D01*
X1871900Y1589599D02*
X1952100Y1509399D01*
X1871900Y1586770D02*
X1952100Y1506570D01*
X1871900Y1583942D02*
X1952100Y1503742D01*
X1871900Y1581114D02*
X1952100Y1500914D01*
X1871900Y1578285D02*
X1952100Y1498085D01*
X1871900Y1575457D02*
X1952100Y1495257D01*
X1871900Y1572628D02*
X1952100Y1492428D01*
X1871900Y1569800D02*
X1952100Y1489600D01*
X1871900Y1566971D02*
X1952100Y1486771D01*
X1871900Y1564143D02*
X1952100Y1483943D01*
X1871900Y1561315D02*
X1952100Y1481115D01*
X1871900Y1558486D02*
X1952100Y1478286D01*
X1871900Y1555658D02*
X1952100Y1475458D01*
X1871900Y1552829D02*
X1952100Y1472629D01*
X1871900Y1550001D02*
X1952100Y1469801D01*
X1871900Y1547172D02*
X1952100Y1466972D01*
X1871900Y1544344D02*
X1952100Y1464144D01*
X1871900Y1541516D02*
X1950681Y1462734D01*
X1875900Y1475290D02*
X1949890Y1401300D01*
X1871900Y1538687D02*
X1949777Y1460810D01*
X1934208Y1629114D02*
X1949328Y1613994D01*
X1933277Y1627216D02*
X1947394Y1613100D01*
X1875900Y1472462D02*
X1947062Y1401300D01*
X1931640Y1626025D02*
X1946218Y1611448D01*
X1934261Y1620576D02*
X1946179Y1608658D01*
X1875900Y1469633D02*
X1944233Y1401300D01*
X1875900Y1466805D02*
X1941405Y1401300D01*
X1934674Y1755927D02*
X1938995Y1751607D01*
X1877720Y1462156D02*
X1938577Y1401300D01*
X1906043Y1798700D02*
X1937943Y1766800D01*
X1931846Y1755927D02*
X1935973Y1751800D01*
X1878155Y1458893D02*
X1935748Y1401300D01*
X1903215Y1798700D02*
X1935115Y1766800D01*
X1929017Y1755927D02*
X1933144Y1751800D01*
X1877148Y1457071D02*
X1932920Y1401300D01*
X1838161Y1798700D02*
X1932561Y1704300D01*
X1900387Y1798700D02*
X1932287Y1766800D01*
X1929025Y1625812D02*
X1930576Y1624261D01*
X1883416Y1798700D02*
X1930316Y1751800D01*
X1811300Y1783135D02*
X1930137Y1664298D01*
X1875442Y1455949D02*
X1930091Y1401300D01*
X1835333Y1798700D02*
X1929733Y1704300D01*
X1897558Y1798700D02*
X1929458Y1766800D01*
X1811300Y1752022D02*
X1929114Y1634208D01*
X1811300Y1740708D02*
X1928134Y1623874D01*
X1811300Y1780306D02*
X1927871Y1663736D01*
X1880588Y1798700D02*
X1927488Y1751800D01*
X1872643Y1455920D02*
X1927263Y1401300D01*
X1811300Y1749194D02*
X1927216Y1633277D01*
X1832504Y1798700D02*
X1926908Y1704297D01*
X1894730Y1798700D02*
X1926755Y1766675D01*
X1811300Y1737880D02*
X1926577Y1622603D01*
X1811300Y1777478D02*
X1926410Y1662368D01*
X1811300Y1746365D02*
X1926025Y1631640D01*
X1869274Y1798700D02*
X1926013Y1741961D01*
X1891901Y1798700D02*
X1926012Y1764589D01*
X1889073Y1798700D02*
X1926012Y1761760D01*
X1886244Y1798700D02*
X1926012Y1758932D01*
X1877759Y1798700D02*
X1926012Y1750447D01*
X1874931Y1798700D02*
X1926012Y1747618D01*
X1872102Y1798700D02*
X1926012Y1744790D01*
X1811300Y1743537D02*
X1925812Y1629025D01*
X1878993Y1667358D02*
X1925743Y1620608D01*
X1811300Y1774650D02*
X1925707Y1660243D01*
X1829676Y1798700D02*
X1925700Y1702676D01*
X1826848Y1798700D02*
X1925700Y1699848D01*
X1824019Y1798700D02*
X1925700Y1697019D01*
X1811300Y1514434D02*
X1924434Y1401300D01*
X1811300Y1511606D02*
X1921606Y1401300D01*
X1811300Y1508778D02*
X1918778Y1401300D01*
X1811300Y1505949D02*
X1915949Y1401300D01*
X1811300Y1503121D02*
X1913121Y1401300D01*
X1811300Y1500292D02*
X1910292Y1401300D01*
X1894266Y1629458D02*
X1909686Y1614038D01*
X1893455Y1627440D02*
X1907619Y1613276D01*
X1811300Y1497464D02*
X1907464Y1401300D01*
X1891917Y1626151D02*
X1906338Y1611730D01*
X1894163Y1621076D02*
X1906027Y1609211D01*
X1811300Y1494635D02*
X1904635Y1401300D01*
X1811300Y1491807D02*
X1901807Y1401300D01*
X1811300Y1488979D02*
X1898979Y1401300D01*
X1811300Y1486150D02*
X1896150Y1401300D01*
X1811300Y1483322D02*
X1893322Y1401300D01*
X1889511Y1625728D02*
X1891076Y1624163D01*
X1811300Y1480493D02*
X1890493Y1401300D01*
X1811300Y1712424D02*
X1889458Y1634266D01*
X1811300Y1701110D02*
X1888414Y1623997D01*
X1811300Y1477665D02*
X1887665Y1401300D01*
X1811300Y1709596D02*
X1887440Y1633455D01*
X1811300Y1692625D02*
X1886824Y1617102D01*
X1811300Y1698282D02*
X1886758Y1622824D01*
X1811300Y1706767D02*
X1886151Y1631917D01*
X1811300Y1695454D02*
X1885806Y1620948D01*
X1811300Y1703939D02*
X1885728Y1629511D01*
X1811300Y1474836D02*
X1884836Y1401300D01*
X1811300Y1472008D02*
X1882008Y1401300D01*
X1811300Y1469180D02*
X1879180Y1401300D01*
X1811300Y1466351D02*
X1876351Y1401300D01*
X1875964Y1463913D02*
X1876156Y1463720D01*
X1811300Y1766164D02*
X1875677Y1701788D01*
X1811300Y1735052D02*
X1874458Y1671893D01*
X1811300Y1463523D02*
X1873523Y1401300D01*
X1811300Y1763336D02*
X1873061Y1701575D01*
X1811300Y1732223D02*
X1872333Y1671190D01*
X1811300Y1590802D02*
X1872100Y1530002D01*
X1811300Y1587973D02*
X1872100Y1527173D01*
X1811300Y1585145D02*
X1872100Y1524345D01*
X1811300Y1582317D02*
X1872100Y1521517D01*
X1811300Y1579488D02*
X1872100Y1518688D01*
X1811300Y1576660D02*
X1872100Y1515860D01*
X1811300Y1573831D02*
X1872100Y1513031D01*
X1811300Y1571003D02*
X1872100Y1510203D01*
X1811300Y1568174D02*
X1872100Y1507375D01*
X1811300Y1565346D02*
X1872100Y1504546D01*
X1811300Y1562518D02*
X1872100Y1501718D01*
X1811300Y1559689D02*
X1872100Y1498889D01*
X1811300Y1556861D02*
X1872100Y1496061D01*
X1811300Y1554032D02*
X1872100Y1493232D01*
X1811300Y1551204D02*
X1872100Y1490404D01*
X1811300Y1548375D02*
X1872100Y1487576D01*
X1811300Y1545547D02*
X1872100Y1484747D01*
X1811300Y1542719D02*
X1872100Y1481919D01*
X1811300Y1539890D02*
X1872100Y1479090D01*
X1811300Y1537062D02*
X1872100Y1476262D01*
X1811300Y1534233D02*
X1872100Y1473433D01*
X1811300Y1531405D02*
X1872100Y1470605D01*
X1811300Y1528577D02*
X1872100Y1467777D01*
X1811300Y1525748D02*
X1872100Y1464948D01*
X1811300Y1760507D02*
X1871423Y1700384D01*
X1811300Y1522920D02*
X1871071Y1463148D01*
X1811300Y1729395D02*
X1870965Y1669730D01*
X1811300Y1460694D02*
X1870694Y1401300D01*
X1811300Y1757679D02*
X1870492Y1698487D01*
X1811300Y1726566D02*
X1870402Y1667464D01*
X1854297Y1629830D02*
X1870077Y1614049D01*
X1811300Y1520091D02*
X1869949Y1461442D01*
X1811300Y1517263D02*
X1869920Y1458643D01*
X1811300Y1593630D02*
X1868127Y1536803D01*
X1854102Y1618710D02*
X1868100Y1604713D01*
X1853033Y1616951D02*
X1868100Y1601884D01*
X1851265Y1615890D02*
X1868100Y1599056D01*
X1848259Y1616068D02*
X1868100Y1596227D01*
X1811300Y1650199D02*
X1868100Y1593399D01*
X1811300Y1647370D02*
X1868100Y1590570D01*
X1811300Y1644542D02*
X1868100Y1587742D01*
X1811300Y1641714D02*
X1868100Y1584914D01*
X1811300Y1638885D02*
X1868100Y1582085D01*
X1811300Y1636057D02*
X1868100Y1579257D01*
X1811300Y1633228D02*
X1868100Y1576428D01*
X1811300Y1630400D02*
X1868100Y1573600D01*
X1811300Y1627571D02*
X1868100Y1570771D01*
X1811300Y1624743D02*
X1868100Y1567943D01*
X1811300Y1621915D02*
X1868100Y1565115D01*
X1811300Y1619086D02*
X1868100Y1562286D01*
X1811300Y1616258D02*
X1868100Y1559458D01*
X1811300Y1613429D02*
X1868100Y1556629D01*
X1811300Y1610601D02*
X1868100Y1553801D01*
X1811300Y1607772D02*
X1868100Y1550972D01*
X1811300Y1604944D02*
X1868100Y1548144D01*
X1811300Y1602116D02*
X1868100Y1545316D01*
X1811300Y1599287D02*
X1868100Y1542487D01*
X1811300Y1596459D02*
X1868100Y1539659D01*
X1811300Y1457866D02*
X1867866Y1401300D01*
X1853619Y1627678D02*
X1867860Y1613438D01*
X1852177Y1626292D02*
X1866475Y1611994D01*
X1853956Y1621685D02*
X1865963Y1609678D01*
X1811300Y1455037D02*
X1865037Y1401300D01*
X1811300Y1452209D02*
X1862209Y1401300D01*
X1811300Y1449381D02*
X1859381Y1401300D01*
X1811300Y1446552D02*
X1856552Y1401300D01*
X1811300Y1443724D02*
X1853724Y1401300D01*
X1849941Y1625700D02*
X1851685Y1623956D01*
X1811300Y1440895D02*
X1850895Y1401300D01*
X1811300Y1672826D02*
X1849830Y1634297D01*
X1811300Y1661513D02*
X1848710Y1624102D01*
X1811300Y1438067D02*
X1848067Y1401300D01*
X1811300Y1669998D02*
X1847678Y1633619D01*
X1811300Y1658684D02*
X1846951Y1623033D01*
X1811300Y1667169D02*
X1846292Y1632177D01*
X1811300Y1653027D02*
X1846068Y1618259D01*
X1811300Y1655856D02*
X1845890Y1621265D01*
X1811300Y1664341D02*
X1845700Y1629941D01*
X1811300Y1435238D02*
X1845238Y1401300D01*
X1811300Y1432410D02*
X1842410Y1401300D01*
X1811300Y1429582D02*
X1839582Y1401300D01*
X1811300Y1426753D02*
X1836753Y1401300D01*
X1811300Y1423925D02*
X1833925Y1401300D01*
X1811300Y1421096D02*
X1831096Y1401300D01*
X1811300Y1418268D02*
X1828268Y1401300D01*
X1811300Y1415440D02*
X1825440Y1401300D01*
X1811300Y1412611D02*
X1822611Y1401300D01*
X1811300Y1409783D02*
X1819783Y1401300D01*
X1811300Y1406954D02*
X1816954Y1401300D01*
X1811300Y1404126D02*
X1814126Y1401300D01*
X1984198Y1667380D02*
X1986326Y1665252D01*
X1810000Y1400000D02*
Y1800000D01*
X2190000*
Y1400000*
X1810000*
G54D12*
X1874000Y1460000D02*
Y1533125D01*
X1870000Y1537125*
Y1610000*
X1954000Y1460000D02*
Y1566000D01*
X1910000Y1610000*
X2034000Y1460000D02*
Y1491851D01*
X1972828Y1553023*
X2114000Y1460000D02*
Y1486000D01*
X1990000Y1610000*
X1972828Y1553023D02*
X1980046Y1560241D01*
Y1605915*
X1989006Y1614875*
X2011098*
X2014400Y1618177*
X1972828Y1553023D02*
X1962174Y1563677D01*
Y1597826*
X1950000Y1610000*
X1890000Y1620000D02*
X1930000D01*
X2001584Y1618350D02*
X2003234Y1620000D01*
X2010000*
X2001584Y1618350D02*
X1978416D01*
X1976766Y1620000*
X1970000*
X1977283Y1670453D02*
X1985733Y1674503D01*
X1992260*
X1965000Y1662500D02*
Y1695000D01*
X1982500Y1622500D02*
Y1662500D01*
X1977500Y1647500D02*
Y1663369D01*
X1985781Y1671650*
X1991719*
X1970000Y1675000D02*
X1977459D01*
X1982459Y1680000*
X1992500*
X2002500Y1670000*
X1977500D02*
X1977283Y1670453D01*
X1997500Y1622500D02*
X1990000Y1630000D01*
Y1667500*
X1970000Y1620000D02*
X1965000Y1625000D01*
Y1662500*
X2014400Y1618177D02*
Y1638264D01*
X1994150Y1658514*
Y1669219*
X1991719Y1671650*
X2040000Y1622500D02*
X1996550Y1665950D01*
Y1670213*
X1992260Y1674503*
X2060000Y1670000D02*
X2013750D01*
X1998750Y1685000*
X1970000*
X1990000Y1690000D02*
X1980000D01*
X1975000Y1695000*
X1965000*
X2015000Y1680000D02*
Y1712375D01*
X2010000Y1717375*
Y1750000*
G54D15*
X1850000Y1620000D03*
Y1630000D03*
X1890000Y1620000D03*
Y1630000D03*
X1930000Y1620000D03*
Y1630000D03*
X1970000Y1620000D03*
Y1630000D03*
X2010000Y1620000D03*
Y1630000D03*
X2050000Y1620000D03*
Y1630000D03*
X2090000Y1620000D03*
Y1630000D03*
X2130000Y1620000D03*
Y1630000D03*
X1874700Y1697600D03*
Y1667600D03*
X2020000Y1750000D03*
X2010000Y1760000D03*
Y1750000D03*
X2000000Y1760000D03*
Y1750000D03*
X1990000Y1760000D03*
Y1750000D03*
X1980000Y1760000D03*
Y1750000D03*
X1970000Y1760000D03*
Y1750000D03*
X1960000Y1760000D03*
Y1750000D03*
X1930000Y1660000D03*
X2060000Y1690000D03*
X2070000Y1680000D03*
X2060000Y1670000D03*
G54D17*
X2020000Y1760000D03*
X1930000Y1700000D03*
G54D19*
G54D20*
X1910000Y1610000D03*
X1870000D03*
X1965000Y1662500D03*
X1982500D03*
Y1622500D03*
X1990000Y1610000D03*
X1977500Y1647500D03*
X1950000Y1610000D03*
X1970000Y1675000D03*
X2002500Y1670000D03*
X1977500D03*
X1997500Y1622500D03*
X1990000Y1667500D03*
X2040000Y1622500D03*
X1965000Y1695000D03*
X1990000Y1690000D03*
X1970000Y1685000D03*
X2015000Y1680000D03*
G74*
X0Y0D02*
M02*
