*
*
G04 PADS 9.2 Build Number: 406656 generated Gerber (RS-274-X) file*
G04 PC Version=2.1*
*
%IN "Yosun-Semtech_SX9513-20"*%
*
%MOIN*%
*
%FSLAX35Y35*%
*
*
*
*
G04 PC Standard Apertures*
*
*
G04 Thermal Relief Aperture macro.*
%AMTER*
1,1,$1,0,0*
1,0,$1-$2,0,0*
21,0,$3,$4,0,0,45*
21,0,$3,$4,0,0,135*
%
*
*
G04 Annular Aperture macro.*
%AMANN*
1,1,$1,0,0*
1,0,$2,0,0*
%
*
*
G04 Odd Aperture macro.*
%AMODD*
1,1,$1,0,0*
1,0,$1-0.005,0,0*
%
*
*
G04 PC Custom Aperture Macros*
*
*
*
*
*
*
G04 PC Aperture Table*
*
%ADD011C,0.01*%
%ADD019C,0.001*%
*
*
*
*
G04 PC Circuitry*
G04 Layer Name Yosun-Semtech_SX9513-20 - circuitry*
%LPD*%
*
*
G04 PC Custom Flashes*
G04 Layer Name Yosun-Semtech_SX9513-20 - flashes*
%LPD*%
*
*
G04 PC Circuitry*
G04 Layer Name Yosun-Semtech_SX9513-20 - circuitry*
%LPD*%
*
G54D11*
G01X1846000Y1601875D02*
X1854000D01*
X1850000Y1597875D02*
Y1605875D01*
X1846000Y1611875D02*
X1854000D01*
X1850000Y1607875D02*
Y1615875D01*
X1886000Y1601875D02*
X1894000D01*
X1890000Y1597875D02*
Y1605875D01*
X1886000Y1611875D02*
X1894000D01*
X1890000Y1607875D02*
Y1615875D01*
X1926000Y1601875D02*
X1934000D01*
X1930000Y1597875D02*
Y1605875D01*
X1926000Y1611875D02*
X1934000D01*
X1930000Y1607875D02*
Y1615875D01*
X1870000Y1437875D02*
X1878000Y1445875D01*
X1870000D02*
X1878000Y1437875D01*
X1950000D02*
X1958000Y1445875D01*
X1950000D02*
X1958000Y1437875D01*
X2030000D02*
X2038000Y1445875D01*
X2030000D02*
X2038000Y1437875D01*
X2110000D02*
X2118000Y1445875D01*
X2110000D02*
X2118000Y1437875D01*
X1966000Y1601875D02*
X1974000D01*
X1970000Y1597875D02*
Y1605875D01*
X1966000Y1611875D02*
X1974000D01*
X1970000Y1607875D02*
Y1615875D01*
X2006000Y1601875D02*
X2014000D01*
X2010000Y1597875D02*
Y1605875D01*
X2006000Y1611875D02*
X2014000D01*
X2010000Y1607875D02*
Y1615875D01*
X2046000Y1601875D02*
X2054000D01*
X2050000Y1597875D02*
Y1605875D01*
X2046000Y1611875D02*
X2054000D01*
X2050000Y1607875D02*
Y1615875D01*
X2086000Y1601875D02*
X2094000D01*
X2090000Y1597875D02*
Y1605875D01*
X2086000Y1611875D02*
X2094000D01*
X2090000Y1607875D02*
Y1615875D01*
X2126000Y1601875D02*
X2134000D01*
X2130000Y1597875D02*
Y1605875D01*
X2126000Y1611875D02*
X2134000D01*
X2130000Y1607875D02*
Y1615875D01*
X1870700Y1675475D02*
X1878700Y1683475D01*
X1870700D02*
X1878700Y1675475D01*
X1870700Y1645475D02*
X1878700Y1653475D01*
X1870700D02*
X1878700Y1645475D01*
X2016000Y1737875D02*
X2024000D01*
Y1745875*
X2016000*
Y1737875*
X2020000Y1741875D02*
Y1745875D01*
X2016000Y1727875D02*
X2024000D01*
Y1735875*
X2016000*
Y1727875*
X2020000Y1731875D02*
Y1735875D01*
X2006000Y1737875D02*
X2014000D01*
Y1745875*
X2006000*
Y1737875*
X2010000Y1741875D02*
Y1745875D01*
X2006000Y1727875D02*
X2014000D01*
Y1735875*
X2006000*
Y1727875*
X2010000Y1731875D02*
Y1735875D01*
X1996000Y1737875D02*
X2004000D01*
Y1745875*
X1996000*
Y1737875*
X2000000Y1741875D02*
Y1745875D01*
X1996000Y1727875D02*
X2004000D01*
Y1735875*
X1996000*
Y1727875*
X2000000Y1731875D02*
Y1735875D01*
X1986000Y1737875D02*
X1994000D01*
Y1745875*
X1986000*
Y1737875*
X1990000Y1741875D02*
Y1745875D01*
X1986000Y1727875D02*
X1994000D01*
Y1735875*
X1986000*
Y1727875*
X1990000Y1731875D02*
Y1735875D01*
X1976000Y1737875D02*
X1984000D01*
Y1745875*
X1976000*
Y1737875*
X1980000Y1741875D02*
Y1745875D01*
X1976000Y1727875D02*
X1984000D01*
Y1735875*
X1976000*
Y1727875*
X1980000Y1731875D02*
Y1735875D01*
X1966000Y1737875D02*
X1974000D01*
Y1745875*
X1966000*
Y1737875*
X1970000Y1741875D02*
Y1745875D01*
X1966000Y1727875D02*
X1974000D01*
Y1735875*
X1966000*
Y1727875*
X1970000Y1731875D02*
Y1735875D01*
X1956000Y1737875D02*
X1964000D01*
Y1745875*
X1956000*
Y1737875*
X1960000Y1741875D02*
Y1745875D01*
X1956000Y1727875D02*
X1964000D01*
Y1735875*
X1956000*
Y1727875*
X1960000Y1731875D02*
Y1735875D01*
X1926000Y1681875D02*
X1934000D01*
X1930000Y1677875D02*
Y1685875D01*
X1926000Y1641875D02*
X1934000D01*
X1930000Y1637875D02*
Y1645875D01*
X2056000Y1671875D02*
X2064000D01*
X2060000Y1667875D02*
Y1675875D01*
X2066000Y1661875D02*
X2074000D01*
X2070000Y1657875D02*
Y1665875D01*
X2056000Y1651875D02*
X2064000D01*
X2060000Y1647875D02*
Y1655875D01*
X1996000Y1521875D02*
X2004000D01*
X2000000Y1517875D02*
Y1525875D01*
X1906000Y1587875D02*
X1914000D01*
Y1595875*
X1906000*
Y1587875*
X1910000Y1591875D02*
Y1595875D01*
X1866000Y1587875D02*
X1874000D01*
Y1595875*
X1866000*
Y1587875*
X1870000Y1591875D02*
Y1595875D01*
X1961000Y1640375D02*
X1969000D01*
Y1648375*
X1961000*
Y1640375*
X1965000Y1644375D02*
Y1648375D01*
X1978500Y1640375D02*
X1986500D01*
Y1648375*
X1978500*
Y1640375*
X1982500Y1644375D02*
Y1648375D01*
X1978500Y1600375D02*
X1986500D01*
Y1608375*
X1978500*
Y1600375*
X1982500Y1604375D02*
Y1608375D01*
X1986000Y1587875D02*
X1994000D01*
Y1595875*
X1986000*
Y1587875*
X1990000Y1591875D02*
Y1595875D01*
X1973500Y1625375D02*
X1981500D01*
Y1633375*
X1973500*
Y1625375*
X1977500Y1629375D02*
Y1633375D01*
X1946000Y1587875D02*
X1954000D01*
Y1595875*
X1946000*
Y1587875*
X1950000Y1591875D02*
Y1595875D01*
X1966000Y1652875D02*
X1974000D01*
Y1660875*
X1966000*
Y1652875*
X1970000Y1656875D02*
Y1660875D01*
X1998500Y1647875D02*
X2006500D01*
Y1655875*
X1998500*
Y1647875*
X2002500Y1651875D02*
Y1655875D01*
X1973500Y1647875D02*
X1981500D01*
Y1655875*
X1973500*
Y1647875*
X1977500Y1651875D02*
Y1655875D01*
X1993500Y1600375D02*
X2001500D01*
Y1608375*
X1993500*
Y1600375*
X1997500Y1604375D02*
Y1608375D01*
X1986000Y1645375D02*
X1994000D01*
Y1653375*
X1986000*
Y1645375*
X1990000Y1649375D02*
Y1653375D01*
X2036000Y1600375D02*
X2044000D01*
Y1608375*
X2036000*
Y1600375*
X2040000Y1604375D02*
Y1608375D01*
X1961000Y1672875D02*
X1969000D01*
Y1680875*
X1961000*
Y1672875*
X1965000Y1676875D02*
Y1680875D01*
X1986000Y1667875D02*
X1994000D01*
Y1675875*
X1986000*
Y1667875*
X1990000Y1671875D02*
Y1675875D01*
X1966000Y1662875D02*
X1974000D01*
Y1670875*
X1966000*
Y1662875*
X1970000Y1666875D02*
Y1670875D01*
X2011000Y1657875D02*
X2019000D01*
Y1665875*
X2011000*
Y1657875*
X2015000Y1661875D02*
Y1665875D01*
X1810000Y1381875D02*
Y1781875D01*
X2190000*
Y1381875*
X1810000*
X2190000Y1811875D02*
X2018455D01*
X2190000D02*
X2180000Y1809375D01*
Y1814375*
X2190000Y1811875*
X1810000D02*
X1981545D01*
X1810000D02*
X1820000Y1814375D01*
Y1809375*
X1810000Y1811875*
X2190000Y1786875D02*
Y1816875D01*
X1810000Y1786875D02*
Y1816875D01*
X1987500Y1812500D02*
X1987273Y1811563D01*
X1987273D02*
X1986818Y1810938D01*
X1986818D02*
X1986136Y1810625D01*
X1985909*
X1985227Y1810938*
X1985227D02*
X1984773Y1811563D01*
X1984773D02*
X1984545Y1812500D01*
Y1812813*
X1984545D02*
X1984773Y1813750D01*
X1985227Y1814375*
X1985909Y1814688*
X1985909D02*
X1986136D01*
X1986136D02*
X1986818Y1814375D01*
X1987273Y1813750*
X1987500Y1812500*
Y1810938*
X1987500D02*
X1987273Y1809375D01*
X1986818Y1808438*
X1986818D02*
X1986136Y1808125D01*
X1985682*
X1985000Y1808438*
X1985000D02*
X1984773Y1809063D01*
X1992273Y1813750D02*
X1992045Y1814375D01*
X1991364Y1814688*
X1991364D02*
X1990909D01*
X1990909D02*
X1990227Y1814375D01*
X1989773Y1813438*
X1989773D02*
X1989545Y1811875D01*
Y1810313*
X1989545D02*
X1989773Y1809063D01*
X1989773D02*
X1990227Y1808438D01*
X1990227D02*
X1990909Y1808125D01*
X1991136*
X1991818Y1808438*
X1991818D02*
X1992273Y1809063D01*
X1992273D02*
X1992500Y1810000D01*
Y1810313*
X1992500D02*
X1992273Y1811250D01*
X1991818Y1811875*
X1991136Y1812188*
X1991136D02*
X1990909D01*
X1990909D02*
X1990227Y1811875D01*
X1989773Y1811250*
X1989545Y1810313*
X1994773Y1808750D02*
X1994545Y1808438D01*
X1994545D02*
X1994773Y1808125D01*
X1995000Y1808438*
X1995000D02*
X1994773Y1808750D01*
X2000000Y1814688D02*
X1997727D01*
X1997727D02*
X1997500Y1811875D01*
X1997727Y1812188*
X1997727D02*
X1998409Y1812500D01*
X1999091*
X1999773Y1812188*
X1999773D02*
X2000227Y1811563D01*
X2000227D02*
X2000455Y1810625D01*
X2000227Y1810000*
X2000000Y1809063*
X2000000D02*
X1999545Y1808438D01*
X1999545D02*
X1998864Y1808125D01*
X1998182*
X1997500Y1808438*
X1997500D02*
X1997273Y1808750D01*
X1997045Y1809375*
X2002500Y1812500D02*
Y1808125D01*
Y1811250D02*
X2003182Y1812188D01*
X2003182D02*
X2003636Y1812500D01*
X2004318*
X2004773Y1812188*
X2004773D02*
X2005000Y1811250D01*
Y1808125*
Y1811250D02*
X2005682Y1812188D01*
X2005682D02*
X2006136Y1812500D01*
X2006818*
X2007273Y1812188*
X2007273D02*
X2007500Y1811250D01*
Y1808125*
X2009545Y1812500D02*
Y1808125D01*
Y1811250D02*
X2010227Y1812188D01*
X2010227D02*
X2010682Y1812500D01*
X2011364*
X2011818Y1812188*
X2011818D02*
X2012045Y1811250D01*
Y1808125*
Y1811250D02*
X2012727Y1812188D01*
X2012727D02*
X2013182Y1812500D01*
X2013864*
X2014318Y1812188*
X2014318D02*
X2014545Y1811250D01*
Y1808125*
X1810000Y1477875D02*
X2068000D01*
X1810000Y1453875D02*
X2068000D01*
X1810000Y1429875D02*
X2068000D01*
X1810000Y1405875D02*
X2068000D01*
X1810000Y1381875D02*
X2068000D01*
X1810000Y1477875D02*
Y1381875D01*
X1894000Y1477875D02*
Y1381875D01*
X1930000Y1477875D02*
Y1381875D01*
X1966000Y1477875D02*
Y1381875D01*
X2020000Y1477875D02*
Y1381875D01*
X2068000Y1477875D02*
Y1381875D01*
X1845500Y1466625D02*
X1844955Y1467375D01*
X1844136Y1467750*
X1843045*
X1842227Y1467375*
X1841682Y1466625*
Y1465875*
X1841955Y1465125*
X1842227Y1464750*
X1842773Y1464375*
X1844409Y1463625*
X1844955Y1463250*
X1845227Y1462875*
X1845500Y1462125*
Y1461000*
X1844955Y1460250*
X1844136Y1459875*
X1843045*
X1842227Y1460250*
X1841682Y1461000*
X1847955Y1467750D02*
Y1459875D01*
X1854227Y1467750D02*
X1850409Y1459875D01*
Y1467750D02*
X1854227D01*
X1850409Y1459875D02*
X1854227D01*
X1856682Y1467750D02*
Y1459875D01*
Y1467750D02*
X1860227D01*
X1856682Y1464000D02*
X1858864D01*
X1856682Y1459875D02*
X1860227D01*
X1903864Y1467750D02*
X1903318Y1467375D01*
X1902773Y1466625*
X1902500Y1465875*
X1902227Y1464750*
Y1462875*
X1902500Y1461750*
X1902773Y1461000*
X1903318Y1460250*
X1903864Y1459875*
X1904955*
X1905500Y1460250*
X1906045Y1461000*
X1906318Y1461750*
X1906591Y1462875*
Y1464750*
X1906318Y1465875*
X1906045Y1466625*
X1905500Y1467375*
X1904955Y1467750*
X1903864*
X1904682Y1461375D02*
X1906318Y1459125D01*
X1910955Y1467750D02*
Y1459875D01*
X1909045Y1467750D02*
X1912864D01*
X1915318D02*
X1917500Y1464000D01*
Y1459875*
X1919682Y1467750D02*
X1917500Y1464000D01*
X1942045Y1466625D02*
X1941500Y1467375D01*
X1940682Y1467750*
X1939591*
X1938773Y1467375*
X1938227Y1466625*
Y1465875*
X1938500Y1465125*
X1938773Y1464750*
X1939318Y1464375*
X1940955Y1463625*
X1941500Y1463250*
X1941773Y1462875*
X1942045Y1462125*
Y1461000*
X1941500Y1460250*
X1940682Y1459875*
X1939591*
X1938773Y1460250*
X1938227Y1461000*
X1944500Y1467750D02*
X1946682Y1464000D01*
Y1459875*
X1948864Y1467750D02*
X1946682Y1464000D01*
X1951318Y1467750D02*
Y1459875D01*
Y1467750D02*
X1953500Y1459875D01*
X1955682Y1467750D02*
X1953500Y1459875D01*
X1955682Y1467750D02*
Y1459875D01*
X1977500Y1467750D02*
Y1459875D01*
Y1467750D02*
X1979955D01*
X1980773Y1467375*
X1981045Y1467000*
X1981318Y1466250*
Y1465125*
X1981045Y1464375*
X1980773Y1464000*
X1979955Y1463625*
X1977500*
X1983773Y1467750D02*
Y1459875D01*
X1987045*
X1991682Y1467750D02*
X1989500Y1459875D01*
X1991682Y1467750D02*
X1993864Y1459875D01*
X1990318Y1462500D02*
X1993045D01*
X1998227Y1467750D02*
Y1459875D01*
X1996318Y1467750D02*
X2000136D01*
X2002591D02*
Y1459875D01*
Y1467750D02*
X2006136D01*
X2002591Y1464000D02*
X2004773D01*
X2002591Y1459875D02*
X2006136D01*
X2008591Y1467750D02*
Y1459875D01*
Y1467750D02*
X2010500D01*
X2011318Y1467375*
X2011864Y1466625*
X2012136Y1465875*
X2012409Y1464750*
Y1462875*
X2012136Y1461750*
X2011864Y1461000*
X2011318Y1460250*
X2010500Y1459875*
X2008591*
X2036682Y1467750D02*
Y1459875D01*
X2034773Y1467750D02*
X2038591D01*
X2042682D02*
X2042136Y1467375D01*
X2041591Y1466625*
X2041318Y1465875*
X2041045Y1464750*
Y1462875*
X2041318Y1461750*
X2041591Y1461000*
X2042136Y1460250*
X2042682Y1459875*
X2043773*
X2044318Y1460250*
X2044864Y1461000*
X2045136Y1461750*
X2045409Y1462875*
Y1464750*
X2045136Y1465875*
X2044864Y1466625*
X2044318Y1467375*
X2043773Y1467750*
X2042682*
X2047864D02*
Y1459875D01*
X2051136*
X1817636Y1443750D02*
X1816818Y1443375D01*
X1816273Y1442250*
X1816000Y1440375*
Y1439250*
X1816273Y1437375*
X1816818Y1436250*
X1817636Y1435875*
X1818182*
X1819000Y1436250*
X1819545Y1437375*
X1819818Y1439250*
Y1440375*
X1819545Y1442250*
X1819000Y1443375*
X1818182Y1443750*
X1817636*
X1822545Y1436625D02*
X1822273Y1436250D01*
X1822545Y1435875*
X1822818Y1436250*
X1822545Y1436625*
X1826636Y1443750D02*
X1825818Y1443375D01*
X1825545Y1442625*
Y1441875*
X1825818Y1441125*
X1826364Y1440750*
X1827455Y1440375*
X1828273Y1440000*
X1828818Y1439250*
X1829091Y1438500*
Y1437375*
X1828818Y1436625*
X1828545Y1436250*
X1827727Y1435875*
X1826636*
X1825818Y1436250*
X1825545Y1436625*
X1825273Y1437375*
Y1438500*
X1825545Y1439250*
X1826091Y1440000*
X1826909Y1440375*
X1828000Y1440750*
X1828545Y1441125*
X1828818Y1441875*
Y1442625*
X1828545Y1443375*
X1827727Y1443750*
X1826636*
X1832909D02*
X1832091Y1443375D01*
X1831818Y1442625*
Y1441875*
X1832091Y1441125*
X1832636Y1440750*
X1833727Y1440375*
X1834545Y1440000*
X1835091Y1439250*
X1835364Y1438500*
Y1437375*
X1835091Y1436625*
X1834818Y1436250*
X1834000Y1435875*
X1832909*
X1832091Y1436250*
X1831818Y1436625*
X1831545Y1437375*
Y1438500*
X1831818Y1439250*
X1832364Y1440000*
X1833182Y1440375*
X1834273Y1440750*
X1834818Y1441125*
X1835091Y1441875*
Y1442625*
X1834818Y1443375*
X1834000Y1443750*
X1832909*
X1841364Y1441125D02*
X1841091Y1440000D01*
X1840545Y1439250*
X1839727Y1438875*
X1839455*
X1838636Y1439250*
X1838091Y1440000*
X1837818Y1441125*
Y1441500*
X1838091Y1442625*
X1838636Y1443375*
X1839455Y1443750*
X1839727*
X1840545Y1443375*
X1841091Y1442625*
X1841364Y1441125*
Y1439250*
X1841091Y1437375*
X1840545Y1436250*
X1839727Y1435875*
X1839182*
X1838364Y1436250*
X1838091Y1437000*
X1906182Y1441875D02*
Y1442250D01*
X1906455Y1443000*
X1906727Y1443375*
X1907273Y1443750*
X1908364*
X1908909Y1443375*
X1909182Y1443000*
X1909455Y1442250*
Y1441500*
X1909182Y1440750*
X1908636Y1439625*
X1905909Y1435875*
X1909727*
X1912455Y1441875D02*
Y1442250D01*
X1912727Y1443000*
X1913000Y1443375*
X1913545Y1443750*
X1914636*
X1915182Y1443375*
X1915455Y1443000*
X1915727Y1442250*
Y1441500*
X1915455Y1440750*
X1914909Y1439625*
X1912182Y1435875*
X1916000*
X1942000Y1441875D02*
X1954000D01*
X1948000Y1435875D02*
Y1447875D01*
X1974636Y1443750D02*
X1976818Y1440000D01*
Y1435875*
X1979000Y1443750D02*
X1976818Y1440000D01*
X1981455Y1443750D02*
Y1435875D01*
Y1443750D02*
X1985000D01*
X1981455Y1440000D02*
X1983636D01*
X1981455Y1435875D02*
X1985000D01*
X1991273Y1442625D02*
X1990727Y1443375D01*
X1989909Y1443750*
X1988818*
X1988000Y1443375*
X1987455Y1442625*
Y1441875*
X1987727Y1441125*
X1988000Y1440750*
X1988545Y1440375*
X1990182Y1439625*
X1990727Y1439250*
X1991000Y1438875*
X1991273Y1438125*
Y1437000*
X1990727Y1436250*
X1989909Y1435875*
X1988818*
X1988000Y1436250*
X1987455Y1437000*
X2027818Y1442625D02*
Y1435875D01*
X2025364Y1439250D02*
X2030273D01*
X2037636Y1445250D02*
X2032727Y1433250D01*
X2040091Y1439250D02*
X2045000D01*
X2049091Y1443750D02*
X2048273Y1443375D01*
X2047727Y1442250*
X2047455Y1440375*
Y1439250*
X2047727Y1437375*
X2048273Y1436250*
X2049091Y1435875*
X2049636*
X2050455Y1436250*
X2051000Y1437375*
X2051273Y1439250*
Y1440375*
X2051000Y1442250*
X2050455Y1443375*
X2049636Y1443750*
X2049091*
X2054000Y1436625D02*
X2053727Y1436250D01*
X2054000Y1435875*
X2054273Y1436250*
X2054000Y1436625*
X2058364Y1443750D02*
X2057545Y1443375D01*
X2057000Y1442250*
X2056727Y1440375*
Y1439250*
X2057000Y1437375*
X2057545Y1436250*
X2058364Y1435875*
X2058909*
X2059727Y1436250*
X2060273Y1437375*
X2060545Y1439250*
Y1440375*
X2060273Y1442250*
X2059727Y1443375*
X2058909Y1443750*
X2058364*
X1817636Y1419750D02*
X1816818Y1419375D01*
X1816273Y1418250*
X1816000Y1416375*
Y1415250*
X1816273Y1413375*
X1816818Y1412250*
X1817636Y1411875*
X1818182*
X1819000Y1412250*
X1819545Y1413375*
X1819818Y1415250*
Y1416375*
X1819545Y1418250*
X1819000Y1419375*
X1818182Y1419750*
X1817636*
X1822545Y1412625D02*
X1822273Y1412250D01*
X1822545Y1411875*
X1822818Y1412250*
X1822545Y1412625*
X1829091Y1419750D02*
X1826364Y1411875D01*
X1825273Y1419750D02*
X1829091D01*
X1834818Y1418625D02*
X1834545Y1419375D01*
X1833727Y1419750*
X1833182*
X1832364Y1419375*
X1831818Y1418250*
X1831545Y1416375*
Y1414500*
X1831818Y1413000*
X1832364Y1412250*
X1833182Y1411875*
X1833455*
X1834273Y1412250*
X1834818Y1413000*
X1835091Y1414125*
Y1414500*
X1834818Y1415625*
X1834273Y1416375*
X1833455Y1416750*
X1833182*
X1832364Y1416375*
X1831818Y1415625*
X1831545Y1414500*
X1837818Y1417875D02*
Y1418250D01*
X1838091Y1419000*
X1838364Y1419375*
X1838909Y1419750*
X1840000*
X1840545Y1419375*
X1840818Y1419000*
X1841091Y1418250*
Y1417500*
X1840818Y1416750*
X1840273Y1415625*
X1837545Y1411875*
X1841364*
X1912455Y1418625D02*
X1912182Y1419375D01*
X1911364Y1419750*
X1910818*
X1910000Y1419375*
X1909455Y1418250*
X1909182Y1416375*
Y1414500*
X1909455Y1413000*
X1910000Y1412250*
X1910818Y1411875*
X1911091*
X1911909Y1412250*
X1912455Y1413000*
X1912727Y1414125*
Y1414500*
X1912455Y1415625*
X1911909Y1416375*
X1911091Y1416750*
X1910818*
X1910000Y1416375*
X1909455Y1415625*
X1909182Y1414500*
X1942000Y1411875D02*
X1954000Y1423875D01*
X1942000D02*
X1954000Y1411875D01*
X1974636Y1419750D02*
X1976818Y1416000D01*
Y1411875*
X1979000Y1419750D02*
X1976818Y1416000D01*
X1981455Y1419750D02*
Y1411875D01*
Y1419750D02*
X1985000D01*
X1981455Y1416000D02*
X1983636D01*
X1981455Y1411875D02*
X1985000D01*
X1991273Y1418625D02*
X1990727Y1419375D01*
X1989909Y1419750*
X1988818*
X1988000Y1419375*
X1987455Y1418625*
Y1417875*
X1987727Y1417125*
X1988000Y1416750*
X1988545Y1416375*
X1990182Y1415625*
X1990727Y1415250*
X1991000Y1414875*
X1991273Y1414125*
Y1413000*
X1990727Y1412250*
X1989909Y1411875*
X1988818*
X1988000Y1412250*
X1987455Y1413000*
X2027818Y1418625D02*
Y1411875D01*
X2025364Y1415250D02*
X2030273D01*
X2037636Y1421250D02*
X2032727Y1409250D01*
X2040091Y1415250D02*
X2045000D01*
X2049091Y1419750D02*
X2048273Y1419375D01*
X2047727Y1418250*
X2047455Y1416375*
Y1415250*
X2047727Y1413375*
X2048273Y1412250*
X2049091Y1411875*
X2049636*
X2050455Y1412250*
X2051000Y1413375*
X2051273Y1415250*
Y1416375*
X2051000Y1418250*
X2050455Y1419375*
X2049636Y1419750*
X2049091*
X2054000Y1412625D02*
X2053727Y1412250D01*
X2054000Y1411875*
X2054273Y1412250*
X2054000Y1412625*
X2058364Y1419750D02*
X2057545Y1419375D01*
X2057000Y1418250*
X2056727Y1416375*
Y1415250*
X2057000Y1413375*
X2057545Y1412250*
X2058364Y1411875*
X2058909*
X2059727Y1412250*
X2060273Y1413375*
X2060545Y1415250*
Y1416375*
X2060273Y1418250*
X2059727Y1419375*
X2058909Y1419750*
X2058364*
X1817636Y1395750D02*
X1816818Y1395375D01*
X1816273Y1394250*
X1816000Y1392375*
Y1391250*
X1816273Y1389375*
X1816818Y1388250*
X1817636Y1387875*
X1818182*
X1819000Y1388250*
X1819545Y1389375*
X1819818Y1391250*
Y1392375*
X1819545Y1394250*
X1819000Y1395375*
X1818182Y1395750*
X1817636*
X1822545Y1388625D02*
X1822273Y1388250D01*
X1822545Y1387875*
X1822818Y1388250*
X1822545Y1388625*
X1828818Y1393125D02*
X1828545Y1392000D01*
X1828000Y1391250*
X1827182Y1390875*
X1826909*
X1826091Y1391250*
X1825545Y1392000*
X1825273Y1393125*
Y1393500*
X1825545Y1394625*
X1826091Y1395375*
X1826909Y1395750*
X1827182*
X1828000Y1395375*
X1828545Y1394625*
X1828818Y1393125*
Y1391250*
X1828545Y1389375*
X1828000Y1388250*
X1827182Y1387875*
X1826636*
X1825818Y1388250*
X1825545Y1389000*
X1831818Y1395750D02*
X1834818D01*
X1833182Y1392750*
X1834000*
X1834545Y1392375*
X1834818Y1392000*
X1835091Y1390875*
Y1390125*
X1834818Y1389000*
X1834273Y1388250*
X1833455Y1387875*
X1832636*
X1831818Y1388250*
X1831545Y1388625*
X1831273Y1389375*
X1841091Y1393125D02*
X1840818Y1392000D01*
X1840273Y1391250*
X1839455Y1390875*
X1839182*
X1838364Y1391250*
X1837818Y1392000*
X1837545Y1393125*
Y1393500*
X1837818Y1394625*
X1838364Y1395375*
X1839182Y1395750*
X1839455*
X1840273Y1395375*
X1840818Y1394625*
X1841091Y1393125*
Y1391250*
X1840818Y1389375*
X1840273Y1388250*
X1839455Y1387875*
X1838909*
X1838091Y1388250*
X1837818Y1389000*
X1844909Y1395750D02*
X1844091Y1395375D01*
X1843818Y1394625*
Y1393875*
X1844091Y1393125*
X1844636Y1392750*
X1845727Y1392375*
X1846545Y1392000*
X1847091Y1391250*
X1847364Y1390500*
Y1389375*
X1847091Y1388625*
X1846818Y1388250*
X1846000Y1387875*
X1844909*
X1844091Y1388250*
X1843818Y1388625*
X1843545Y1389375*
Y1390500*
X1843818Y1391250*
X1844364Y1392000*
X1845182Y1392375*
X1846273Y1392750*
X1846818Y1393125*
X1847091Y1393875*
Y1394625*
X1846818Y1395375*
X1846000Y1395750*
X1844909*
X1906455D02*
X1909455D01*
X1907818Y1392750*
X1908636*
X1909182Y1392375*
X1909455Y1392000*
X1909727Y1390875*
Y1390125*
X1909455Y1389000*
X1908909Y1388250*
X1908091Y1387875*
X1907273*
X1906455Y1388250*
X1906182Y1388625*
X1905909Y1389375*
X1912455Y1393875D02*
Y1394250D01*
X1912727Y1395000*
X1913000Y1395375*
X1913545Y1395750*
X1914636*
X1915182Y1395375*
X1915455Y1395000*
X1915727Y1394250*
Y1393500*
X1915455Y1392750*
X1914909Y1391625*
X1912182Y1387875*
X1916000*
X1942000D02*
X1954000D01*
Y1399875*
X1942000*
Y1387875*
X1948000Y1393875D02*
Y1399875D01*
X1974636Y1395750D02*
X1976818Y1392000D01*
Y1387875*
X1979000Y1395750D02*
X1976818Y1392000D01*
X1981455Y1395750D02*
Y1387875D01*
Y1395750D02*
X1985000D01*
X1981455Y1392000D02*
X1983636D01*
X1981455Y1387875D02*
X1985000D01*
X1991273Y1394625D02*
X1990727Y1395375D01*
X1989909Y1395750*
X1988818*
X1988000Y1395375*
X1987455Y1394625*
Y1393875*
X1987727Y1393125*
X1988000Y1392750*
X1988545Y1392375*
X1990182Y1391625*
X1990727Y1391250*
X1991000Y1390875*
X1991273Y1390125*
Y1389000*
X1990727Y1388250*
X1989909Y1387875*
X1988818*
X1988000Y1388250*
X1987455Y1389000*
X2027818Y1394625D02*
Y1387875D01*
X2025364Y1391250D02*
X2030273D01*
X2037636Y1397250D02*
X2032727Y1385250D01*
X2040091Y1391250D02*
X2045000D01*
X2049091Y1395750D02*
X2048273Y1395375D01*
X2047727Y1394250*
X2047455Y1392375*
Y1391250*
X2047727Y1389375*
X2048273Y1388250*
X2049091Y1387875*
X2049636*
X2050455Y1388250*
X2051000Y1389375*
X2051273Y1391250*
Y1392375*
X2051000Y1394250*
X2050455Y1395375*
X2049636Y1395750*
X2049091*
X2054000Y1388625D02*
X2053727Y1388250D01*
X2054000Y1387875*
X2054273Y1388250*
X2054000Y1388625*
X2058364Y1395750D02*
X2057545Y1395375D01*
X2057000Y1394250*
X2056727Y1392375*
Y1391250*
X2057000Y1389375*
X2057545Y1388250*
X2058364Y1387875*
X2058909*
X2059727Y1388250*
X2060273Y1389375*
X2060545Y1391250*
Y1392375*
X2060273Y1394250*
X2059727Y1395375*
X2058909Y1395750*
X2058364*
G54D19*
X2140000Y1761875D02*
Y1762631D01*
Y1763387*
Y1764143*
X2140756Y1761875D02*
Y1762631D01*
Y1763387*
Y1764143*
X2141512Y1761875D02*
Y1762631D01*
Y1763387*
Y1764143*
X2142268Y1761875D02*
Y1762631D01*
Y1763387*
Y1764143*
X2143024Y1761875D02*
Y1762631D01*
Y1763387*
Y1764143*
X2143780Y1761875D02*
Y1762631D01*
Y1763387*
Y1764143*
X2144535Y1761875D02*
Y1762631D01*
Y1763387*
Y1764143*
X2145291Y1761875D02*
Y1762631D01*
Y1763387*
Y1764143*
X2146047Y1761875D02*
Y1762631D01*
Y1763387*
Y1764143*
X2133197Y1761119D02*
Y1761875D01*
Y1762631*
Y1763387*
X2133953Y1761119D02*
Y1761875D01*
Y1762631*
Y1763387*
X2134709Y1761119D02*
Y1761875D01*
Y1762631*
Y1763387*
X2135465Y1761119D02*
Y1761875D01*
Y1762631*
Y1763387*
X2136976Y1761119D02*
Y1761875D01*
Y1762631*
Y1763387*
Y1764143*
X2137732Y1761119D02*
Y1761875D01*
Y1762631*
Y1763387*
Y1764143*
X2138488Y1761119D02*
Y1761875D01*
Y1762631*
Y1763387*
Y1764143*
X2147559Y1761119D02*
Y1761875D01*
Y1762631*
Y1763387*
Y1764143*
X2148315Y1761119D02*
Y1761875D01*
X2147559*
X2146803*
Y1762631*
Y1763387*
Y1764143*
X2149071Y1761119D02*
Y1761875D01*
Y1762631*
Y1763387*
X2149827Y1761119D02*
Y1761875D01*
Y1762631*
Y1763387*
X2150583Y1761119D02*
Y1761875D01*
Y1762631*
Y1763387*
X2151339Y1761119D02*
Y1761875D01*
Y1762631*
Y1763387*
X2129417Y1760363D02*
X2130173D01*
X2130929*
X2131685*
Y1761119*
X2132441*
X2133197*
X2133953*
X2134709*
X2135465*
X2136220*
X2136976*
X2137732*
X2138488*
X2139244*
Y1761875*
Y1762631*
Y1763387*
Y1764143*
X2130173Y1760363D02*
Y1761119D01*
Y1761875*
Y1762631*
X2130929Y1760363D02*
Y1761119D01*
Y1761875*
Y1762631*
X2131685Y1760363D02*
X2132441D01*
Y1761119*
Y1761875*
Y1762631*
Y1763387*
X2152850Y1760363D02*
Y1761119D01*
Y1761875*
Y1762631*
X2153606Y1760363D02*
Y1761119D01*
Y1761875*
Y1762631*
X2154362Y1760363D02*
Y1761119D01*
Y1761875*
Y1762631*
X2127150Y1759607D02*
X2127906D01*
X2128661*
Y1760363*
Y1761119*
Y1761875*
X2127906Y1759607D02*
Y1760363D01*
Y1761119*
Y1761875*
X2156630Y1759607D02*
Y1760363D01*
Y1761119*
Y1761875*
X2157386Y1759607D02*
Y1760363D01*
X2156630*
X2155874*
Y1761119*
Y1761875*
X2158142Y1759607D02*
Y1760363D01*
Y1761119*
X2124126Y1758851D02*
Y1759607D01*
Y1760363*
X2124882Y1758851D02*
X2125638D01*
X2126394*
Y1759607*
Y1760363*
Y1761119*
X2125638Y1758851D02*
Y1759607D01*
Y1760363*
Y1761119*
X2159654Y1758851D02*
Y1759607D01*
X2158898*
Y1760363*
Y1761119*
X2122614Y1758095D02*
Y1758851D01*
Y1759607*
X2161165Y1758095D02*
Y1758851D01*
X2160409*
Y1759607*
Y1760363*
X2161921Y1758095D02*
Y1758851D01*
Y1759607*
X2120346Y1757340D02*
X2121102D01*
X2121858*
Y1758095*
X2122614*
X2123370*
Y1758851*
X2124126*
X2124882*
Y1759607*
X2125638*
X2126394*
X2127150*
Y1760363*
X2127906*
X2128661*
X2129417*
Y1761119*
X2130173*
X2130929*
X2131685*
Y1761875*
X2132441*
X2133197*
X2133953*
X2134709*
X2135465*
X2136220*
Y1762631*
X2136976*
X2137732*
X2138488*
X2139244*
X2140000*
X2140756*
X2141512*
X2142268*
X2143024*
X2143780*
X2144535*
X2145291*
X2146047*
X2146803*
X2147559*
X2148315*
Y1761875*
X2149071*
X2149827*
X2150583*
X2151339*
X2152094*
Y1761119*
X2152850*
X2153606*
X2154362*
X2155118*
Y1760363*
X2121102Y1757340D02*
Y1758095D01*
Y1758851*
X2116567Y1755072D02*
Y1755828D01*
X2117323*
Y1756584*
X2118835*
Y1757340*
X2119591*
X2120346*
Y1758095*
X2121102*
X2121858*
Y1758851*
X2122614*
X2123370*
Y1759607*
X2124126*
X2124882*
Y1760363*
X2125638*
X2126394*
X2127150*
Y1761119*
X2127906*
X2128661*
X2129417*
Y1761875*
X2130173*
X2130929*
X2131685*
Y1762631*
X2132441*
X2133197*
X2133953*
X2134709*
X2135465*
X2136220*
Y1763387*
X2136976*
X2137732*
X2138488*
X2139244*
X2140000*
X2140756*
X2141512*
X2142268*
X2143024*
X2143780*
X2144535*
X2145291*
X2146047*
X2146803*
X2147559*
X2148315*
Y1762631*
X2149071*
X2149827*
X2150583*
X2151339*
X2152094*
Y1761875*
X2152850*
X2153606*
X2154362*
X2155118*
Y1761119*
X2155874*
X2156630*
X2157386*
Y1760363*
X2158142*
X2158898*
X2159654*
Y1759607*
X2160409*
X2161165*
Y1758851*
X2161921*
X2162677*
Y1758095*
Y1757340*
X2163433*
X2167969Y1755072D02*
Y1755828D01*
X2167213*
Y1756584*
X2165701*
Y1757340*
X2164945*
X2164189*
X2163433*
Y1758095*
X2162677*
X2161921*
X2161165*
X2160409*
Y1758851*
X2159654*
X2158898*
Y1759607*
X2158142*
X2157386*
X2156630*
X2155874*
Y1760363*
X2155118*
X2154362*
X2153606*
X2152850*
X2152094*
Y1761119*
X2151339*
X2150583*
X2149827*
X2149071*
X2148315*
X2147559*
X2146803*
Y1761875*
X2146047*
X2145291*
X2144535*
X2143780*
X2143024*
X2142268*
X2141512*
X2140756*
X2140000*
X2139244*
X2138488*
X2137732*
X2136976*
X2136220*
Y1761119*
X2170236Y1753560D02*
X2167969Y1755072D01*
X2167213*
Y1755828*
X2166457*
X2165701*
Y1756584*
X2164945*
Y1757340*
Y1758095*
X2163433*
Y1758851*
X2162677*
Y1759607*
X2161165*
Y1760363*
X2159654*
Y1761119*
X2157386*
Y1761875*
X2155118*
Y1762631*
X2152094*
Y1763387*
X2148315*
Y1764143*
X2136220*
Y1763387*
X2131685*
Y1762631*
X2129417*
Y1761875*
X2127150*
Y1761119*
X2124882*
Y1760363*
X2123370*
Y1759607*
X2121858*
Y1758851*
X2120346*
Y1758095*
X2119591*
Y1757340*
Y1756584*
X2118835*
X2113543Y1752804D02*
X2115244Y1754127D01*
X2116569Y1755072D02*
G75*
G03X2115245Y1754128I911J-2677D01*
G01X2116567Y1755072D02*
X2117323D01*
Y1755828*
X2118079*
Y1756584*
X2082551Y1746757D02*
X2083307D01*
X2084063*
X2084819*
X2085575*
X2086331*
X2087087*
X2087843*
X2167969D02*
X2168724D01*
X2169480*
X2170236*
X2170992*
X2171748*
X2172504*
X2130173Y1746001D02*
X2130929D01*
Y1746757*
X2131685*
X2132441*
X2133197*
X2133953*
X2134709*
X2135465*
X2143780Y1746001D02*
X2144535D01*
Y1746757*
X2145291*
X2146047*
X2146803*
X2147559*
X2148315*
Y1746001*
X2149071*
X2167969D02*
X2168724D01*
X2169480*
X2170236*
X2170992*
X2171748*
X2172504*
X2081795Y1745245D02*
X2082551D01*
Y1746001*
X2083307*
X2084063*
X2084819*
X2085575*
X2086331*
X2087087*
Y1746757*
Y1747513*
X2130173Y1745245D02*
X2130929D01*
Y1746001*
X2131685*
X2132441*
X2133197*
X2133953*
X2134709*
X2135465*
X2143780Y1745245D02*
X2144535D01*
Y1746001*
X2145291*
X2146047*
X2146803*
X2147559*
X2148315*
Y1745245*
X2149071*
X2167969D02*
X2168724D01*
X2169480*
X2170236*
X2170992*
X2171748*
X2172504*
X2075748Y1744489D02*
X2074992D01*
Y1745245*
X2074236*
Y1746001*
X2073480*
X2072724*
X2071969*
X2071213*
X2070457*
X2069701*
Y1746757*
Y1747513*
X2111276Y1744489D02*
X2112031D01*
Y1745245*
X2112787*
X2113543*
Y1746001*
X2114299*
X2115055*
X2115811*
Y1746757*
X2116567*
X2117323*
X2118079*
X2118835*
X2119591*
X2120346*
X2121102*
X2121858*
X2122614*
X2123370*
X2124126*
X2124882*
X2125638*
X2126394*
X2130173Y1744489D02*
X2130929D01*
Y1745245*
X2131685*
X2132441*
X2133197*
X2133953*
X2134709*
X2135465*
X2143780Y1744489D02*
X2144535D01*
Y1745245*
X2145291*
X2146047*
X2146803*
X2147559*
X2148315*
Y1744489*
X2149071*
X2167969D02*
X2168724D01*
X2169480*
X2170236*
X2170992*
X2171748*
X2172504*
X2081039Y1743733D02*
X2081795D01*
Y1744489*
X2082551*
Y1745245*
X2083307*
X2084063*
X2084819*
X2085575*
X2086331*
X2087087*
Y1746001*
X2087843*
Y1746757*
Y1747513*
X2088598Y1743733D02*
X2089354D01*
Y1744489*
X2090110*
Y1745245*
X2090866*
Y1746001*
X2091622*
X2092378*
X2093134*
Y1746757*
X2093890*
X2094646*
X2095402*
X2096157*
X2096913*
X2097669*
X2098425*
X2099181*
X2099937*
X2100693*
X2101449*
Y1746001*
X2102205*
X2102961*
Y1745245*
X2103717*
X2104472*
Y1744489*
X2105228*
X2130173Y1743733D02*
X2130929D01*
Y1744489*
X2131685*
X2132441*
X2133197*
X2133953*
X2134709*
X2135465*
X2143780Y1743733D02*
X2144535D01*
Y1744489*
X2145291*
X2146047*
X2146803*
X2147559*
X2148315*
Y1743733*
X2149071*
X2152094D02*
X2152850D01*
Y1744489*
X2153606*
Y1745245*
X2154362*
Y1746001*
X2155118*
X2155874*
X2156630*
Y1746757*
X2157386*
X2158142*
X2158898*
Y1746001*
X2159654*
X2160409*
X2161165*
Y1745245*
X2161921*
Y1744489*
X2162677*
X2167969Y1743733D02*
X2168724D01*
X2169480*
X2170236*
X2170992*
X2171748*
X2172504*
X2076504Y1742977D02*
X2075748D01*
X2074992*
Y1743733*
X2074236*
Y1744489*
X2073480*
X2072724*
X2071969*
X2071213*
X2070457*
Y1745245*
Y1746001*
Y1746757*
Y1747513*
X2088598Y1742977D02*
X2089354D01*
Y1743733*
X2090110*
Y1744489*
X2090866*
Y1745245*
X2091622*
X2092378*
X2093134*
Y1746001*
X2093890*
X2094646*
X2095402*
X2096157*
X2096913*
X2097669*
X2098425*
X2099181*
X2099937*
X2100693*
X2101449*
Y1745245*
X2102205*
X2102961*
Y1744489*
X2103717*
X2104472*
Y1743733*
X2105228*
Y1742977*
X2105984*
X2110520D02*
X2111276D01*
Y1743733*
X2112031*
Y1744489*
X2112787*
X2113543*
Y1745245*
X2114299*
X2115055*
X2115811*
Y1746001*
X2116567*
X2117323*
X2118079*
X2118835*
X2119591*
X2120346*
X2121102*
X2121858*
X2122614*
X2123370*
X2124126*
X2124882*
X2125638*
X2126394*
X2116567Y1742977D02*
Y1743733D01*
Y1744489*
Y1745245*
Y1746001*
Y1746757*
Y1747513*
X2117323Y1742977D02*
Y1743733D01*
Y1744489*
Y1745245*
Y1746001*
Y1746757*
Y1747513*
X2118079Y1742977D02*
Y1743733D01*
Y1744489*
Y1745245*
Y1746001*
Y1746757*
Y1747513*
X2118835Y1742977D02*
Y1743733D01*
Y1744489*
Y1745245*
Y1746001*
Y1746757*
Y1747513*
X2119591Y1742977D02*
Y1743733D01*
Y1744489*
Y1745245*
Y1746001*
Y1746757*
Y1747513*
X2120346Y1742977D02*
Y1743733D01*
Y1744489*
Y1745245*
Y1746001*
Y1746757*
Y1747513*
X2121102Y1742977D02*
Y1743733D01*
Y1744489*
Y1745245*
Y1746001*
Y1746757*
Y1747513*
X2121858Y1742977D02*
Y1743733D01*
Y1744489*
Y1745245*
Y1746001*
Y1746757*
Y1747513*
X2122614Y1742977D02*
Y1743733D01*
Y1744489*
Y1745245*
Y1746001*
Y1746757*
Y1747513*
X2123370Y1742977D02*
Y1743733D01*
Y1744489*
Y1745245*
Y1746001*
Y1746757*
Y1747513*
X2124126Y1742977D02*
Y1743733D01*
Y1744489*
Y1745245*
Y1746001*
Y1746757*
Y1747513*
X2124882Y1742977D02*
Y1743733D01*
Y1744489*
Y1745245*
Y1746001*
Y1746757*
Y1747513*
X2125638Y1742977D02*
Y1743733D01*
Y1744489*
Y1745245*
Y1746001*
Y1746757*
Y1747513*
X2130173Y1742977D02*
X2130929D01*
Y1743733*
X2131685*
X2132441*
X2133197*
X2133953*
X2134709*
X2135465*
X2143780Y1742977D02*
X2144535D01*
Y1743733*
X2145291*
X2146047*
X2146803*
X2147559*
X2148315*
Y1742977*
X2149071*
X2152094D02*
X2152850D01*
Y1743733*
X2153606*
Y1744489*
X2154362*
Y1745245*
X2155118*
X2155874*
X2156630*
Y1746001*
X2157386*
X2158142*
X2158898*
Y1745245*
X2159654*
X2160409*
X2161165*
Y1744489*
X2161921*
Y1743733*
X2162677*
Y1742977*
X2163433*
X2158142D02*
Y1743733D01*
Y1744489*
Y1745245*
Y1746001*
Y1746757*
Y1747513*
X2167969Y1742977D02*
X2168724D01*
X2169480*
X2170236*
X2170992*
X2171748*
X2172504*
X2080283Y1742221D02*
X2081039D01*
X2081795*
Y1742977*
X2082551*
Y1743733*
X2083307*
X2084063*
X2084819*
X2085575*
X2086331*
Y1744489*
Y1745245*
Y1746001*
Y1746757*
Y1747513*
X2094646Y1742221D02*
Y1742977D01*
Y1743733*
Y1744489*
Y1745245*
Y1746001*
Y1746757*
Y1747513*
X2095402Y1742221D02*
Y1742977D01*
Y1743733*
Y1744489*
Y1745245*
Y1746001*
Y1746757*
Y1747513*
X2096157Y1742221D02*
Y1742977D01*
Y1743733*
Y1744489*
Y1745245*
Y1746001*
Y1746757*
Y1747513*
X2096913Y1742221D02*
Y1742977D01*
Y1743733*
Y1744489*
Y1745245*
Y1746001*
Y1746757*
Y1747513*
X2097669Y1742221D02*
Y1742977D01*
Y1743733*
Y1744489*
Y1745245*
Y1746001*
Y1746757*
Y1747513*
X2098425Y1742221D02*
Y1742977D01*
Y1743733*
Y1744489*
Y1745245*
Y1746001*
Y1746757*
Y1747513*
X2099181Y1742221D02*
Y1742977D01*
Y1743733*
Y1744489*
Y1745245*
Y1746001*
Y1746757*
Y1747513*
X2099937Y1742221D02*
Y1742977D01*
Y1743733*
Y1744489*
Y1745245*
Y1746001*
Y1746757*
Y1747513*
X2135465Y1742221D02*
X2134709D01*
X2133953*
X2133197*
X2132441*
X2131685*
X2130929*
Y1742977*
X2131685*
X2132441*
X2133197*
X2133953*
X2134709*
X2135465*
X2143780Y1742221D02*
X2144535D01*
Y1742977*
X2145291*
X2146047*
X2146803*
X2147559*
X2148315*
Y1742221*
X2149071*
X2152094D02*
X2152850D01*
Y1742977*
X2153606*
Y1743733*
X2154362*
Y1744489*
X2155118*
X2155874*
X2156630*
Y1745245*
X2157386*
X2158142*
X2158898*
Y1744489*
X2159654*
X2160409*
X2161165*
Y1743733*
X2161921*
Y1742977*
X2162677*
Y1742221*
X2163433*
X2167969D02*
X2168724D01*
X2169480*
X2170236*
X2170992*
X2171748*
X2172504*
X2077260Y1741466D02*
X2076504D01*
Y1742221*
X2075748*
X2074992*
Y1742977*
X2074236*
Y1743733*
X2073480*
X2072724*
X2071969*
X2071213*
X2109764Y1741466D02*
X2110520D01*
X2111276*
Y1742221*
X2112031*
Y1742977*
X2112787*
X2113543*
Y1743733*
X2114299*
X2115055*
X2115811*
Y1744489*
X2116567*
X2117323*
X2118079*
X2118835*
X2119591*
X2120346*
X2121102*
X2121858*
X2122614*
X2123370*
X2124126*
X2124882*
X2125638*
X2126394*
X2130929Y1741466D02*
X2131685D01*
X2132441*
X2133197*
X2133953*
X2134709*
X2135465*
X2143780D02*
X2144535D01*
Y1742221*
X2145291*
X2146047*
X2146803*
X2147559*
X2148315*
Y1741466*
X2149071*
X2167969D02*
X2168724D01*
X2169480*
X2170236*
X2170992*
X2171748*
X2172504*
X2071213Y1747513D02*
Y1746757D01*
Y1746001*
Y1745245*
Y1744489*
Y1743733*
Y1742977*
X2071969*
Y1742221*
X2072724*
X2073480*
X2074236*
X2074992*
Y1741466*
X2075748*
X2076504*
Y1740710*
X2077260*
X2079528*
X2080283*
Y1741466*
X2081039*
X2081795*
Y1742221*
X2082551*
Y1742977*
X2083307*
X2084063*
X2084819*
X2085575*
X2087843Y1740710D02*
X2088598D01*
X2089354*
Y1741466*
X2090110*
Y1742221*
X2090866*
Y1742977*
X2091622*
X2092378*
X2093134*
Y1743733*
X2093890*
X2094646*
X2095402*
X2096157*
X2096913*
X2097669*
X2098425*
X2099181*
X2099937*
X2100693*
X2101449*
Y1742977*
X2102205*
X2102961*
Y1742221*
X2103717*
X2104472*
Y1741466*
X2105228*
Y1740710*
X2105984*
X2106740*
X2109764D02*
X2110520D01*
X2111276*
Y1741466*
X2112031*
Y1742221*
X2112787*
X2113543*
Y1742977*
X2114299*
X2115055*
X2115811*
Y1743733*
X2116567*
X2117323*
X2118079*
X2118835*
X2119591*
X2120346*
X2121102*
X2121858*
X2122614*
X2123370*
X2124126*
X2124882*
X2125638*
X2126394*
X2143780Y1740710D02*
X2144535D01*
Y1741466*
X2145291*
X2146047*
X2146803*
X2147559*
X2148315*
Y1740710*
X2149071*
X2152094D02*
X2152850D01*
Y1741466*
X2153606*
Y1742221*
X2154362*
Y1742977*
X2155118*
X2155874*
X2156630*
Y1743733*
X2157386*
X2158142*
X2158898*
Y1742977*
X2159654*
X2160409*
X2161165*
Y1742221*
X2161921*
Y1741466*
X2162677*
Y1740710*
X2163433*
X2164189*
X2167969D02*
X2168724D01*
X2169480*
X2170236*
X2170992*
X2171748*
X2172504*
X2072724Y1741466D02*
X2073480D01*
X2074236*
X2074992*
Y1740710*
X2075748*
X2076504*
Y1739954*
X2077260*
X2078016*
X2078772*
X2079528*
X2080283*
Y1740710*
X2081039*
X2081795*
Y1741466*
X2082551*
Y1742221*
X2083307*
X2084063*
X2084819*
Y1742977*
Y1743733*
Y1744489*
Y1745245*
Y1746001*
Y1746757*
Y1747513*
X2087843Y1739954D02*
X2088598D01*
X2089354*
Y1740710*
X2090110*
Y1741466*
X2090866*
Y1742221*
X2091622*
X2092378*
X2093134*
Y1742977*
X2093890*
X2094646*
X2095402*
X2096157*
X2096913*
X2097669*
X2098425*
X2099181*
X2099937*
X2100693*
X2101449*
Y1742221*
X2102205*
X2102961*
Y1741466*
X2103717*
X2104472*
Y1740710*
X2105228*
Y1739954*
X2105984*
X2106740*
X2115055D02*
X2114299D01*
X2113543*
Y1740710*
X2114299*
X2115055*
X2130173Y1739954D02*
X2130929D01*
X2131685*
X2132441*
X2133197*
X2133953*
X2134709*
X2135465*
X2143780D02*
X2144535D01*
Y1740710*
X2145291*
X2146047*
X2146803*
X2147559*
X2148315*
Y1739954*
X2149071*
X2152094D02*
X2152850D01*
Y1740710*
X2153606*
Y1741466*
X2154362*
Y1742221*
X2155118*
X2155874*
X2156630*
X2164189Y1739954D02*
X2163433D01*
X2162677*
Y1740710*
X2161921*
Y1741466*
X2161165*
Y1742221*
X2160409*
X2159654*
X2158898*
Y1742977*
X2158142*
X2157386*
X2167969Y1739954D02*
X2168724D01*
X2169480*
X2170236*
X2170992*
X2171748*
X2172504*
X2074236Y1739198D02*
X2074992D01*
X2075748*
X2076504*
X2077260*
X2078016*
X2078772*
X2079528*
X2080283*
Y1739954*
X2081039*
X2081795*
Y1740710*
X2082551*
Y1741466*
X2083307*
X2084063*
X2084819*
Y1742221*
X2085575*
Y1742977*
Y1743733*
Y1744489*
Y1745245*
Y1746001*
Y1746757*
Y1747513*
X2087843Y1739198D02*
X2088598D01*
X2089354*
Y1739954*
X2090110*
Y1740710*
X2090866*
Y1741466*
X2091622*
X2092378*
X2093134*
X2106740Y1739198D02*
X2105984D01*
X2105228*
Y1739954*
X2104472*
Y1740710*
X2103717*
X2102961*
Y1741466*
X2102205*
X2101449*
Y1742221*
X2100693*
X2099937*
X2099181*
X2098425*
X2097669*
X2096913*
X2096157*
X2095402*
X2094646*
X2093890*
X2130173Y1739198D02*
X2130929D01*
X2131685*
X2132441*
X2133197*
X2133953*
X2134709*
X2135465*
X2143780D02*
X2144535D01*
Y1739954*
X2145291*
X2146047*
X2146803*
X2147559*
X2148315*
Y1739198*
X2149071*
X2152094D02*
X2152850D01*
Y1739954*
X2153606*
Y1740710*
X2154362*
Y1741466*
X2155118*
X2155874*
X2156630*
X2164189Y1739198D02*
X2163433D01*
X2162677*
Y1739954*
X2161921*
Y1740710*
X2161165*
Y1741466*
X2160409*
X2159654*
X2158898*
X2167969Y1739198D02*
X2168724D01*
X2169480*
X2170236*
X2170992*
X2171748*
X2172504*
X2072724Y1747513D02*
Y1746757D01*
Y1746001*
Y1745245*
Y1744489*
Y1743733*
Y1742977*
Y1742221*
Y1741466*
Y1740710*
X2073480*
Y1739954*
X2074236*
X2074992*
Y1739198*
Y1738442*
X2075748*
X2076504*
X2077260*
X2078016*
X2078772*
X2079528*
X2080283*
Y1739198*
X2081039*
X2081795*
Y1739954*
X2082551*
Y1740710*
X2083307*
X2084063*
X2087843Y1738442D02*
X2088598D01*
X2089354*
Y1739198*
X2090110*
Y1739954*
X2090866*
Y1740710*
X2091622*
X2092378*
X2093134*
X2106740Y1738442D02*
X2105984D01*
X2105228*
Y1739198*
X2104472*
Y1739954*
X2103717*
X2102961*
Y1740710*
X2102205*
X2101449*
X2100693*
X2130173Y1738442D02*
X2130929D01*
X2131685*
X2132441*
X2133197*
X2133953*
X2134709*
X2135465*
X2143780D02*
X2144535D01*
Y1739198*
X2145291*
X2146047*
X2146803*
X2147559*
X2148315*
Y1738442*
X2149071*
X2152094D02*
X2152850D01*
Y1739198*
X2153606*
Y1739954*
X2154362*
Y1740710*
X2155118*
X2155874*
X2156630*
X2164189Y1738442D02*
X2163433D01*
X2162677*
Y1739198*
X2161921*
Y1739954*
X2161165*
Y1740710*
X2160409*
X2159654*
X2158898*
X2167969Y1738442D02*
X2168724D01*
X2169480*
X2170236*
X2170992*
X2171748*
X2172504*
X2074992Y1737686D02*
X2075748D01*
X2076504*
X2077260*
X2078016*
X2078772*
X2079528*
X2080283*
Y1738442*
X2081039*
X2081795*
Y1739198*
X2082551*
X2083307*
X2087843Y1737686D02*
X2088598D01*
X2089354*
Y1738442*
X2090110*
Y1739198*
X2090866*
Y1739954*
X2091622*
X2092378*
X2093134*
X2106740Y1737686D02*
X2105984D01*
X2105228*
Y1738442*
X2104472*
Y1739198*
X2103717*
X2102961*
Y1739954*
X2102205*
X2101449*
X2100693*
X2130173Y1737686D02*
X2130929D01*
X2131685*
X2132441*
X2133197*
X2133953*
X2134709*
X2135465*
X2143780D02*
X2144535D01*
Y1738442*
X2145291*
X2146047*
X2146803*
X2147559*
X2148315*
Y1737686*
X2149071*
X2152094D02*
X2152850D01*
Y1738442*
X2153606*
Y1739198*
X2154362*
Y1739954*
X2155118*
X2155874*
X2156630*
X2164189Y1737686D02*
X2163433D01*
X2162677*
Y1738442*
X2161921*
Y1739198*
X2161165*
X2160409*
X2159654*
X2167969Y1737686D02*
X2168724D01*
X2169480*
X2170236*
X2170992*
X2171748*
X2172504*
X2081795Y1736930D02*
X2081039D01*
X2080283*
X2079528*
X2078772*
X2078016*
X2077260*
X2076504*
X2075748*
X2074992*
Y1737686*
Y1738442*
X2074236*
Y1739198*
Y1739954*
Y1740710*
X2073480*
Y1741466*
Y1742221*
Y1742977*
Y1743733*
Y1744489*
Y1745245*
Y1746001*
Y1746757*
Y1747513*
X2087843Y1736930D02*
X2088598D01*
X2089354*
Y1737686*
X2090110*
Y1738442*
X2090866*
Y1739198*
X2091622*
X2092378*
X2093134*
X2106740Y1736930D02*
X2105984D01*
X2105228*
Y1737686*
X2104472*
Y1738442*
X2103717*
X2102961*
Y1739198*
X2102205*
X2101449*
X2100693*
X2130173Y1736930D02*
X2130929D01*
X2131685*
X2132441*
X2133197*
X2133953*
X2134709*
X2135465*
X2143780D02*
X2144535D01*
Y1737686*
X2145291*
X2146047*
X2146803*
X2147559*
X2148315*
Y1736930*
X2149071*
X2152094D02*
X2152850D01*
Y1737686*
X2153606*
Y1738442*
X2154362*
Y1739198*
X2155118*
X2155874*
X2156630*
X2167969Y1736930D02*
X2168724D01*
X2169480*
X2170236*
X2170992*
X2171748*
X2172504*
X2075748Y1736174D02*
X2076504D01*
X2077260*
X2078016*
X2078772*
X2079528*
X2080283*
X2081039*
X2081795*
Y1736930*
Y1737686*
Y1738442*
X2082551*
X2083307*
Y1739198*
Y1739954*
Y1740710*
Y1741466*
Y1742221*
Y1742977*
Y1743733*
Y1744489*
Y1745245*
Y1746001*
Y1746757*
Y1747513*
X2087843Y1736174D02*
X2088598D01*
X2089354*
Y1736930*
X2090110*
Y1737686*
X2090866*
Y1738442*
X2091622*
X2092378*
X2093134*
X2106740Y1736174D02*
X2105984D01*
X2105228*
Y1736930*
X2104472*
Y1737686*
X2103717*
X2102961*
Y1738442*
X2102205*
X2101449*
X2100693*
X2127150Y1736174D02*
X2126394D01*
X2125638*
Y1736930*
X2124882*
X2124126*
X2123370*
Y1737686*
X2122614*
X2121858*
X2121102*
X2120346*
X2119591*
X2118835*
X2118079*
X2117323*
X2116567*
X2115811*
X2115055*
X2114299*
X2113543*
X2112787*
X2112031*
Y1738442*
X2112787*
X2113543*
X2114299*
X2115055*
X2115811*
X2116567*
X2117323*
X2118079*
X2118835*
X2119591*
X2120346*
X2121102*
X2121858*
X2122614*
X2123370*
Y1737686*
X2124126*
X2124882*
X2125638*
X2130173Y1736174D02*
X2130929D01*
X2131685*
X2132441*
X2133197*
X2133953*
X2134709*
X2135465*
X2143780D02*
X2144535D01*
Y1736930*
X2145291*
X2146047*
X2146803*
X2147559*
X2148315*
Y1736174*
X2149071*
X2152094D02*
X2152850D01*
Y1736930*
X2153606*
Y1737686*
X2154362*
Y1738442*
X2155118*
X2155874*
X2156630*
X2164945Y1736174D02*
X2164189D01*
X2163433*
X2162677*
Y1736930*
X2161921*
Y1737686*
X2161165*
X2160409*
X2159654*
X2167969Y1736174D02*
X2168724D01*
X2169480*
X2170236*
X2170992*
X2171748*
X2172504*
X2075748Y1735418D02*
X2076504D01*
X2077260*
X2078016*
X2078772*
X2079528*
X2080283*
X2081039*
X2087843D02*
X2088598D01*
X2089354*
Y1736174*
X2090110*
Y1736930*
X2090866*
Y1737686*
X2091622*
X2092378*
X2093134*
X2106740Y1735418D02*
X2105984D01*
X2105228*
Y1736174*
X2104472*
Y1736930*
X2103717*
X2102961*
Y1737686*
X2102205*
X2101449*
X2100693*
X2113543Y1735418D02*
Y1736174D01*
Y1736930*
Y1737686*
Y1738442*
Y1739198*
Y1739954*
X2112787*
X2112031*
Y1740710*
X2112787*
X2113543*
Y1741466*
X2114299*
X2115055*
X2114299Y1735418D02*
Y1736174D01*
Y1736930*
Y1737686*
Y1738442*
Y1739198*
Y1739954*
Y1740710*
Y1741466*
Y1742221*
Y1742977*
Y1743733*
Y1744489*
Y1745245*
Y1746001*
Y1746757*
X2130173Y1735418D02*
X2130929D01*
X2131685*
X2132441*
X2133197*
X2133953*
X2134709*
X2135465*
X2143780D02*
X2144535D01*
Y1736174*
X2145291*
X2146047*
X2146803*
X2147559*
X2148315*
Y1735418*
X2149071*
X2152094D02*
X2152850D01*
Y1736174*
X2153606*
Y1736930*
X2154362*
Y1737686*
X2155118*
X2155874*
X2156630*
X2164945Y1735418D02*
X2164189D01*
X2163433*
X2162677*
Y1736174*
X2161921*
Y1736930*
X2161165*
X2160409*
X2159654*
X2167969Y1735418D02*
X2168724D01*
X2169480*
X2170236*
X2170992*
X2171748*
X2172504*
X2075748Y1734662D02*
X2076504D01*
X2077260*
X2078016*
X2078772*
X2079528*
X2080283*
X2081039*
X2087843D02*
X2088598D01*
X2089354*
Y1735418*
X2090110*
Y1736174*
X2090866*
Y1736930*
X2091622*
X2092378*
X2093134*
X2106740Y1734662D02*
X2105984D01*
X2105228*
Y1735418*
X2104472*
Y1736174*
X2103717*
X2102961*
Y1736930*
X2102205*
X2101449*
X2100693*
X2115811Y1734662D02*
Y1735418D01*
Y1736174*
Y1736930*
Y1737686*
Y1738442*
Y1739198*
X2116567Y1734662D02*
Y1735418D01*
Y1736174*
Y1736930*
Y1737686*
Y1738442*
Y1739198*
X2117323Y1734662D02*
Y1735418D01*
Y1736174*
Y1736930*
Y1737686*
Y1738442*
Y1739198*
X2118079Y1734662D02*
Y1735418D01*
Y1736174*
Y1736930*
Y1737686*
Y1738442*
Y1739198*
X2118835Y1734662D02*
Y1735418D01*
Y1736174*
Y1736930*
Y1737686*
Y1738442*
Y1739198*
X2119591Y1734662D02*
Y1735418D01*
Y1736174*
Y1736930*
Y1737686*
Y1738442*
Y1739198*
X2120346Y1734662D02*
Y1735418D01*
Y1736174*
Y1736930*
Y1737686*
Y1738442*
Y1739198*
X2121102Y1734662D02*
Y1735418D01*
Y1736174*
Y1736930*
Y1737686*
Y1738442*
Y1739198*
X2121858Y1734662D02*
Y1735418D01*
Y1736174*
Y1736930*
Y1737686*
Y1738442*
Y1739198*
X2127906Y1734662D02*
X2127150D01*
Y1735418*
X2126394*
X2125638*
Y1736174*
X2124882*
X2124126*
X2123370*
Y1736930*
X2122614*
X2121858*
X2121102*
X2120346*
X2119591*
X2118835*
X2118079*
X2117323*
X2116567*
X2115811*
X2115055*
X2114299*
X2113543*
X2112787*
X2112031*
Y1737686*
X2111276*
X2110520*
Y1738442*
Y1739198*
Y1739954*
Y1740710*
Y1741466*
Y1742221*
Y1742977*
Y1743733*
X2111276*
Y1744489*
Y1745245*
X2112031*
Y1746001*
X2113543*
Y1746757*
X2115811*
Y1747513*
X2126394*
Y1746757*
Y1746001*
Y1745245*
Y1744489*
Y1743733*
Y1742977*
X2125638*
X2124882*
X2124126*
X2123370*
X2122614*
X2121858*
X2121102*
X2120346*
X2119591*
X2118835*
X2118079*
X2117323*
X2116567*
X2115811*
Y1742221*
X2115055*
X2114299*
X2113543*
Y1741466*
X2112787*
X2112031*
Y1740710*
X2111276*
Y1739954*
X2112031*
Y1739198*
X2111276*
X2110520*
X2130173Y1734662D02*
X2130929D01*
X2131685*
X2132441*
X2133197*
X2133953*
X2134709*
X2135465*
X2143780D02*
X2144535D01*
Y1735418*
X2145291*
X2146047*
X2146803*
X2147559*
X2148315*
Y1734662*
X2149071*
X2152094D02*
X2152850D01*
Y1735418*
X2153606*
Y1736174*
X2154362*
Y1736930*
X2155118*
X2155874*
X2156630*
X2164945Y1734662D02*
X2164189D01*
X2163433*
X2162677*
Y1735418*
X2161921*
X2161165*
X2160409*
X2167969Y1734662D02*
X2168724D01*
X2169480*
X2170236*
X2170992*
X2171748*
X2172504*
X2075748Y1733906D02*
X2076504D01*
X2077260*
X2078016*
X2078772*
X2079528*
X2080283*
X2081039*
X2087843D02*
X2088598D01*
X2089354*
Y1734662*
X2090110*
Y1735418*
X2090866*
Y1736174*
X2091622*
X2092378*
X2093134*
X2106740Y1733906D02*
X2105984D01*
X2105228*
Y1734662*
X2104472*
Y1735418*
X2103717*
X2102961*
Y1736174*
X2102205*
X2101449*
X2100693*
X2127906Y1733906D02*
X2127150D01*
Y1734662*
X2126394*
X2125638*
Y1735418*
X2124882*
X2124126*
X2123370*
Y1736174*
X2122614*
X2121858*
X2121102*
X2120346*
X2119591*
X2118835*
X2118079*
X2117323*
X2116567*
X2115811*
X2115055*
X2114299*
X2113543*
X2112787*
Y1736930*
Y1737686*
Y1738442*
Y1739198*
Y1739954*
Y1740710*
Y1741466*
Y1742221*
Y1742977*
Y1743733*
Y1744489*
Y1745245*
Y1746001*
X2130173Y1733906D02*
X2130929D01*
X2131685*
X2132441*
X2133197*
X2133953*
X2134709*
X2135465*
X2143780D02*
X2144535D01*
Y1734662*
X2145291*
X2146047*
X2146803*
X2147559*
X2148315*
Y1733906*
X2149071*
X2152094D02*
X2152850D01*
Y1734662*
X2153606*
Y1735418*
X2154362*
Y1736174*
X2155118*
X2155874*
X2156630*
X2164945Y1733906D02*
X2164189D01*
X2163433*
X2162677*
Y1734662*
X2161921*
X2161165*
X2160409*
X2167969Y1733906D02*
X2168724D01*
X2169480*
X2170236*
X2170992*
X2171748*
X2172504*
X2075748Y1733151D02*
X2076504D01*
X2077260*
X2078016*
X2078772*
X2079528*
X2080283*
X2081039*
X2087843D02*
X2088598D01*
X2089354*
Y1733906*
X2090110*
Y1734662*
X2090866*
Y1735418*
X2091622*
X2092378*
X2093134*
X2106740Y1733151D02*
X2105984D01*
X2105228*
Y1733906*
X2104472*
Y1734662*
X2103717*
X2102961*
Y1735418*
X2102205*
X2101449*
X2100693*
X2127906Y1733151D02*
X2127150D01*
Y1733906*
X2126394*
X2125638*
Y1734662*
X2124882*
X2124126*
X2123370*
Y1735418*
X2122614*
X2121858*
X2121102*
X2120346*
X2119591*
X2118835*
X2118079*
X2117323*
X2116567*
X2115811*
X2115055*
Y1736174*
Y1736930*
Y1737686*
Y1738442*
Y1739198*
Y1739954*
Y1740710*
Y1741466*
Y1742221*
Y1742977*
Y1743733*
Y1744489*
Y1745245*
Y1746001*
Y1746757*
X2130173Y1733151D02*
X2130929D01*
X2131685*
X2132441*
X2133197*
X2133953*
X2134709*
X2135465*
X2143780D02*
X2144535D01*
Y1733906*
X2145291*
X2146047*
X2146803*
X2147559*
X2148315*
Y1733151*
X2149071*
X2152094D02*
X2152850D01*
Y1733906*
X2153606*
Y1734662*
X2154362*
Y1735418*
X2155118*
X2155874*
X2156630*
X2167969Y1733151D02*
X2168724D01*
X2169480*
X2170236*
X2170992*
X2171748*
X2172504*
X2075748Y1732395D02*
X2076504D01*
X2077260*
X2078016*
X2078772*
X2079528*
X2080283*
X2081039*
X2087843D02*
X2088598D01*
X2089354*
Y1733151*
X2090110*
Y1733906*
X2090866*
Y1734662*
X2091622*
X2092378*
X2093134*
X2106740Y1732395D02*
X2105984D01*
X2105228*
Y1733151*
X2104472*
Y1733906*
X2103717*
X2102961*
Y1734662*
X2102205*
X2101449*
X2100693*
X2127906Y1732395D02*
X2127150D01*
Y1733151*
X2126394*
X2125638*
Y1733906*
X2124882*
X2124126*
X2123370*
Y1734662*
X2122614*
X2121858*
X2121102*
X2120346*
X2119591*
X2118835*
X2118079*
X2117323*
X2116567*
X2115811*
X2115055*
Y1735418*
X2114299*
X2113543*
X2112787*
Y1736174*
X2112031*
Y1736930*
X2111276*
Y1737686*
Y1738442*
Y1739198*
Y1739954*
X2110520*
X2109764*
Y1740710*
Y1741466*
Y1742221*
X2110520*
X2111276*
Y1742977*
X2112031*
Y1743733*
X2112787*
X2113543*
Y1744489*
X2114299*
X2115055*
X2115811*
Y1745245*
X2116567*
X2117323*
X2118079*
X2118835*
X2119591*
X2120346*
X2121102*
X2121858*
X2122614*
X2123370*
X2124126*
X2124882*
X2125638*
X2126394*
X2135465Y1732395D02*
X2134709D01*
X2133953*
X2133197*
X2132441*
X2131685*
X2130929*
X2130173*
Y1733151*
Y1733906*
Y1734662*
Y1735418*
Y1736174*
Y1736930*
Y1737686*
Y1738442*
Y1739198*
Y1739954*
Y1740710*
X2130929*
X2131685*
X2132441*
X2133197*
X2133953*
X2134709*
X2135465*
X2152094Y1732395D02*
X2152850D01*
Y1733151*
X2153606*
Y1733906*
X2154362*
Y1734662*
X2155118*
X2155874*
X2156630*
X2165701Y1732395D02*
X2164945D01*
X2164189*
X2163433*
X2162677*
Y1733151*
X2161921*
X2161165*
X2160409*
X2167969Y1732395D02*
X2168724D01*
X2169480*
X2170236*
X2170992*
X2171748*
X2172504*
X2100693Y1733906D02*
X2101449D01*
X2102205*
X2102961*
Y1733151*
X2103717*
X2104472*
Y1732395*
X2105228*
Y1731639*
X2105984*
X2106740*
Y1732395*
Y1733151*
Y1733906*
Y1734662*
Y1735418*
Y1736174*
Y1736930*
Y1737686*
Y1738442*
Y1739198*
Y1739954*
Y1740710*
Y1741466*
Y1742221*
X2105984*
X2105228*
Y1742977*
X2104472*
Y1743733*
X2103717*
X2102961*
Y1744489*
X2102205*
X2101449*
Y1745245*
X2100693*
X2099937*
X2099181*
X2098425*
X2097669*
X2096913*
X2096157*
X2095402*
X2094646*
X2093890*
X2093134*
Y1744489*
X2092378*
X2091622*
X2090866*
Y1743733*
X2090110*
Y1742977*
X2089354*
Y1742221*
X2088598*
X2075748Y1731639D02*
X2076504D01*
X2077260*
X2078016*
X2078772*
X2079528*
X2080283*
X2081039*
X2093890D02*
Y1732395D01*
X2093134*
X2092378*
X2091622*
X2090866*
Y1731639*
X2091622*
X2092378*
X2093134*
X2093890*
X2127906D02*
X2127150D01*
Y1732395*
X2126394*
X2125638*
Y1733151*
X2124882*
X2124126*
X2123370*
X2152094Y1731639D02*
X2152850D01*
Y1732395*
X2153606*
Y1733151*
X2154362*
Y1733906*
X2155118*
X2155874*
X2156630*
X2161165Y1731639D02*
X2161921D01*
X2162677*
X2163433*
X2164189*
X2164945*
X2165701*
X2167969D02*
X2168724D01*
X2169480*
X2170236*
X2170992*
X2171748*
X2172504*
X2130929D02*
X2131685D01*
X2132441*
X2133197*
X2133953*
X2134709*
X2135465*
X2136220*
Y1730883*
X2142268*
Y1731639*
X2143780*
X2144535*
Y1732395*
X2145291*
X2146047*
X2146803*
X2147559*
X2148315*
Y1733151*
X2147559*
X2146803*
X2146047*
X2145291*
X2144535*
Y1732395*
X2143780*
X2075748Y1730883D02*
X2076504D01*
X2077260*
X2078016*
X2078772*
X2079528*
X2080283*
X2081039*
X2105984D02*
X2105228D01*
Y1731639*
X2104472*
Y1732395*
X2103717*
X2102961*
Y1733151*
X2102205*
X2101449*
X2100693*
X2152094Y1730883D02*
X2152850D01*
Y1731639*
X2153606*
Y1732395*
X2154362*
Y1733151*
X2155118*
X2155874*
X2156630*
X2161165Y1730883D02*
X2161921D01*
X2162677*
X2163433*
X2164189*
X2164945*
X2165701*
X2167969D02*
X2168724D01*
X2169480*
X2170236*
X2170992*
X2171748*
X2172504*
X2088598D02*
X2089354D01*
X2090110*
X2090866*
X2091622*
X2092378*
X2093134*
X2093890*
Y1731639*
X2100693*
X2101449*
X2102205*
X2102961*
Y1730883*
X2103717*
X2104472*
Y1730127*
X2105228*
Y1730883*
X2104472*
Y1731639*
X2103717*
X2102961*
Y1732395*
X2102205*
X2101449*
X2100693*
X2130929Y1730883D02*
X2131685D01*
X2132441*
X2133197*
X2133953*
X2134709*
X2135465*
X2136220*
Y1730127*
X2136976*
X2137732*
X2138488*
X2139244*
X2140000*
X2140756*
X2141512*
X2142268*
Y1730883*
X2143024*
X2143780*
X2144535*
Y1731639*
X2145291*
X2146047*
X2146803*
X2147559*
X2148315*
X2075748Y1730127D02*
X2076504D01*
X2077260*
X2078016*
X2078772*
X2079528*
X2080283*
X2081039*
X2110520D02*
X2111276D01*
Y1730883*
Y1731639*
X2122614*
Y1732395*
X2123370*
X2124126*
X2124882*
X2125638*
Y1731639*
X2126394*
X2127150*
Y1730883*
X2127906*
X2152094Y1730127D02*
X2152850D01*
Y1730883*
X2153606*
Y1731639*
X2154362*
Y1732395*
X2155118*
X2155874*
X2156630*
X2161165Y1730127D02*
X2161921D01*
X2162677*
X2163433*
X2164189*
X2164945*
X2165701*
X2167969*
X2168724*
X2169480*
X2170236*
X2170992*
X2171748*
X2172504*
X2131685Y1747513D02*
Y1746757D01*
Y1746001*
Y1745245*
Y1744489*
Y1743733*
Y1742977*
Y1742221*
Y1741466*
Y1740710*
Y1739954*
Y1739198*
Y1738442*
Y1737686*
Y1736930*
Y1736174*
Y1735418*
Y1734662*
Y1733906*
Y1733151*
Y1732395*
Y1731639*
Y1730883*
Y1730127*
X2132441*
X2133197*
X2133953*
X2134709*
X2135465*
X2136220*
Y1729371*
X2136976*
X2137732*
X2138488*
X2139244*
X2140000*
X2140756*
X2141512*
X2142268*
Y1730127*
X2143024*
X2143780*
X2144535*
Y1730883*
X2145291*
X2146047*
X2146803*
X2147559*
X2148315*
X2081039Y1729371D02*
X2080283D01*
X2079528*
X2078772*
X2078016*
X2077260*
X2076504*
X2075748*
Y1730127*
Y1730883*
Y1731639*
Y1732395*
Y1733151*
Y1733906*
Y1734662*
Y1735418*
Y1736174*
Y1736930*
Y1737686*
Y1738442*
Y1739198*
Y1739954*
Y1740710*
Y1741466*
Y1742221*
Y1742977*
Y1743733*
Y1744489*
Y1745245*
X2074992*
Y1746001*
Y1746757*
X2074236*
Y1747513*
X2068945*
Y1746757*
X2069701*
X2070457*
X2071213*
X2071969*
X2072724*
X2073480*
X2074236*
Y1746001*
X2074992*
X2111276Y1729371D02*
X2112031D01*
X2112787*
X2113543*
X2114299*
X2115055*
X2115811*
X2116567*
X2117323*
X2118079*
X2118835*
X2119591*
X2120346*
X2121102*
X2121858*
X2122614*
Y1730127*
X2123370*
X2124126*
X2124882*
X2125638*
Y1729371*
X2126394*
Y1730127*
Y1730883*
Y1731639*
Y1732395*
Y1733151*
Y1733906*
Y1734662*
Y1735418*
Y1736174*
Y1736930*
X2152094Y1729371D02*
X2152850D01*
Y1730127*
X2153606*
Y1730883*
X2154362*
Y1731639*
X2155118*
X2155874*
X2156630*
X2172504Y1729371D02*
X2171748D01*
X2170992*
X2170236*
X2169480*
X2168724*
X2167969*
X2167213*
X2166457*
X2165701*
X2164945*
X2164189*
X2163433*
X2162677*
Y1730127*
Y1730883*
Y1731639*
Y1732395*
X2161921*
X2161165*
X2160409*
Y1733151*
Y1733906*
Y1734662*
Y1735418*
Y1736174*
Y1736930*
Y1737686*
Y1738442*
Y1739198*
Y1739954*
Y1740710*
Y1741466*
Y1742221*
Y1742977*
Y1743733*
Y1744489*
Y1745245*
Y1746001*
Y1746757*
X2093134Y1733906D02*
X2092378D01*
X2091622*
X2090866*
Y1733151*
X2090110*
Y1732395*
X2089354*
Y1731639*
X2090110*
Y1730883*
Y1730127*
Y1729371*
X2090866*
Y1728615*
X2091622*
X2092378*
X2093134*
X2093890*
Y1729371*
X2094646*
X2095402*
X2096157*
X2096913*
X2097669*
X2098425*
X2099181*
X2099937*
X2100693*
X2101449*
X2102205*
X2102961*
Y1728615*
X2103717*
Y1729371*
Y1730127*
Y1730883*
Y1731639*
Y1732395*
Y1733151*
Y1733906*
Y1734662*
Y1735418*
Y1736174*
Y1736930*
Y1737686*
Y1738442*
Y1739198*
Y1739954*
Y1740710*
Y1741466*
Y1742221*
Y1742977*
Y1743733*
Y1744489*
Y1745245*
Y1746001*
X2132441Y1747513D02*
Y1746757D01*
Y1746001*
Y1745245*
Y1744489*
Y1743733*
Y1742977*
Y1742221*
Y1741466*
Y1740710*
Y1739954*
Y1739198*
Y1738442*
Y1737686*
Y1736930*
Y1736174*
Y1735418*
Y1734662*
Y1733906*
Y1733151*
Y1732395*
Y1731639*
Y1730883*
Y1730127*
Y1729371*
X2133197*
X2133953*
X2134709*
X2135465*
X2136220*
Y1728615*
X2136976*
X2137732*
X2138488*
X2139244*
X2140000*
X2140756*
X2141512*
X2142268*
Y1729371*
X2143024*
X2143780*
X2144535*
X2145291*
X2146047*
X2146803*
Y1730127*
Y1730883*
Y1731639*
Y1732395*
Y1733151*
Y1733906*
Y1734662*
Y1735418*
Y1736174*
Y1736930*
Y1737686*
Y1738442*
Y1739198*
Y1739954*
Y1740710*
Y1741466*
Y1742221*
Y1742977*
Y1743733*
Y1744489*
Y1745245*
Y1746001*
Y1746757*
Y1747513*
X2076504Y1728615D02*
X2077260D01*
X2078016*
X2078772*
X2079528*
X2080283*
X2081039*
X2110520D02*
X2111276D01*
Y1729371*
Y1730127*
X2112031*
X2112787*
X2113543*
X2114299*
X2115055*
X2115811*
X2116567*
X2117323*
X2118079*
X2118835*
X2119591*
X2120346*
X2121102*
X2121858*
X2122614*
Y1730883*
X2123370*
X2124126*
X2124882*
X2125638*
Y1730127*
X2126394*
X2127150*
Y1730883*
X2126394*
X2125638*
Y1731639*
X2124882*
X2124126*
X2123370*
X2122614*
Y1730883*
X2121858*
X2121102*
X2120346*
X2119591*
X2118835*
X2118079*
X2117323*
X2116567*
X2115811*
X2115055*
X2114299*
X2113543*
X2112787*
X2112031*
X2111276*
X2152094Y1728615D02*
X2152850D01*
Y1729371*
X2153606*
Y1730127*
X2154362*
Y1730883*
X2155118*
X2155874*
X2156630*
X2161921Y1728615D02*
X2162677D01*
X2163433*
X2164189*
X2164945*
X2165701*
X2166457*
X2167213*
X2167969*
X2168724*
X2169480*
X2170236*
X2170992*
X2171748*
Y1729371*
Y1730127*
Y1730883*
Y1731639*
Y1732395*
Y1733151*
Y1733906*
Y1734662*
Y1735418*
Y1736174*
Y1736930*
Y1737686*
Y1738442*
Y1739198*
Y1739954*
Y1740710*
Y1741466*
Y1742221*
Y1742977*
Y1743733*
Y1744489*
Y1745245*
Y1746001*
Y1746757*
Y1747513*
X2133197D02*
Y1746757D01*
Y1746001*
Y1745245*
Y1744489*
Y1743733*
Y1742977*
Y1742221*
Y1741466*
Y1740710*
Y1739954*
Y1739198*
Y1738442*
Y1737686*
Y1736930*
Y1736174*
Y1735418*
Y1734662*
Y1733906*
Y1733151*
Y1732395*
Y1731639*
Y1730883*
Y1730127*
Y1729371*
Y1728615*
X2133953*
X2134709*
X2135465*
X2136220*
Y1727859*
X2136976*
X2137732*
X2138488*
X2139244*
X2140000*
X2140756*
X2141512*
X2142268*
Y1728615*
X2143024*
X2143780*
X2144535*
X2145291*
X2146047*
Y1729371*
Y1730127*
Y1730883*
Y1731639*
Y1732395*
Y1733151*
Y1733906*
Y1734662*
Y1735418*
Y1736174*
Y1736930*
Y1737686*
Y1738442*
Y1739198*
Y1739954*
Y1740710*
Y1741466*
Y1742221*
Y1742977*
Y1743733*
Y1744489*
Y1745245*
Y1746001*
Y1746757*
Y1747513*
X2159654Y1746757D02*
Y1746001D01*
Y1745245*
Y1744489*
Y1743733*
Y1742977*
Y1742221*
Y1741466*
Y1740710*
Y1739954*
Y1739198*
Y1738442*
Y1737686*
Y1736930*
Y1736174*
X2160409*
X2161165*
X2161921*
Y1735418*
Y1734662*
Y1733906*
Y1733151*
Y1732395*
Y1731639*
Y1730883*
Y1730127*
Y1729371*
Y1728615*
Y1727859*
X2162677*
X2163433*
X2164189*
X2164945*
X2165701*
X2166457*
X2167213*
X2167969*
X2168724*
X2169480*
X2170236*
X2170992*
Y1728615*
Y1729371*
Y1730127*
Y1730883*
Y1731639*
Y1732395*
Y1733151*
Y1733906*
Y1734662*
Y1735418*
Y1736174*
Y1736930*
Y1737686*
Y1738442*
Y1739198*
Y1739954*
Y1740710*
Y1741466*
Y1742221*
Y1742977*
Y1743733*
Y1744489*
Y1745245*
Y1746001*
Y1746757*
Y1747513*
X2102961Y1727859D02*
Y1728615D01*
X2102205*
X2101449*
X2100693*
X2099937*
X2099181*
X2098425*
X2097669*
X2096913*
X2096157*
X2095402*
X2094646*
X2093890*
Y1727859*
X2094646*
X2095402*
X2096157*
X2096913*
X2097669*
X2098425*
X2099181*
X2099937*
X2100693*
X2101449*
X2102205*
X2102961*
X2152094D02*
X2152850D01*
Y1728615*
X2153606*
Y1729371*
X2154362*
Y1730127*
X2155118*
X2155874*
X2156630*
X2071969Y1747513D02*
Y1746757D01*
Y1746001*
Y1745245*
Y1744489*
Y1743733*
Y1742977*
X2072724*
X2073480*
X2074236*
Y1742221*
Y1741466*
Y1740710*
X2074992*
Y1739954*
X2075748*
X2076504*
Y1739198*
Y1738442*
Y1737686*
Y1736930*
Y1736174*
Y1735418*
Y1734662*
Y1733906*
Y1733151*
Y1732395*
Y1731639*
Y1730883*
Y1730127*
Y1729371*
Y1728615*
Y1727859*
Y1727103*
X2077260*
X2078016*
X2078772*
X2079528*
X2080283*
X2081039*
Y1727859*
Y1728615*
Y1729371*
Y1730127*
Y1730883*
Y1731639*
Y1732395*
Y1733151*
Y1733906*
Y1734662*
Y1735418*
Y1736174*
Y1736930*
Y1737686*
Y1738442*
Y1739198*
Y1739954*
Y1740710*
Y1741466*
Y1742221*
Y1742977*
Y1743733*
Y1744489*
X2081795*
Y1745245*
Y1746001*
X2082551*
Y1746757*
Y1747513*
X2088598*
X2106740Y1741466D02*
X2105984D01*
X2105228*
Y1742221*
X2104472*
Y1742977*
X2103717*
X2102961*
Y1743733*
X2102205*
X2101449*
Y1744489*
X2100693*
X2099937*
X2099181*
X2098425*
X2097669*
X2096913*
X2096157*
X2095402*
X2094646*
X2093890*
X2093134*
Y1743733*
X2092378*
X2091622*
X2090866*
Y1742977*
X2090110*
Y1742221*
X2089354*
Y1741466*
X2088598*
X2087843*
Y1740710*
Y1739954*
Y1739198*
Y1738442*
Y1737686*
Y1736930*
Y1736174*
Y1735418*
Y1734662*
Y1733906*
Y1733151*
Y1732395*
Y1731639*
X2088598*
X2089354*
Y1730883*
Y1730127*
Y1729371*
X2090110*
Y1728615*
X2090866*
Y1727859*
X2091622*
Y1727103*
X2092378*
X2093134*
X2093890*
X2094646*
X2095402*
X2096157*
X2096913*
X2097669*
X2098425*
X2099181*
X2099937*
X2100693*
X2101449*
X2102205*
X2102961*
Y1727859*
X2103717*
Y1728615*
X2104472*
Y1729371*
X2105228*
Y1730127*
X2105984*
Y1730883*
Y1731639*
Y1732395*
Y1733151*
Y1733906*
Y1734662*
Y1735418*
Y1736174*
Y1736930*
Y1737686*
Y1738442*
Y1739198*
Y1739954*
Y1740710*
Y1741466*
Y1742221*
Y1742977*
Y1743733*
X2105228*
Y1744489*
Y1745245*
X2104472*
Y1746001*
X2102961*
Y1746757*
X2101449*
Y1747513*
X2093134*
Y1746757*
X2090866*
Y1746001*
X2090110*
Y1745245*
X2089354*
Y1744489*
X2088598*
Y1743733*
Y1742977*
Y1742221*
Y1741466*
Y1740710*
Y1739954*
Y1739198*
Y1738442*
Y1737686*
Y1736930*
Y1736174*
Y1735418*
Y1734662*
Y1733906*
Y1733151*
Y1732395*
Y1731639*
Y1730883*
Y1730127*
X2089354*
X2090110*
X2090866*
Y1729371*
X2091622*
X2092378*
X2093134*
X2093890*
Y1730127*
X2094646*
X2095402*
X2096157*
X2096913*
X2097669*
X2098425*
X2099181*
X2099937*
X2100693*
X2101449*
X2102205*
X2102961*
Y1729371*
X2103717*
X2104472*
Y1730127*
X2103717*
X2102961*
Y1730883*
X2102205*
X2101449*
X2100693*
X2099937*
X2099181*
X2098425*
X2097669*
X2096913*
X2096157*
X2095402*
X2094646*
X2093890*
Y1730127*
X2093134*
X2092378*
X2091622*
X2090866*
Y1730883*
Y1731639*
X2090110*
Y1732395*
X2090866*
Y1733151*
X2091622*
X2092378*
X2093134*
X2076504Y1727859D02*
G03Y1727103I-378J-378D01*
G01Y1727859D02*
X2077260D01*
X2078016*
X2078772*
X2079528*
X2080283*
X2081039*
X2077260Y1727103D02*
Y1727859D01*
Y1728615*
Y1729371*
Y1730127*
Y1730883*
Y1731639*
Y1732395*
Y1733151*
Y1733906*
Y1734662*
Y1735418*
Y1736174*
Y1736930*
Y1737686*
Y1738442*
Y1739198*
Y1739954*
Y1740710*
Y1741466*
Y1742221*
X2076504*
Y1742977*
Y1743733*
X2075748*
X2074992*
Y1744489*
X2074236*
Y1745245*
X2073480*
X2072724*
X2071969*
X2071213*
X2070457*
X2078016Y1727103D02*
Y1727859D01*
Y1728615*
Y1729371*
Y1730127*
Y1730883*
Y1731639*
Y1732395*
Y1733151*
Y1733906*
Y1734662*
Y1735418*
Y1736174*
Y1736930*
Y1737686*
Y1738442*
Y1739198*
Y1739954*
Y1740710*
X2078772Y1727103D02*
Y1727859D01*
Y1728615*
Y1729371*
Y1730127*
Y1730883*
Y1731639*
Y1732395*
Y1733151*
Y1733906*
Y1734662*
Y1735418*
Y1736174*
Y1736930*
Y1737686*
Y1738442*
Y1739198*
Y1739954*
Y1740710*
X2079528Y1727103D02*
Y1727859D01*
Y1728615*
Y1729371*
Y1730127*
Y1730883*
Y1731639*
Y1732395*
Y1733151*
Y1733906*
Y1734662*
Y1735418*
Y1736174*
Y1736930*
Y1737686*
Y1738442*
Y1739198*
Y1739954*
Y1740710*
Y1741466*
X2080283*
Y1742221*
Y1742977*
X2081039*
X2081795*
Y1743733*
X2082551*
Y1744489*
X2083307*
X2084063*
X2084819*
X2085575*
X2086331*
X2080283Y1727103D02*
Y1727859D01*
Y1728615*
Y1729371*
Y1730127*
Y1730883*
Y1731639*
Y1732395*
Y1733151*
Y1733906*
Y1734662*
Y1735418*
Y1736174*
Y1736930*
Y1737686*
X2081039*
X2081795*
X2082551*
Y1738442*
Y1739198*
Y1739954*
X2083307*
X2084063*
Y1740710*
Y1741466*
Y1742221*
Y1742977*
Y1743733*
Y1744489*
Y1745245*
Y1746001*
Y1746757*
Y1747513*
X2092378Y1727103D02*
Y1727859D01*
Y1728615*
Y1729371*
Y1730127*
Y1730883*
Y1731639*
Y1732395*
Y1733151*
Y1733906*
Y1734662*
Y1735418*
Y1736174*
Y1736930*
Y1737686*
Y1738442*
Y1739198*
Y1739954*
Y1740710*
Y1741466*
Y1742221*
Y1742977*
Y1743733*
Y1744489*
Y1745245*
Y1746001*
Y1746757*
X2093134Y1727103D02*
Y1727859D01*
Y1728615*
Y1729371*
Y1730127*
Y1730883*
Y1731639*
Y1732395*
Y1733151*
Y1733906*
Y1734662*
Y1735418*
Y1736174*
Y1736930*
Y1737686*
Y1738442*
Y1739198*
Y1739954*
Y1740710*
Y1741466*
Y1742221*
X2093890*
Y1742977*
Y1743733*
Y1744489*
Y1745245*
Y1746001*
Y1746757*
Y1747513*
Y1727103D02*
Y1727859D01*
X2093134*
X2092378*
X2091622*
Y1728615*
Y1729371*
Y1730127*
Y1730883*
Y1731639*
Y1732395*
Y1733151*
Y1733906*
Y1734662*
Y1735418*
Y1736174*
Y1736930*
Y1737686*
Y1738442*
Y1739198*
Y1739954*
Y1740710*
Y1741466*
Y1742221*
Y1742977*
Y1743733*
Y1744489*
Y1745245*
Y1746001*
Y1746757*
X2094646Y1727103D02*
Y1727859D01*
Y1728615*
Y1729371*
Y1730127*
Y1730883*
Y1731639*
X2095402Y1727103D02*
Y1727859D01*
Y1728615*
Y1729371*
Y1730127*
Y1730883*
Y1731639*
X2096157Y1727103D02*
Y1727859D01*
Y1728615*
Y1729371*
Y1730127*
Y1730883*
Y1731639*
X2096913Y1727103D02*
Y1727859D01*
Y1728615*
Y1729371*
Y1730127*
Y1730883*
Y1731639*
X2097669Y1727103D02*
Y1727859D01*
Y1728615*
Y1729371*
Y1730127*
Y1730883*
Y1731639*
X2098425Y1727103D02*
Y1727859D01*
Y1728615*
Y1729371*
Y1730127*
Y1730883*
Y1731639*
X2099181Y1727103D02*
Y1727859D01*
Y1728615*
Y1729371*
Y1730127*
Y1730883*
Y1731639*
X2099937Y1727103D02*
Y1727859D01*
Y1728615*
Y1729371*
Y1730127*
Y1730883*
Y1731639*
X2100693Y1727103D02*
Y1727859D01*
Y1728615*
Y1729371*
Y1730127*
Y1730883*
Y1731639*
Y1732395*
Y1733151*
Y1733906*
Y1734662*
Y1735418*
Y1736174*
Y1736930*
Y1737686*
Y1738442*
Y1739198*
Y1739954*
Y1740710*
Y1741466*
Y1742221*
Y1742977*
Y1743733*
Y1744489*
Y1745245*
Y1746001*
Y1746757*
Y1747513*
X2101449Y1727103D02*
Y1727859D01*
Y1728615*
Y1729371*
Y1730127*
Y1730883*
Y1731639*
Y1732395*
Y1733151*
Y1733906*
Y1734662*
Y1735418*
Y1736174*
Y1736930*
Y1737686*
Y1738442*
Y1739198*
Y1739954*
Y1740710*
Y1741466*
X2100693*
X2102205Y1727103D02*
Y1727859D01*
Y1728615*
Y1729371*
Y1730127*
Y1730883*
Y1731639*
Y1732395*
Y1733151*
Y1733906*
Y1734662*
Y1735418*
Y1736174*
Y1736930*
Y1737686*
Y1738442*
Y1739198*
Y1739954*
Y1740710*
Y1741466*
Y1742221*
Y1742977*
Y1743733*
Y1744489*
Y1745245*
Y1746001*
Y1746757*
X2110520Y1727103D02*
X2111276D01*
X2112031*
X2112787*
X2113543*
X2114299*
X2115055*
X2115811*
X2116567*
X2117323*
X2118079*
X2118835*
X2119591*
X2120346*
X2121102*
X2121858*
X2122614*
X2123370*
X2124126*
X2124882*
Y1727859*
X2125638*
Y1728615*
X2126394*
Y1729371*
X2127150*
Y1730127*
X2127906*
Y1730883*
Y1731639*
Y1732395*
Y1733151*
Y1733906*
Y1734662*
Y1735418*
X2127150*
Y1736174*
Y1736930*
X2125638*
Y1737686*
Y1738442*
X2123370*
Y1739198*
X2115055*
X2114299*
X2113543*
X2112787*
X2112031*
Y1738442*
X2111276*
X2110520*
X2111276Y1727103D02*
Y1727859D01*
Y1728615*
X2112031*
X2112787*
X2113543*
X2114299*
X2115055*
X2115811*
X2116567*
X2117323*
X2118079*
X2118835*
X2119591*
X2120346*
X2121102*
X2121858*
X2122614*
Y1729371*
X2123370*
X2124126*
X2124882*
X2125638*
Y1728615*
X2124882*
X2124126*
X2123370*
X2122614*
Y1727859*
X2123370*
X2124126*
X2124882*
Y1728615*
Y1729371*
Y1730127*
Y1730883*
Y1731639*
Y1732395*
Y1733151*
Y1733906*
Y1734662*
Y1735418*
Y1736174*
Y1736930*
Y1737686*
Y1738442*
X2112031Y1727103D02*
Y1727859D01*
Y1728615*
Y1729371*
Y1730127*
Y1730883*
Y1731639*
X2112787Y1727103D02*
Y1727859D01*
Y1728615*
Y1729371*
Y1730127*
Y1730883*
Y1731639*
X2113543Y1727103D02*
Y1727859D01*
Y1728615*
Y1729371*
Y1730127*
Y1730883*
Y1731639*
X2114299Y1727103D02*
Y1727859D01*
Y1728615*
Y1729371*
Y1730127*
Y1730883*
Y1731639*
X2115055Y1727103D02*
Y1727859D01*
Y1728615*
Y1729371*
Y1730127*
Y1730883*
Y1731639*
X2115811Y1727103D02*
Y1727859D01*
Y1728615*
Y1729371*
Y1730127*
Y1730883*
Y1731639*
X2116567Y1727103D02*
Y1727859D01*
Y1728615*
Y1729371*
Y1730127*
Y1730883*
Y1731639*
X2117323Y1727103D02*
Y1727859D01*
Y1728615*
Y1729371*
Y1730127*
Y1730883*
Y1731639*
X2118079Y1727103D02*
Y1727859D01*
Y1728615*
Y1729371*
Y1730127*
Y1730883*
Y1731639*
X2118835Y1727103D02*
Y1727859D01*
Y1728615*
Y1729371*
Y1730127*
Y1730883*
Y1731639*
X2119591Y1727103D02*
Y1727859D01*
Y1728615*
Y1729371*
Y1730127*
Y1730883*
Y1731639*
X2120346Y1727103D02*
Y1727859D01*
Y1728615*
Y1729371*
Y1730127*
Y1730883*
Y1731639*
X2121102Y1727103D02*
Y1727859D01*
Y1728615*
Y1729371*
Y1730127*
Y1730883*
Y1731639*
X2121858Y1727103D02*
Y1727859D01*
Y1728615*
Y1729371*
Y1730127*
Y1730883*
Y1731639*
X2122614Y1727103D02*
Y1727859D01*
X2121858*
X2121102*
X2120346*
X2119591*
X2118835*
X2118079*
X2117323*
X2116567*
X2115811*
X2115055*
X2114299*
X2113543*
X2112787*
X2112031*
X2111276*
X2123370Y1727103D02*
Y1727859D01*
Y1728615*
Y1729371*
Y1730127*
Y1730883*
Y1731639*
Y1732395*
Y1733151*
Y1733906*
X2122614*
Y1734662*
Y1735418*
Y1736174*
Y1736930*
Y1737686*
Y1738442*
Y1739198*
X2124126Y1727103D02*
Y1727859D01*
Y1728615*
Y1729371*
Y1730127*
Y1730883*
Y1731639*
Y1732395*
Y1733151*
Y1733906*
Y1734662*
Y1735418*
Y1736174*
Y1736930*
Y1737686*
Y1738442*
X2134709Y1727103D02*
Y1727859D01*
Y1728615*
Y1729371*
Y1730127*
Y1730883*
Y1731639*
Y1732395*
Y1733151*
Y1733906*
Y1734662*
Y1735418*
Y1736174*
Y1736930*
Y1737686*
Y1738442*
Y1739198*
Y1739954*
Y1740710*
Y1741466*
Y1742221*
Y1742977*
Y1743733*
Y1744489*
Y1745245*
Y1746001*
Y1746757*
Y1747513*
X2135465Y1727103D02*
Y1727859D01*
Y1728615*
Y1729371*
Y1730127*
Y1730883*
Y1731639*
Y1732395*
Y1733151*
Y1733906*
Y1734662*
Y1735418*
Y1736174*
Y1736930*
Y1737686*
Y1738442*
Y1739198*
Y1739954*
Y1740710*
Y1741466*
Y1742221*
Y1742977*
Y1743733*
Y1744489*
Y1745245*
Y1746001*
Y1746757*
Y1747513*
X2130929*
Y1746757*
X2130173*
Y1746001*
Y1745245*
Y1744489*
Y1743733*
Y1742977*
Y1742221*
X2130929*
Y1741466*
Y1740710*
Y1739954*
Y1739198*
Y1738442*
Y1737686*
Y1736930*
Y1736174*
Y1735418*
Y1734662*
Y1733906*
Y1733151*
Y1732395*
Y1731639*
Y1730883*
Y1730127*
X2131685*
Y1729371*
X2132441*
Y1728615*
X2133197*
Y1727859*
X2133953*
Y1727103*
X2134709*
X2135465*
X2136220*
X2136976*
X2137732*
X2138488*
X2139244*
X2140000*
X2140756*
X2141512*
X2142268*
X2143024*
X2143780*
X2144535*
X2145291*
Y1727859*
X2146047*
Y1728615*
X2146803*
Y1729371*
X2147559*
Y1730127*
X2148315*
Y1730883*
Y1731639*
Y1732395*
X2149071*
Y1733151*
Y1733906*
Y1734662*
Y1735418*
Y1736174*
Y1736930*
Y1737686*
Y1738442*
Y1739198*
Y1739954*
Y1740710*
Y1741466*
Y1742221*
Y1742977*
Y1743733*
Y1744489*
Y1745245*
Y1746001*
Y1746757*
X2148315*
Y1747513*
X2144535*
Y1746757*
X2143780*
Y1746001*
Y1745245*
Y1744489*
Y1743733*
Y1742977*
Y1742221*
Y1741466*
Y1740710*
Y1739954*
Y1739198*
Y1738442*
Y1737686*
Y1736930*
Y1736174*
Y1735418*
Y1734662*
Y1733906*
Y1733151*
Y1732395*
Y1731639*
Y1730883*
Y1730127*
Y1729371*
Y1728615*
Y1727859*
Y1727103*
X2136220D02*
Y1727859D01*
X2135465*
X2134709*
X2133953*
Y1728615*
Y1729371*
Y1730127*
Y1730883*
Y1731639*
Y1732395*
Y1733151*
Y1733906*
Y1734662*
Y1735418*
Y1736174*
Y1736930*
Y1737686*
Y1738442*
Y1739198*
Y1739954*
Y1740710*
Y1741466*
Y1742221*
Y1742977*
Y1743733*
Y1744489*
Y1745245*
Y1746001*
Y1746757*
Y1747513*
X2136976Y1727103D02*
Y1727859D01*
Y1728615*
Y1729371*
Y1730127*
Y1730883*
X2137732Y1727103D02*
Y1727859D01*
Y1728615*
Y1729371*
Y1730127*
Y1730883*
X2138488Y1727103D02*
Y1727859D01*
Y1728615*
Y1729371*
Y1730127*
Y1730883*
X2139244Y1727103D02*
Y1727859D01*
Y1728615*
Y1729371*
Y1730127*
Y1730883*
X2140000Y1727103D02*
Y1727859D01*
Y1728615*
Y1729371*
Y1730127*
Y1730883*
X2140756Y1727103D02*
Y1727859D01*
Y1728615*
Y1729371*
Y1730127*
Y1730883*
X2141512Y1727103D02*
Y1727859D01*
Y1728615*
Y1729371*
Y1730127*
Y1730883*
X2142268Y1727103D02*
Y1727859D01*
X2143024*
X2143780*
X2144535*
X2145291*
Y1728615*
Y1729371*
Y1730127*
Y1730883*
Y1731639*
Y1732395*
Y1733151*
Y1733906*
Y1734662*
Y1735418*
Y1736174*
Y1736930*
Y1737686*
Y1738442*
Y1739198*
Y1739954*
Y1740710*
Y1741466*
Y1742221*
Y1742977*
Y1743733*
Y1744489*
Y1745245*
Y1746001*
Y1746757*
Y1747513*
X2143024Y1727103D02*
Y1727859D01*
Y1728615*
Y1729371*
Y1730127*
Y1730883*
Y1731639*
X2144535Y1727103D02*
Y1727859D01*
Y1728615*
Y1729371*
Y1730127*
X2145291*
X2146047*
X2146803*
X2147559*
Y1730883*
Y1731639*
Y1732395*
Y1733151*
Y1733906*
Y1734662*
Y1735418*
Y1736174*
Y1736930*
Y1737686*
Y1738442*
Y1739198*
Y1739954*
Y1740710*
Y1741466*
Y1742221*
Y1742977*
Y1743733*
Y1744489*
Y1745245*
Y1746001*
Y1746757*
Y1747513*
X2152850Y1727103D02*
Y1727859D01*
X2153606*
Y1728615*
X2154362*
Y1729371*
X2155118*
X2155874*
X2156630*
X2153606Y1727103D02*
Y1727859D01*
X2154362*
Y1728615*
X2155118*
X2155874*
X2156630*
X2154362Y1727103D02*
Y1727859D01*
X2155118*
X2155874*
X2156630*
X2155118Y1727103D02*
Y1727859D01*
Y1728615*
Y1729371*
Y1730127*
Y1730883*
Y1731639*
Y1732395*
Y1733151*
Y1733906*
Y1734662*
Y1735418*
Y1736174*
Y1736930*
Y1737686*
Y1738442*
Y1739198*
Y1739954*
Y1740710*
Y1741466*
Y1742221*
Y1742977*
Y1743733*
Y1744489*
Y1745245*
Y1746001*
Y1746757*
X2155874Y1727103D02*
Y1727859D01*
Y1728615*
Y1729371*
Y1730127*
Y1730883*
Y1731639*
Y1732395*
Y1733151*
Y1733906*
Y1734662*
Y1735418*
Y1736174*
Y1736930*
Y1737686*
Y1738442*
Y1739198*
Y1739954*
Y1740710*
Y1741466*
Y1742221*
Y1742977*
Y1743733*
Y1744489*
Y1745245*
Y1746001*
Y1746757*
X2163433Y1727103D02*
Y1727859D01*
Y1728615*
Y1729371*
Y1730127*
Y1730883*
Y1731639*
Y1732395*
Y1733151*
Y1733906*
Y1734662*
Y1735418*
Y1736174*
Y1736930*
Y1737686*
Y1738442*
Y1739198*
Y1739954*
Y1740710*
Y1741466*
Y1742221*
Y1742977*
Y1743733*
X2162677*
Y1744489*
Y1745245*
X2161921*
Y1746001*
X2161165*
Y1746757*
X2158898*
Y1747513*
X2156630*
Y1746757*
X2154362*
Y1746001*
X2153606*
Y1745245*
X2152850*
Y1744489*
X2152094*
Y1743733*
Y1742977*
Y1742221*
Y1741466*
Y1740710*
Y1739954*
Y1739198*
Y1738442*
Y1737686*
Y1736930*
Y1736174*
Y1735418*
Y1734662*
Y1733906*
Y1733151*
Y1732395*
Y1731639*
Y1730883*
Y1730127*
Y1729371*
Y1728615*
Y1727859*
Y1727103*
X2152850*
X2153606*
X2154362*
X2155118*
X2155874*
X2156630*
Y1727859*
Y1728615*
Y1729371*
Y1730127*
Y1730883*
Y1731639*
Y1732395*
Y1733151*
Y1733906*
Y1734662*
Y1735418*
Y1736174*
Y1736930*
Y1737686*
Y1738442*
Y1739198*
Y1739954*
Y1740710*
Y1741466*
Y1742221*
Y1742977*
X2157386*
Y1743733*
Y1744489*
Y1745245*
Y1746001*
Y1746757*
Y1747513*
X2170236Y1727103D02*
Y1727859D01*
Y1728615*
Y1729371*
Y1730127*
Y1730883*
Y1731639*
Y1732395*
Y1733151*
Y1733906*
Y1734662*
Y1735418*
Y1736174*
Y1736930*
Y1737686*
Y1738442*
Y1739198*
Y1739954*
Y1740710*
Y1741466*
Y1742221*
Y1742977*
Y1743733*
Y1744489*
Y1745245*
Y1746001*
Y1746757*
Y1747513*
X2158898Y1742221D02*
Y1741466D01*
Y1740710*
Y1739954*
X2159654*
X2160409*
X2161165*
Y1739198*
Y1738442*
Y1737686*
Y1736930*
Y1736174*
Y1735418*
Y1734662*
Y1733906*
Y1733151*
Y1732395*
Y1731639*
Y1730883*
Y1730127*
Y1729371*
X2161921*
X2162677*
Y1728615*
Y1727859*
Y1727103*
X2163433*
X2164189*
Y1726347*
X2164945*
X2165701*
X2166457*
X2167213*
X2167969*
X2168724*
X2169480*
Y1727103*
Y1727859*
Y1728615*
Y1729371*
Y1730127*
Y1730883*
Y1731639*
Y1732395*
Y1733151*
Y1733906*
Y1734662*
Y1735418*
Y1736174*
Y1736930*
Y1737686*
Y1738442*
Y1739198*
Y1739954*
Y1740710*
Y1741466*
Y1742221*
Y1742977*
Y1743733*
Y1744489*
Y1745245*
Y1746001*
Y1746757*
Y1747513*
X2164945Y1726347D02*
Y1727103D01*
Y1727859*
Y1728615*
Y1729371*
Y1730127*
Y1730883*
Y1731639*
Y1732395*
Y1733151*
Y1733906*
Y1734662*
Y1735418*
Y1736174*
Y1736930*
X2164189*
X2163433*
X2162677*
Y1737686*
X2161921*
Y1738442*
X2161165*
X2160409*
X2159654*
X2165701Y1726347D02*
Y1727103D01*
Y1727859*
Y1728615*
Y1729371*
Y1730127*
Y1730883*
Y1731639*
Y1732395*
Y1733151*
X2164945*
X2164189*
X2163433*
X2162677*
Y1733906*
X2161921*
X2161165*
X2160409*
X2166457Y1726347D02*
Y1727103D01*
Y1727859*
Y1728615*
Y1729371*
Y1730127*
X2167213Y1726347D02*
Y1727103D01*
Y1727859*
Y1728615*
Y1729371*
Y1730127*
X2167969Y1726347D02*
Y1727103D01*
Y1727859*
Y1728615*
Y1729371*
Y1730127*
Y1730883*
Y1731639*
Y1732395*
Y1733151*
Y1733906*
Y1734662*
Y1735418*
Y1736174*
Y1736930*
Y1737686*
Y1738442*
Y1739198*
Y1739954*
Y1740710*
Y1741466*
Y1742221*
Y1742977*
Y1743733*
Y1744489*
Y1745245*
Y1746001*
Y1746757*
Y1747513*
X2172504*
Y1746757*
Y1746001*
Y1745245*
Y1744489*
Y1743733*
Y1742977*
Y1742221*
Y1741466*
Y1740710*
Y1739954*
Y1739198*
Y1738442*
Y1737686*
Y1736930*
Y1736174*
Y1735418*
Y1734662*
Y1733906*
Y1733151*
Y1732395*
Y1731639*
Y1730883*
Y1730127*
Y1729371*
Y1728615*
X2171748*
Y1727859*
X2170992*
Y1727103*
X2170236*
X2169480*
X2168724*
X2167969*
X2167213*
X2166457*
X2165701*
X2164945*
X2164189*
Y1727859*
Y1728615*
Y1729371*
Y1730127*
Y1730883*
Y1731639*
Y1732395*
Y1733151*
Y1733906*
Y1734662*
Y1735418*
Y1736174*
Y1736930*
Y1737686*
Y1738442*
Y1739198*
Y1739954*
Y1740710*
Y1741466*
X2163433*
X2162677*
Y1742221*
X2161921*
Y1742977*
X2161165*
Y1743733*
X2160409*
X2159654*
X2158898*
Y1744489*
X2158142*
X2157386*
X2156630*
Y1743733*
X2155874*
X2155118*
X2154362*
Y1742977*
X2153606*
Y1742221*
X2152850*
Y1741466*
X2152094*
X2168724Y1726347D02*
Y1727103D01*
Y1727859*
Y1728615*
Y1729371*
Y1730127*
Y1730883*
Y1731639*
Y1732395*
Y1733151*
Y1733906*
Y1734662*
Y1735418*
Y1736174*
Y1736930*
Y1737686*
Y1738442*
Y1739198*
Y1739954*
Y1740710*
Y1741466*
Y1742221*
Y1742977*
Y1743733*
Y1744489*
Y1745245*
Y1746001*
Y1746757*
Y1747513*
X2190000Y1781875D02*
X2190003D01*
X1810000D02*
X1810003D01*
G74*
X0Y0D02*
M02*
