*
*
G04 PADS 9.2 Build Number: 406656 generated Gerber (RS-274-X) file*
G04 PC Version=2.1*
*
%IN "Yosun-Semtech_SX9513-20"*%
*
%MOIN*%
*
%FSLAX35Y35*%
*
*
*
*
G04 PC Standard Apertures*
*
*
G04 Thermal Relief Aperture macro.*
%AMTER*
1,1,$1,0,0*
1,0,$1-$2,0,0*
21,0,$3,$4,0,0,45*
21,0,$3,$4,0,0,135*
%
*
*
G04 Annular Aperture macro.*
%AMANN*
1,1,$1,0,0*
1,0,$2,0,0*
%
*
*
G04 Odd Aperture macro.*
%AMODD*
1,1,$1,0,0*
1,0,$1-0.005,0,0*
%
*
*
G04 PC Custom Aperture Macros*
*
*
*
*
*
*
G04 PC Aperture Table*
*
%ADD011C,0.01*%
%ADD019C,0.001*%
*
*
*
*
G04 PC Circuitry*
G04 Layer Name Yosun-Semtech_SX9513-20 - circuitry*
%LPD*%
*
*
G04 PC Custom Flashes*
G04 Layer Name Yosun-Semtech_SX9513-20 - flashes*
%LPD*%
*
*
G04 PC Circuitry*
G04 Layer Name Yosun-Semtech_SX9513-20 - circuitry*
%LPD*%
*
G54D11*
G01X1960682Y1600625D02*
X1960227Y1601250D01*
X1959545Y1601563*
X1959545D02*
X1958636D01*
X1958636D02*
X1957955Y1601250D01*
X1957500Y1600625*
Y1600000*
X1957727Y1599375*
X1957955Y1599063*
X1957955D02*
X1958409Y1598750D01*
X1959773Y1598125*
X1960227Y1597813*
X1960227D02*
X1960455Y1597500D01*
X1960682Y1596875*
Y1595938*
X1960682D02*
X1960227Y1595313D01*
X1960227D02*
X1959545Y1595000D01*
X1958636*
X1957955Y1595313*
X1957955D02*
X1957500Y1595938D01*
X1962727Y1601563D02*
X1965909Y1595000D01*
Y1601563D02*
X1962727Y1595000D01*
X1970909Y1599375D02*
X1970682Y1598438D01*
X1970682D02*
X1970227Y1597813D01*
X1970227D02*
X1969545Y1597500D01*
X1969318*
X1968636Y1597813*
X1968636D02*
X1968182Y1598438D01*
X1968182D02*
X1967955Y1599375D01*
Y1599688*
X1967955D02*
X1968182Y1600625D01*
X1968636Y1601250*
X1969318Y1601563*
X1969318D02*
X1969545D01*
X1969545D02*
X1970227Y1601250D01*
X1970682Y1600625*
X1970909Y1599375*
Y1597813*
X1970909D02*
X1970682Y1596250D01*
X1970227Y1595313*
X1970227D02*
X1969545Y1595000D01*
X1969091*
X1968409Y1595313*
X1968409D02*
X1968182Y1595938D01*
X1975909Y1601563D02*
X1973636D01*
X1973636D02*
X1973409Y1598750D01*
X1973636Y1599063*
X1973636D02*
X1974318Y1599375D01*
X1975000*
X1975682Y1599063*
X1975682D02*
X1976136Y1598438D01*
X1976136D02*
X1976364Y1597500D01*
X1976136Y1596875*
X1975909Y1595938*
X1975909D02*
X1975455Y1595313D01*
X1975455D02*
X1974773Y1595000D01*
X1974091*
X1973409Y1595313*
X1973409D02*
X1973182Y1595625D01*
X1972955Y1596250*
X1978409Y1600313D02*
X1978864Y1600625D01*
X1979545Y1601563*
X1979545D02*
Y1595000D01*
X1982045Y1601563D02*
X1984545D01*
X1984545D02*
X1983182Y1599063D01*
X1983182D02*
X1983864D01*
X1983864D02*
X1984318Y1598750D01*
X1984545Y1598438*
X1984545D02*
X1984773Y1597500D01*
Y1596875*
X1984545Y1595938*
X1984545D02*
X1984091Y1595313D01*
X1984091D02*
X1983409Y1595000D01*
X1982727*
X1982045Y1595313*
X1982045D02*
X1981818Y1595625D01*
X1981591Y1596250*
X1993636Y1601563D02*
Y1595000D01*
X1992045Y1601563D02*
X1995227D01*
X1998409Y1599375D02*
X1997955Y1599063D01*
X1997955D02*
X1997500Y1598438D01*
X1997500D02*
X1997273Y1597500D01*
Y1596875*
X1997500Y1595938*
X1997500D02*
X1997955Y1595313D01*
X1997955D02*
X1998409Y1595000D01*
X1999091*
X1999545Y1595313*
X1999545D02*
X2000000Y1595938D01*
X2000000D02*
X2000227Y1596875D01*
Y1597500*
X2000000Y1598438*
X2000000D02*
X1999545Y1599063D01*
X1999545D02*
X1999091Y1599375D01*
X1998409*
X2002273D02*
Y1596250D01*
X2002500Y1595313*
X2002500D02*
X2002955Y1595000D01*
X2003636*
X2004091Y1595313*
X2004091D02*
X2004773Y1596250D01*
Y1599375D02*
Y1595000D01*
X2009545Y1598438D02*
X2009091Y1599063D01*
X2009091D02*
X2008636Y1599375D01*
X2007955*
X2007500Y1599063*
X2007500D02*
X2007045Y1598438D01*
X2007045D02*
X2006818Y1597500D01*
Y1596875*
X2007045Y1595938*
X2007045D02*
X2007500Y1595313D01*
X2007500D02*
X2007955Y1595000D01*
X2008636*
X2009091Y1595313*
X2009091D02*
X2009545Y1595938D01*
X2011591Y1601563D02*
Y1595000D01*
Y1598125D02*
X2012273Y1599063D01*
X2012273D02*
X2012727Y1599375D01*
X2013409*
X2013864Y1599063*
X2013864D02*
X2014091Y1598125D01*
Y1595000*
X2021364Y1601563D02*
Y1595000D01*
Y1601563D02*
X2023409D01*
X2023409D02*
X2024091Y1601250D01*
X2024318Y1600938*
X2024318D02*
X2024545Y1600313D01*
X2024545D02*
Y1599688D01*
X2024545D02*
X2024318Y1599063D01*
X2024318D02*
X2024091Y1598750D01*
X2023409Y1598438*
X2023409D02*
X2021364D01*
X2022955D02*
X2024545Y1595000D01*
X2026591Y1601563D02*
Y1595000D01*
Y1601563D02*
X2029545D01*
X2026591Y1598438D02*
X2028409D01*
X2026591Y1595000D02*
X2029545D01*
X2031591Y1601563D02*
X2033409Y1595000D01*
X2035227Y1601563D02*
X2033409Y1595000D01*
X2038636Y1601563D02*
X2037955Y1601250D01*
X2037500Y1600313*
X2037500D02*
X2037273Y1598750D01*
Y1597813*
X2037273D02*
X2037500Y1596250D01*
X2037955Y1595313*
X2037955D02*
X2038636Y1595000D01*
X2039091*
X2039773Y1595313*
X2039773D02*
X2040227Y1596250D01*
X2040455Y1597813*
X2040455D02*
Y1598750D01*
X2040227Y1600313*
X2040227D02*
X2039773Y1601250D01*
X2039091Y1601563*
X2039091D02*
X2038636D01*
G54D19*
X0Y0D02*
M02*
