*
*
G04 PADS 9.2 Build Number: 406656 generated Gerber (RS-274-X) file*
G04 PC Version=2.1*
*
%IN "Yosun-Semtech_SX9513-20"*%
*
%MOIN*%
*
%FSLAX35Y35*%
*
*
*
*
G04 PC Standard Apertures*
*
*
G04 Thermal Relief Aperture macro.*
%AMTER*
1,1,$1,0,0*
1,0,$1-$2,0,0*
21,0,$3,$4,0,0,45*
21,0,$3,$4,0,0,135*
%
*
*
G04 Annular Aperture macro.*
%AMANN*
1,1,$1,0,0*
1,0,$2,0,0*
%
*
*
G04 Odd Aperture macro.*
%AMODD*
1,1,$1,0,0*
1,0,$1-0.005,0,0*
%
*
*
G04 PC Custom Aperture Macros*
*
*
*
*
*
*
G04 PC Aperture Table*
*
%ADD011C,0.01*%
%ADD012C,0.012*%
%ADD013C,0.005*%
%ADD019C,0.001*%
%ADD021C,0.00787*%
*
*
*
*
G04 PC Circuitry*
G04 Layer Name Yosun-Semtech_SX9513-20 - circuitry*
%LPD*%
*
*
G04 PC Custom Flashes*
G04 Layer Name Yosun-Semtech_SX9513-20 - flashes*
%LPD*%
*
*
G04 PC Circuitry*
G04 Layer Name Yosun-Semtech_SX9513-20 - circuitry*
%LPD*%
*
G54D11*
G01X1857775Y1585075D02*
G75*
G03X1847775I-5000J9404D01*
G01X1847975Y1584875D02*
X1857975D01*
X1897775Y1585075D02*
G03X1887775I-5000J9404D01*
G01X1887975Y1584875D02*
X1897975D01*
X1937775Y1585075D02*
G03X1927775I-5000J9404D01*
G01X1927975Y1584875D02*
X1937975D01*
X2036375Y1661075D02*
Y1666875D01*
X2029375*
Y1661075*
X2036375Y1658675D02*
Y1652875D01*
X2029375*
Y1658675*
X1977775Y1585075D02*
G03X1967775I-5000J9404D01*
G01X1967975Y1584875D02*
X1977975D01*
X1876375Y1601075D02*
Y1606875D01*
X1869375*
Y1601075*
X1876375Y1598675D02*
Y1592875D01*
X1869375*
Y1598675*
X1916375Y1601075D02*
Y1606875D01*
X1909375*
Y1601075*
X1916375Y1598675D02*
Y1592875D01*
X1909375*
Y1598675*
X1956375Y1601075D02*
Y1606875D01*
X1949375*
Y1601075*
X1956375Y1598675D02*
Y1592875D01*
X1949375*
Y1598675*
X1996375Y1601075D02*
Y1606875D01*
X1989375*
Y1601075*
X1996375Y1598675D02*
Y1592875D01*
X1989375*
Y1598675*
X2017775Y1585075D02*
G03X2007775I-5000J9404D01*
G01X2007975Y1584875D02*
X2017975D01*
X2057775Y1585075D02*
G03X2047775I-5000J9404D01*
G01X2047975Y1584875D02*
X2057975D01*
X2097775Y1585075D02*
G03X2087775I-5000J9404D01*
G01X2087975Y1584875D02*
X2097975D01*
X2137775Y1585075D02*
G03X2127775I-5000J9404D01*
G01X2127975Y1584875D02*
X2137975D01*
X2029375Y1598675D02*
Y1592875D01*
X2036375*
Y1598675*
X2029375Y1601075D02*
Y1606875D01*
X2036375*
Y1601075*
X2069375Y1598675D02*
Y1592875D01*
X2076375*
Y1598675*
X2069375Y1601075D02*
Y1606875D01*
X2076375*
Y1601075*
X2109375Y1598675D02*
Y1592875D01*
X2116375*
Y1598675*
X2109375Y1601075D02*
Y1606875D01*
X2116375*
Y1601075*
X2149375Y1598675D02*
Y1592875D01*
X2156375*
Y1598675*
X2149375Y1601075D02*
Y1606875D01*
X2156375*
Y1601075*
X2014552Y1669567D02*
Y1663767D01*
X2021552*
Y1669567*
X2014552Y1671967D02*
Y1677767D01*
X2021552*
Y1671967*
X1898788Y1652475D02*
G03X1898788I-21213J0D01*
G01X1938188Y1719875D02*
X1938500Y1719420D01*
X1939438Y1718739*
X1932875*
X1939438Y1714420D02*
X1935063Y1716693D01*
Y1713284*
X1939438Y1714420D02*
X1932875D01*
X2053188Y1729875D02*
X2053500Y1729420D01*
X2054438Y1728739*
X2047875*
X2052875Y1719648D02*
X2053188D01*
X2053813Y1719420*
X2054125Y1719193*
X2054438Y1718739*
Y1717830*
X2054125Y1717375*
X2053813Y1717148*
X2053188Y1716920*
X2052563*
X2051938Y1717148*
X2051000Y1717602*
X2047875Y1719875*
Y1716693*
X1938188Y1734875D02*
X1938500Y1734420D01*
X1939438Y1733739*
X1932875*
X1939438Y1731239D02*
Y1728739D01*
X1936938Y1730102*
Y1729420*
X1936625Y1728966*
X1936313Y1728739*
X1935375Y1728511*
X1934750*
X1933813Y1728739*
X1933188Y1729193*
X1932875Y1729875*
Y1730557*
X1933188Y1731239*
X1933500Y1731466*
X1934125Y1731693*
X1937875Y1654875D02*
X1927875D01*
X1937875Y1653875D02*
X1927875D01*
X1932875Y1639875D02*
Y1634875D01*
X1927875Y1659875D02*
X1937875D01*
Y1639875*
X1927875*
Y1659875*
X1932875D02*
Y1665875D01*
X1937875Y1655875D02*
X1927875D01*
X2055275Y1637275D02*
G03Y1662775I8123J12750D01*
G01X2055375Y1662175D02*
Y1637675D01*
X1966313Y1666764D02*
X1972113D01*
Y1673764*
X1966313*
X1963913Y1666764D02*
X1958113D01*
Y1673764*
X1963913*
X1867875Y1601438D02*
Y1594875D01*
Y1601438D02*
X1869466D01*
X1869466D02*
X1870148Y1601125D01*
X1870602Y1600500*
X1870830Y1599875*
X1871057Y1598938*
X1871057D02*
Y1597375D01*
X1870830Y1596438*
X1870830D02*
X1870602Y1595813D01*
X1870602D02*
X1870148Y1595188D01*
X1870148D02*
X1869466Y1594875D01*
X1867875*
X1873102Y1600188D02*
X1873557Y1600500D01*
X1874239Y1601438*
X1874239D02*
Y1594875D01*
X1907875Y1601438D02*
Y1594875D01*
Y1601438D02*
X1909466D01*
X1909466D02*
X1910148Y1601125D01*
X1910602Y1600500*
X1910830Y1599875*
X1911057Y1598938*
X1911057D02*
Y1597375D01*
X1910830Y1596438*
X1910830D02*
X1910602Y1595813D01*
X1910602D02*
X1910148Y1595188D01*
X1910148D02*
X1909466Y1594875D01*
X1907875*
X1913330Y1599875D02*
Y1600188D01*
X1913330D02*
X1913557Y1600813D01*
X1913557D02*
X1913784Y1601125D01*
X1914239Y1601438*
X1914239D02*
X1915148D01*
X1915148D02*
X1915602Y1601125D01*
X1915830Y1600813*
X1915830D02*
X1916057Y1600188D01*
X1916057D02*
Y1599563D01*
X1916057D02*
X1915830Y1598938D01*
X1915830D02*
X1915375Y1598000D01*
X1913102Y1594875*
X1916284*
X1947875Y1601438D02*
Y1594875D01*
Y1601438D02*
X1949466D01*
X1949466D02*
X1950148Y1601125D01*
X1950602Y1600500*
X1950830Y1599875*
X1951057Y1598938*
X1951057D02*
Y1597375D01*
X1950830Y1596438*
X1950830D02*
X1950602Y1595813D01*
X1950602D02*
X1950148Y1595188D01*
X1950148D02*
X1949466Y1594875D01*
X1947875*
X1953557Y1601438D02*
X1956057D01*
X1956057D02*
X1954693Y1598938D01*
X1954693D02*
X1955375D01*
X1955375D02*
X1955830Y1598625D01*
X1956057Y1598313*
X1956057D02*
X1956284Y1597375D01*
Y1596750*
X1956057Y1595813*
X1956057D02*
X1955602Y1595188D01*
X1955602D02*
X1954921Y1594875D01*
X1954239*
X1953557Y1595188*
X1953557D02*
X1953330Y1595500D01*
X1953102Y1596125*
X2054438Y1666875D02*
X2047875D01*
X2054438D02*
Y1664830D01*
X2054125Y1664148*
X2053813Y1663920*
X2053188Y1663693*
X2052563*
X2051938Y1663920*
X2051625Y1664148*
X2051313Y1664830*
Y1666875*
Y1665284D02*
X2047875Y1663693D01*
X2053188Y1661648D02*
X2053500Y1661193D01*
X2054438Y1660511*
X2047875*
X1987875Y1601438D02*
Y1594875D01*
Y1601438D02*
X1989466D01*
X1989466D02*
X1990148Y1601125D01*
X1990602Y1600500*
X1990830Y1599875*
X1991057Y1598938*
X1991057D02*
Y1597375D01*
X1990830Y1596438*
X1990830D02*
X1990602Y1595813D01*
X1990602D02*
X1990148Y1595188D01*
X1990148D02*
X1989466Y1594875D01*
X1987875*
X1995375Y1601438D02*
X1993102Y1597063D01*
X1993102D02*
X1996512D01*
X1995375Y1601438D02*
Y1594875D01*
X1894438Y1606875D02*
X1887875D01*
X1894438D02*
Y1604830D01*
X1894125Y1604148*
X1893813Y1603920*
X1893188Y1603693*
X1892563*
X1891938Y1603920*
X1891625Y1604148*
X1891313Y1604830*
Y1606875*
Y1605284D02*
X1887875Y1603693D01*
X1892875Y1601420D02*
X1893188D01*
X1893813Y1601193*
X1894125Y1600966*
X1894438Y1600511*
Y1599602*
X1894125Y1599148*
X1893813Y1598920*
X1893188Y1598693*
X1892563*
X1891938Y1598920*
X1891000Y1599375*
X1887875Y1601648*
Y1598466*
X1934438Y1606875D02*
X1927875D01*
X1934438D02*
Y1604830D01*
X1934125Y1604148*
X1933813Y1603920*
X1933188Y1603693*
X1932563*
X1931938Y1603920*
X1931625Y1604148*
X1931313Y1604830*
Y1606875*
Y1605284D02*
X1927875Y1603693D01*
X1934438Y1601193D02*
Y1598693D01*
X1931938Y1600057*
Y1599375*
X1931625Y1598920*
X1931313Y1598693*
X1930375Y1598466*
X1929750*
X1928813Y1598693*
X1928188Y1599148*
X1927875Y1599830*
Y1600511*
X1928188Y1601193*
X1928500Y1601420*
X1929125Y1601648*
X1974438Y1606875D02*
X1967875D01*
X1974438D02*
Y1604830D01*
X1974125Y1604148*
X1973813Y1603920*
X1973188Y1603693*
X1972563*
X1971938Y1603920*
X1971625Y1604148*
X1971313Y1604830*
Y1606875*
Y1605284D02*
X1967875Y1603693D01*
X1974438Y1599375D02*
X1970063Y1601648D01*
Y1598239*
X1974438Y1599375D02*
X1967875D01*
X2014438Y1606875D02*
X2007875D01*
X2014438D02*
Y1604830D01*
X2014125Y1604148*
X2013813Y1603920*
X2013188Y1603693*
X2012563*
X2011938Y1603920*
X2011625Y1604148*
X2011313Y1604830*
Y1606875*
Y1605284D02*
X2007875Y1603693D01*
X2014438Y1598693D02*
Y1600966D01*
X2011625Y1601193*
X2011938Y1600966*
X2012250Y1600284*
Y1599602*
X2011938Y1598920*
X2011313Y1598466*
X2010375Y1598239*
X2009750Y1598466*
X2008813Y1598693*
X2008188Y1599148*
X2007875Y1599830*
Y1600511*
X2008188Y1601193*
X2008500Y1601420*
X2009125Y1601648*
X2027875Y1601438D02*
Y1594875D01*
Y1601438D02*
X2029466D01*
X2029466D02*
X2030148Y1601125D01*
X2030602Y1600500*
X2030830Y1599875*
X2031057Y1598938*
X2031057D02*
Y1597375D01*
X2030830Y1596438*
X2030830D02*
X2030602Y1595813D01*
X2030602D02*
X2030148Y1595188D01*
X2030148D02*
X2029466Y1594875D01*
X2027875*
X2036057Y1601438D02*
X2033784D01*
X2033784D02*
X2033557Y1598625D01*
X2033784Y1598938*
X2033784D02*
X2034466Y1599250D01*
X2035148*
X2035830Y1598938*
X2035830D02*
X2036284Y1598313D01*
X2036284D02*
X2036512Y1597375D01*
X2036512D02*
X2036284Y1596750D01*
X2036057Y1595813*
X2036057D02*
X2035602Y1595188D01*
X2035602D02*
X2034921Y1594875D01*
X2034239*
X2033557Y1595188*
X2033557D02*
X2033330Y1595500D01*
X2033102Y1596125*
X2067875Y1601438D02*
Y1594875D01*
Y1601438D02*
X2069466D01*
X2069466D02*
X2070148Y1601125D01*
X2070602Y1600500*
X2070830Y1599875*
X2071057Y1598938*
X2071057D02*
Y1597375D01*
X2070830Y1596438*
X2070830D02*
X2070602Y1595813D01*
X2070602D02*
X2070148Y1595188D01*
X2070148D02*
X2069466Y1594875D01*
X2067875*
X2075830Y1600500D02*
X2075602Y1601125D01*
X2074921Y1601438*
X2074921D02*
X2074466D01*
X2074466D02*
X2073784Y1601125D01*
X2073330Y1600188*
X2073330D02*
X2073102Y1598625D01*
Y1597063*
X2073102D02*
X2073330Y1595813D01*
X2073330D02*
X2073784Y1595188D01*
X2073784D02*
X2074466Y1594875D01*
X2074693*
X2075375Y1595188*
X2075375D02*
X2075830Y1595813D01*
X2075830D02*
X2076057Y1596750D01*
Y1597063*
X2076057D02*
X2075830Y1598000D01*
X2075375Y1598625*
X2074693Y1598938*
X2074693D02*
X2074466D01*
X2074466D02*
X2073784Y1598625D01*
X2073330Y1598000*
X2073102Y1597063*
X2107875Y1601438D02*
Y1594875D01*
Y1601438D02*
X2109466D01*
X2109466D02*
X2110148Y1601125D01*
X2110602Y1600500*
X2110830Y1599875*
X2111057Y1598938*
X2111057D02*
Y1597375D01*
X2110830Y1596438*
X2110830D02*
X2110602Y1595813D01*
X2110602D02*
X2110148Y1595188D01*
X2110148D02*
X2109466Y1594875D01*
X2107875*
X2116284Y1601438D02*
X2114012Y1594875D01*
X2113102Y1601438D02*
X2116284D01*
X2147875D02*
Y1594875D01*
Y1601438D02*
X2149466D01*
X2149466D02*
X2150148Y1601125D01*
X2150602Y1600500*
X2150830Y1599875*
X2151057Y1598938*
X2151057D02*
Y1597375D01*
X2150830Y1596438*
X2150830D02*
X2150602Y1595813D01*
X2150602D02*
X2150148Y1595188D01*
X2150148D02*
X2149466Y1594875D01*
X2147875*
X2154239Y1601438D02*
X2153557Y1601125D01*
X2153330Y1600500*
Y1599875*
X2153557Y1599250*
X2154012Y1598938*
X2154012D02*
X2154921Y1598625D01*
X2155602Y1598313*
X2155602D02*
X2156057Y1597688D01*
X2156057D02*
X2156284Y1597063D01*
X2156284D02*
Y1596125D01*
X2156057Y1595500*
X2155830Y1595188*
X2155830D02*
X2155148Y1594875D01*
X2154239*
X2153557Y1595188*
X2153557D02*
X2153330Y1595500D01*
X2153102Y1596125*
Y1597063*
X2153102D02*
X2153330Y1597688D01*
X2153330D02*
X2153784Y1598313D01*
X2153784D02*
X2154466Y1598625D01*
X2155375Y1598938*
X2155375D02*
X2155830Y1599250D01*
X2156057Y1599875*
Y1600500*
X2155830Y1601125*
X2155148Y1601438*
X2155148D02*
X2154239D01*
X2011313Y1592875D02*
X2017875D01*
X2011313D02*
Y1594920D01*
X2011625Y1595602*
X2011938Y1595830*
X2012563Y1596057*
X2013188*
X2013813Y1595830*
X2014125Y1595602*
X2014438Y1594920*
Y1592875*
Y1594466D02*
X2017875Y1596057D01*
X2012250Y1600830D02*
X2011625Y1600602D01*
X2011313Y1599920*
Y1599466*
X2011625Y1598784*
X2012563Y1598330*
X2014125Y1598102*
X2015688*
X2016938Y1598330*
X2017563Y1598784*
X2017875Y1599466*
Y1599693*
X2017563Y1600375*
X2016938Y1600830*
X2016000Y1601057*
X2015688*
X2014750Y1600830*
X2014125Y1600375*
X2013813Y1599693*
Y1599466*
X2014125Y1598784*
X2014750Y1598330*
X2015688Y1598102*
X2051313Y1592875D02*
X2057875D01*
X2051313D02*
Y1594920D01*
X2051625Y1595602*
X2051938Y1595830*
X2052563Y1596057*
X2053188*
X2053813Y1595830*
X2054125Y1595602*
X2054438Y1594920*
Y1592875*
Y1594466D02*
X2057875Y1596057D01*
X2051313Y1601284D02*
X2057875Y1599011D01*
X2051313Y1598102D02*
Y1601284D01*
X2091313Y1592875D02*
X2097875D01*
X2091313D02*
Y1594920D01*
X2091625Y1595602*
X2091938Y1595830*
X2092563Y1596057*
X2093188*
X2093813Y1595830*
X2094125Y1595602*
X2094438Y1594920*
Y1592875*
Y1594466D02*
X2097875Y1596057D01*
X2091313Y1599239D02*
X2091625Y1598557D01*
X2092250Y1598330*
X2092875*
X2093500Y1598557*
X2093813Y1599011*
X2094125Y1599920*
X2094438Y1600602*
X2095063Y1601057*
X2095688Y1601284*
X2096625*
X2097250Y1601057*
X2097563Y1600830*
X2097875Y1600148*
Y1599239*
X2097563Y1598557*
X2097250Y1598330*
X2096625Y1598102*
X2095688*
X2095063Y1598330*
X2094438Y1598784*
X2094125Y1599466*
X2093813Y1600375*
X2093500Y1600830*
X2092875Y1601057*
X2092250*
X2091625Y1600830*
X2091313Y1600148*
Y1599239*
X2131313Y1592875D02*
X2137875D01*
X2131313D02*
Y1594920D01*
X2131625Y1595602*
X2131938Y1595830*
X2132563Y1596057*
X2133188*
X2133813Y1595830*
X2134125Y1595602*
X2134438Y1594920*
Y1592875*
Y1594466D02*
X2137875Y1596057D01*
X2133500Y1601057D02*
X2134438Y1600830D01*
X2135063Y1600375*
X2135375Y1599693*
Y1599466*
X2135063Y1598784*
X2134438Y1598330*
X2133500Y1598102*
X2133188*
X2132250Y1598330*
X2131625Y1598784*
X2131313Y1599466*
Y1599693*
X2131625Y1600375*
X2132250Y1600830*
X2133500Y1601057*
X2135063*
X2136625Y1600830*
X2137563Y1600375*
X2137875Y1599693*
Y1599239*
X2137563Y1598557*
X2136938Y1598330*
X1998052Y1667176D02*
X1997427Y1666949D01*
X1996802Y1666494*
X1996490Y1666040*
Y1665131*
X1996802Y1664676*
X1997427Y1664222*
X1998052Y1663994*
X1998990Y1663767*
X2000552*
X2001490Y1663994*
X2002115Y1664222*
X2002740Y1664676*
X2003052Y1665131*
Y1666040*
X2002740Y1666494*
X2002115Y1666949*
X2001490Y1667176*
X1998052Y1669449D02*
X1997740D01*
X1997115Y1669676*
X1996802Y1669903*
X1996490Y1670358*
Y1671267*
X1996802Y1671722*
X1997115Y1671949*
X1997740Y1672176*
X1998365*
X1998990Y1671949*
X1999927Y1671494*
X2003052Y1669222*
Y1672403*
X1999438Y1767602D02*
X1994438D01*
X1993500Y1767830*
X1993188Y1768057*
X1992875Y1768511*
Y1768966*
X1993188Y1769420*
X1993500Y1769648*
X1994438Y1769875*
X1995063*
X1997875Y1765330D02*
X1998188D01*
X1998813Y1765102*
X1999125Y1764875*
X1999438Y1764420*
Y1763511*
X1999125Y1763057*
X1998813Y1762830*
X1998188Y1762602*
X1997563*
X1996938Y1762830*
X1996000Y1763284*
X1992875Y1765557*
Y1762375*
X1957438Y1655875D02*
X1950875D01*
X1957438D02*
Y1654284D01*
X1957125Y1653602*
X1956500Y1653148*
X1955875Y1652920*
X1954938Y1652693*
X1953375*
X1952438Y1652920*
X1951813Y1653148*
X1951188Y1653602*
X1950875Y1654284*
Y1655875*
X1955250Y1647693D02*
X1954313Y1647920D01*
X1953688Y1648375*
X1953375Y1649057*
Y1649284*
X1953688Y1649966*
X1954313Y1650420*
X1955250Y1650648*
X1955563*
X1956500Y1650420*
X1957125Y1649966*
X1957438Y1649284*
Y1649057*
X1957125Y1648375*
X1956500Y1647920*
X1955250Y1647693*
X1953688*
X1952125Y1647920*
X1951188Y1648375*
X1950875Y1649057*
Y1649511*
X1951188Y1650193*
X1951813Y1650420*
X2054438Y1656011D02*
X2054125Y1656466D01*
X2053500Y1656920*
X2052875Y1657148*
X2051938Y1657375*
X2050375*
X2049438Y1657148*
X2048813Y1656920*
X2048188Y1656466*
X2047875Y1656011*
Y1655102*
X2048188Y1654648*
X2048813Y1654193*
X2049438Y1653966*
X2050375Y1653739*
X2051938*
X2052875Y1653966*
X2053500Y1654193*
X2054125Y1654648*
X2054438Y1655102*
Y1656011*
X2049125Y1655330D02*
X2047250Y1653966D01*
X2052875Y1651466D02*
X2053188D01*
X2053813Y1651239*
X2054125Y1651011*
X2054438Y1650557*
Y1649648*
X2054125Y1649193*
X2053813Y1648966*
X2053188Y1648739*
X2052563*
X2051938Y1648966*
X2051000Y1649420*
X2047875Y1651693*
Y1648511*
X1968704Y1650264D02*
X1968932Y1649639D01*
X1969386Y1649014*
X1969841Y1648702*
X1970750*
X1971204Y1649014*
X1971659Y1649639*
X1971886Y1650264*
X1972113Y1651202*
Y1652764*
X1971886Y1653702*
X1971659Y1654327*
X1971204Y1654952*
X1970750Y1655264*
X1969841*
X1969386Y1654952*
X1968932Y1654327*
X1968704Y1653702*
X1966659Y1649952D02*
X1966204Y1649639D01*
X1965522Y1648702*
Y1655264*
G54D12*
X2042875Y1704875D02*
X1942875D01*
Y1744875*
X1982875*
Y1739875*
X2002875*
Y1744875*
X2042875*
Y1704875*
G54D13*
X1989594Y1659875D02*
X1991938D01*
X1992406Y1659989*
X1992719Y1660216*
X1992875Y1660557*
Y1660784*
X1992719Y1661125*
X1992406Y1661352*
X1991938Y1661466*
X1989594*
X1990219Y1662489D02*
X1990063Y1662716D01*
X1989594Y1663057*
X1992875*
X1864466Y1432688D02*
X1864239Y1433000D01*
X1863898Y1433156*
X1863443*
X1863102Y1433000*
X1862875Y1432688*
X1862875D02*
Y1432375D01*
X1862989Y1432063*
X1862989D02*
X1863102Y1431906D01*
X1863330Y1431750*
X1864012Y1431438*
X1864012D02*
X1864239Y1431281D01*
X1864352Y1431125*
X1864466Y1430813*
X1864466D02*
Y1430344D01*
X1864239Y1430031*
X1863898Y1429875*
X1863443*
X1863102Y1430031*
X1862875Y1430344*
X1865489Y1432531D02*
X1865716Y1432688D01*
X1865716D02*
X1866057Y1433156D01*
Y1429875*
X1944466Y1432688D02*
X1944239Y1433000D01*
X1943898Y1433156*
X1943443*
X1943102Y1433000*
X1942875Y1432688*
X1942875D02*
Y1432375D01*
X1942989Y1432063*
X1942989D02*
X1943102Y1431906D01*
X1943330Y1431750*
X1944012Y1431438*
X1944012D02*
X1944239Y1431281D01*
X1944352Y1431125*
X1944466Y1430813*
X1944466D02*
Y1430344D01*
X1944239Y1430031*
X1943898Y1429875*
X1943443*
X1943102Y1430031*
X1942875Y1430344*
X1945602Y1432375D02*
Y1432531D01*
X1945716Y1432844*
X1945830Y1433000*
X1946057Y1433156*
X1946512*
X1946512D02*
X1946739Y1433000D01*
X1946852Y1432844*
X1946966Y1432531*
Y1432219*
X1946852Y1431906*
X1946625Y1431438*
X1946625D02*
X1945489Y1429875D01*
X1947080*
X2024466Y1432688D02*
X2024239Y1433000D01*
X2023898Y1433156*
X2023443*
X2023102Y1433000*
X2022875Y1432688*
X2022875D02*
Y1432375D01*
X2022989Y1432063*
X2022989D02*
X2023102Y1431906D01*
X2023330Y1431750*
X2024012Y1431438*
X2024012D02*
X2024239Y1431281D01*
X2024352Y1431125*
X2024466Y1430813*
X2024466D02*
Y1430344D01*
X2024239Y1430031*
X2023898Y1429875*
X2023443*
X2023102Y1430031*
X2022875Y1430344*
X2025716Y1433156D02*
X2026966D01*
X2026284Y1431906*
X2026625*
X2026852Y1431750*
X2026966Y1431594*
X2027080Y1431125*
Y1430813*
X2027080D02*
X2026966Y1430344D01*
X2026739Y1430031*
X2026398Y1429875*
X2026057*
X2025716Y1430031*
X2025602Y1430188*
X2025602D02*
X2025489Y1430500D01*
X2104466Y1432688D02*
X2104239Y1433000D01*
X2103898Y1433156*
X2103443*
X2103102Y1433000*
X2102875Y1432688*
X2102875D02*
Y1432375D01*
X2102989Y1432063*
X2102989D02*
X2103102Y1431906D01*
X2103330Y1431750*
X2104012Y1431438*
X2104012D02*
X2104239Y1431281D01*
X2104352Y1431125*
X2104466Y1430813*
X2104466D02*
Y1430344D01*
X2104239Y1430031*
X2103898Y1429875*
X2103443*
X2103102Y1430031*
X2102875Y1430344*
X2106625Y1433156D02*
X2105489Y1430969D01*
X2107193*
X2106625Y1433156D02*
Y1429875D01*
X2004466Y1532688D02*
X2004239Y1533000D01*
X2003898Y1533156*
X2003443*
X2003102Y1533000*
X2002875Y1532688*
X2002875D02*
Y1532375D01*
X2002989Y1532063*
X2002989D02*
X2003102Y1531906D01*
X2003330Y1531750*
X2004012Y1531438*
X2004012D02*
X2004239Y1531281D01*
X2004352Y1531125*
X2004466Y1530813*
X2004466D02*
Y1530344D01*
X2004239Y1530031*
X2003898Y1529875*
X2003443*
X2003102Y1530031*
X2002875Y1530344*
X2006966Y1533156D02*
X2005830D01*
X2005716Y1531750*
X2005830Y1531906*
X2006171Y1532063*
X2006171D02*
X2006512D01*
X2006512D02*
X2006852Y1531906D01*
X2007080Y1531594*
X2007193Y1531125*
X2007080Y1530813*
X2007080D02*
X2006966Y1530344D01*
X2006739Y1530031*
X2006398Y1529875*
X2006057*
X2005716Y1530031*
X2005602Y1530188*
X2005602D02*
X2005489Y1530500D01*
G54D19*
G54D21*
X1977521Y1653182D02*
Y1659038D01*
X1979440*
Y1660712*
X1977521*
Y1666568*
X2008229*
Y1653182*
X1977521*
G74*
X0Y0D02*
M02*
