%
T1C.03F197S55
X0164Y016
X0244Y016
X01647Y03676
X01647Y03976
X0324Y016
X0404Y016
T2C.035F197S55
X014Y032
X018Y032
X022Y032
X018Y033
X014Y033
X022Y033
X022Y036
X022Y04
X026Y033
X03Y033
X03Y032
X026Y032
X029Y024
X034Y032
X038Y032
X038Y033
X034Y033
X035Y037
X036Y038
X035Y039
X042Y033
X042Y032
T3C.037F197S55
X016Y031
X02Y031
X024Y031
X0255Y03625
X026Y0375
X026Y0385
X0255Y0395
X026Y045
X025Y045
X026Y046
X025Y046
X028Y046
X027Y046
X031Y046
X029Y046
X03Y046
X028Y045
X027Y045
X029Y045
X031Y045
X03Y045
X028Y039
X0305Y038
X02925Y037
X02675Y037
X028Y03675
X02725Y03625
X02675Y03475
X02875Y03225
X02725Y03225
X028Y031
X033Y03225
M30
